<?xml version="1.0" encoding="utf-8"?>
<!-- Generator: Adobe Illustrator 26.1.0, SVG Export Plug-In . SVG Version: 6.00 Build 0)  -->
<svg version="1.1" id="Layer_1" xmlns="http://www.w3.org/2000/svg" xmlns:xlink="http://www.w3.org/1999/xlink" x="0px" y="0px"
	 viewBox="0 0 80 80" style="enable-background:new 0 0 80 80;" xml:space="preserve">
<g>
	<path d="M79,28.1c0-2.5-0.2-6.9-2.2-9.8c-0.9-1.4-1.8-1.7-2.3-1.8c-0.9-0.2-1.7,0-2.8,0.4c-1.6,0.6-2.7,1.4-3,1.7
		c-0.8,0.7-1.2,1.4-1.9,2.4c0,0-2.3,3.5-3.2,7.9c-0.1,0.7-0.2,1.3-0.2,1.3c0,0.4,0,0.8,0,0.9c0,0.4,0.1,0.7,0.1,0.9
		c1.9-0.6,3.3-0.8,4-0.7c0.7,0,1.3,0.2,1.3,0.2c0.2,0.1,0.4,0.1,0.5,0.2c-0.4,0.1-0.8,0.2-1.2,0.2c-1.2,0.3-2.9,0.8-4.7,1.6
		c-1.1,0.6-2.2,1.4-3.2,2.3c-0.6,0.5-1.2,1.1-1.7,1.8c-0.2,0.2-0.3,0.5-0.5,0.7c-1.2,2-1.8,4.4-1.8,5.6c0,0.3,0.1,0.5,0.2,0.7
		c0.1,0.2,0.3,0.5,0.6,1c0.5,0.8,1,1.6,1.2,2.6c0,0,0,0,0,0c0,0.1,0,0.1,0,0.2c0,0,0,0.1,0,0.1c0,0.2,0.1,0.4,0.1,0.6
		c0,0.4,0,0.8-0.1,1.2c0,0,0-0.1,0-0.1c0,0,0,0,0,0C58.2,48,56,45.5,56,45.5c-1.1-1.2-2.1-2.1-2.8-2.7c-1.4-1.2-2.6-2-3.8-2.8
		c-0.9-0.6-1.7-1.1-2.2-1.5c0,0,0,0,0,0c0.4,0.9,0.9,1.7,1.3,2.6c0,0,0,0,0,0c0,0,0,0,0,0l-0.1,0.1l-4.4-6.5
		c-0.1,0.3-0.4,0.8-0.6,1.4c-0.1,0.3-0.3,0.7-0.4,1c0,0,0,0,0,0c0,0,0,0.1,0,0.1c0,0.1,0.1,0.3,0.2,0.4c0.1,0.2,0.4,0.4,0.8,0.9
		c0.2,0.2,0.5,0.6,0.5,0.7c0,0-0.3-0.2-1.7-1.5c-0.3,0.9-0.7,2.1-1.3,3.5c-0.2,0.5-0.4,0.8-0.4,0.9c0,0.1-0.1,0.1-0.1,0.2
		c-0.1,0.3-0.1,0.7,0,1.3c0.8,2.5,1.7,4.9,2.6,7.4c0.4,1.1,0.7,2.1,1,2.8c0.4,0.9,0.8,1.9,1.3,2.9c0.6,1,1.1,1.4,2,2.5
		c1.5,1.9,3.4,3.7,3.9,4.2c0.6,0.6,1.2,1.1,1.6,1.4c1.3,0.8,2.4,1.1,3.3,0.9c0.1,0,0.3-0.1,0.4-0.1c0,0,0,0,0,0c0,0,0,0,0,0
		c0.4-0.2,1-0.6,1.7-1.1c0.2-0.2,0.3-0.3,0.3-0.3c1.9-1.5,3.1-2.6,3.9-3.6c0.3-0.4,0.6-0.8,0.8-1.1c0.2-0.2,0.5-0.8,0.7-1.5
		c0.4-1.2,0.3-2.2,0.3-2.9c0-0.7-0.1-1.3,0-1.3c0.1,0,0.3,0.4,0.4,0.7c0.6,1.5,0,2.6,0.4,2.9c0.7,0.5,3-1.6,3.2-1.7
		c0.7-0.6,1.6-1.6,3.2-4c0.9-1.4,0.6-1.1,2.9-5.1c0.7-1.2,1.5-2.7,2.1-4.7c0.3-1.1,0.3-1.8,0-2.4c-0.4-0.7-1.3-1.5-1.5-1.6
		c0,0,0,0,0,0c-0.2-0.1-0.4-0.3-0.6-0.4c-0.4-0.2-0.8-0.4-1.2-0.5c0-0.1,0-0.1,0-0.2c0.4-0.1,0.9-0.1,1.5-0.1c0,0,0.4,0,0.6,0
		c1.2,0.2,1.7,1.8,2.1,1.8C78.4,38.7,79.1,34.3,79,28.1z M72.6,35.9L72.6,35.9c-0.7,0.3-1.2,0.9-1.5,1.7c-0.8,1.9-1.5,3.8-2.3,5.6
		c-1.1,2.5-2.7,4.4-4.7,5.8c-1.1,0.7-1.9,0.9-3,0.7c4.1-2.1,6.3-6.2,8-10.8c0.7-1.7,0.8-3.6,0.5-5.5c1,0.6,1.2,1.6,1.1,2.8
		c1-0.6,1.9-1.2,3.1-1C73.4,35.5,73,35.7,72.6,35.9z"/>
	<path d="M43.5,33.6c0.4-0.9,2.1-2.5,2.1-2.5s0.9-0.7,1.9-1.6c1-0.9,2.5-3.2,2.5-3.2c0.1-3,0-5.1,0-5.4l0,0
		c-0.1-0.2-0.1-0.4-0.1-0.4c-0.1-0.2-0.1-0.2-0.2-0.8c-0.2-1.4-0.7-1.7-0.7-1.7c-0.2,0-0.8-0.7-0.9-0.8c-0.3-0.2-1-1.9-1-2
		c-0.3-0.7-0.8-1.1-0.8-1.1c-0.8-0.5-1.6,0.1-1.6,0.1s0.9,0.9,0.9,0.8c0.8,0.7,0.5,1.3,0.5,1.3c-0.1,0.4-1,1.1-1,1.1
		c0.7,1.1,0.7,2.3,0.7,2.3l0.2,2.3c0.1,1.3-0.5,1.7-0.4,1.7c-0.3,0.2-0.3,0.7-0.3,0.7c0,0.8-0.2,1.1-0.3,1.1
		c-0.4,0.6-1.1,0.4-1.1,0.4c0,0.6-0.5,1.2-0.8,1.5c-0.3,0.2-1.6-0.3-1.6-0.3s-0.4,0.6-1,0.9c-0.5,0.3-1.7-0.4-1.7-0.4
		s-0.4,1.7-0.4,1.8c-0.7,2.8-7,8.8-7,8.8L25,43.8c-1.3,0.7-1.7,4.2-1.7,4.2c-0.7-1.3,0-3.9,0-3.9c-0.2-6.3-5.5-9.3-5.6-9.4
		c-1.6-1.2-1.5-3.5-1.5-3.8c0,0,0,0,0,0c0,0,0,0,0,0c0.3-8.5-5.1-12.8-5.1-12.8c-1-0.8-3.1-2.5-5.3-1.8c-1.3,0.4-2,1.4-2.7,2.5
		c-2.3,3.5-2.2,7.9-1.1,8.6c0.1,0.1,0.4,0.2,1.1,0.5c0.3,0.1,0.6,0.3,1.1,0.6c0.6,0.3,1.1,0.6,1.6,1.1c0.7,0.7,1.2,1.6,2.2,3.3
		c0.4,0.8,0.7,1.3,1.3,1.7c0.4,0.4,0.9,0.6,1.2,0.7c0.6,0.3,1.1,0.4,1.3,0.4c1.2,0.3,3,1.2,4.4,2.7c0.4,0.4,0.9,1,1.4,1.9
		c-0.1,0-0.1,0-0.1,0c-2.4-2.3-5.2-3.2-8-3.9c-0.4-0.1-0.8-0.2-1.1-0.6c-0.2-0.2-0.2-0.4-0.3-0.5c-0.3-0.8-1.2-1.9-1.9-2.7
		c-1.5-1.8-3.3-4-4.4-3.6c-0.8,0.3-0.8,1.9-0.9,3.8c-0.1,3.9,0.7,6.9,1,7.7c0.9,3.1,2,5.2,3,6.9c1.5,2.7,3.4,6.2,6.6,8.8
		c0.5,0.4,1.6,1.3,3.4,2.8c1.1,1,2.1,1.8,2.7,2.3c1,1,3,2.9,5.6,3.8c1.9,0.7,2.8,0.3,3.2,0.1c0.4-0.2,0.7-0.5,0.8-0.7
		c1.3-1.2,2.8-2.7,4.3-4.8c1.6-2.2,2.8-4.3,3.6-6.1l1.5-3.7L41.2,39C41.2,39,43.5,33.6,43.5,33.6z M49,25.3
		c-0.5,2.6-1.9,4.2-3.9,5.2C46.6,29,48,27.3,49,25.3z M29.9,57.8c2.8-3.1,4.7-6.8,6.6-10.7C35.5,51.7,33.5,55.4,29.9,57.8z"/>
	<path d="M35.9,32.2c0.9-1.2,1.6-2.4,2-4c0.2-0.7,0-1.3-0.5-1.6c-0.7,0.3-1.2,0.6-1.8,0.8c0-0.1-0.1-0.1-0.1-0.2
		c0.4-0.4,0.8-0.7,1.2-1.1c-0.6-0.6-1.5-0.1-2.1-1.1c0.9-0.1,1.6-0.4,2.4,0.2c0.7,0.5,1.4,1,2.1,1.5c0.3,0.2,0.7,0.4,1.1,0.5
		c0.1,0,0.4-0.2,0.5-0.4c0-0.1-0.1-0.3-0.2-0.5c-0.3-0.5-0.6-0.6-1,0.1l-0.1-0.2c0.1-0.3,0.2-0.5,0.2-0.8c-1-1.5-2.1-2.8-3.7-3.4
		c-0.2-0.1-0.4-0.4-0.5-0.6c0-0.1,0.1-0.1,0.1-0.2c0.2,0,0.3,0,0.5,0c0.9,0.2,1.8,0.6,2.5,1.4c0.5,0.6,1,1.4,1.6,2
		c0.6,0.7,1.3,1.3,2,1.9c0.6,0.4,1.1,0.1,1-0.7c-0.1-0.5-0.5-0.9-0.8-1.2c0,0-0.4,0.2-0.5,0.4c-0.1,0.1,0,0.3,0,0.5
		c-0.5-0.6-0.5-1.1,0.2-1.6c-0.8-1.5-1.7-3-3-3.9c-0.5-0.4-1-0.8-1.4-1.2c-0.2-0.1-0.2-0.4-0.4-0.7c1.2,0.3,2.2,0.9,2.9,1.7
		c0.8,1,1.5,2.1,2.3,3.2c0.4,0.6,0.8,1.3,1.3,1.9c0.2,0.3,0.6,0.4,0.9,0c0.2-0.4,0-1.3-0.4-1.7c-0.4-0.3-0.6-0.1-0.8,0.5
		c-0.1-0.1-0.1-0.1-0.2-0.2c0.2-0.4,0.4-0.7,0.6-1.2c-0.7-1.6-1.6-3.1-2.8-4.3c-0.4-0.4-0.8-0.8-1.2-1.2c-0.2-0.2-0.3-0.5-0.5-0.8
		c0.7-0.1,1.1,0.4,1.5,0.7c0.5,0.5,1,0.9,1.5,1.3c0.7,0.5,1.2,1.1,1.5,1.9c0.2,0.5,0.3,1.1,0.5,1.6c0.2,0.5,0.4,1,0.6,1.6
		c0.4-0.5,0.5-1.2,0.2-1.6c-0.1-0.2-0.4-0.2-0.7-0.2c0.2-0.2,0.4-0.4,0.7-0.7l0,0c-0.3-0.7-0.4-1.7-0.9-2.4c-0.9-1.3-2-2.3-3.1-3.4
		c-0.6-0.6-1.2-0.5-1.8,0c-0.3,0.2-0.6,0.5-1,0.5c-1,0-1.6,0.7-2,1.6c-0.2,0.4-0.4,0.8-0.7,0.9c-0.8,0.4-1,1-1,1.9
		c0,0.8-0.3,1.4-0.7,1.9c-0.2,0.2-0.3,0.3-0.4,0.5c-0.9,0.9-1.1,2-0.8,3.4C33.3,28,34.5,30,35.9,32.2z"/>
	<path d="M43.4,15.7c0.2,0.3,0.5,0.5,0.7,0.8c0.4,0.4,0.8,0.4,1.2,0c0.3-0.3,0.3-0.6,0-0.8c-0.6-0.5-1.2-0.6-1.9-0.1h0
		C43.4,15.6,43.4,15.7,43.4,15.7z"/>
	<path d="M43.3,14.7c-0.5-0.8-0.8-0.9-1.4-0.6C42.4,15.1,42.7,15.2,43.3,14.7z"/>
</g>
</svg>
