<?xml version="1.0" encoding="UTF-8"?>
<svg id="Layer_1" data-name="Layer 1" xmlns="http://www.w3.org/2000/svg" viewBox="0 0 1024 1024">
  <defs>
    <style>
      .cls-1 {
        fill: #231f20;
        fill-rule: evenodd;
      }
    </style>
  </defs>
  <path class="cls-1" d="m158.45,936.26h565.68c18.75,0,36.74-7.45,50-20.71,13.26-13.26,20.71-31.25,20.71-50v-282.84c0-19.52-15.83-35.35-35.36-35.35s-35.35,15.83-35.35,35.35v282.84H158.45V299.87h282.84c19.53,0,35.36-15.83,35.36-35.36s-15.83-35.36-35.36-35.36H158.45c-18.75,0-36.74,7.45-50,20.71-13.26,13.26-20.71,31.25-20.71,50v565.68c0,18.75,7.45,36.74,20.71,50,13.26,13.26,31.25,20.71,50,20.71Z"/>
  <path class="cls-1" d="m607.71,466.29l257.84-257.84v179.81c0,19.53,15.83,35.35,35.36,35.35s35.36-15.83,35.36-35.35V123.09c0-4.79-.95-9.36-2.68-13.53-1.73-4.17-4.29-8.08-7.67-11.47-6.9-6.9-15.95-10.35-25-10.35h-265.16c-19.53,0-35.36,15.83-35.36,35.35s15.83,35.35,35.36,35.35h179.81l-257.84,257.84c-13.81,13.81-13.81,36.19,0,50,13.81,13.81,36.19,13.81,50,0Z"/>
</svg>