<?xml version="1.0" encoding="UTF-8"?>
<svg id="Layer_1" data-name="Layer 1" xmlns="http://www.w3.org/2000/svg" viewBox="0 0 1024 1024">
  <defs>
    <style>
      .cls-1 {
        fill: #231f20;
        fill-rule: evenodd;
      }
    </style>
  </defs>
  <path class="cls-1" d="m111.42,880.53h801.16c17.7,0,32.05-14.35,32.05-32.05s-14.35-32.05-32.05-32.05h-32.05V175.51c0-17.7-14.35-32.05-32.05-32.05h-224.33c-17.7,0-32.05,14.35-32.05,32.05v160.23h-192.28c-17.7,0-32.05,14.35-32.05,32.05v160.23h-192.28c-17.7,0-32.05,14.35-32.05,32.05v256.37h-32.05c-17.7,0-32.05,14.35-32.05,32.05s14.35,32.05,32.05,32.05ZM656.21,367.79v-160.23h160.23v608.88h-160.23v-448.65Zm-224.32,192.28v-160.23h160.23v416.6h-160.23v-256.37Zm-224.32,32.05h160.23v224.32h-160.23v-224.32Z"/>
</svg>