<?xml version="1.0" encoding="UTF-8"?>
<svg id="Layer_1" data-name="Layer 1" xmlns="http://www.w3.org/2000/svg" viewBox="0 0 1024 1024">
  <defs>
    <style>
      .cls-1 {
        fill: #231f20;
        fill-rule: evenodd;
      }
    </style>
  </defs>
  <path class="cls-1" d="m920.64,474.91L549.09,103.36c-20.48-20.48-53.69-20.48-74.18,0L103.36,474.91c-20.48,20.48-20.48,53.69,0,74.18,20.48,20.49,53.7,20.49,74.18,0l334.46-334.45,334.46,334.45c20.48,20.49,53.69,20.49,74.18,0,20.49-20.48,20.49-53.69,0-74.18Z"/>
  <path class="cls-1" d="m549.09,474.91c-20.48-20.48-53.69-20.48-74.18,0L103.36,846.46c-20.48,20.48-20.48,53.69,0,74.18,20.48,20.48,53.7,20.48,74.18,0l334.46-334.45,334.46,334.45c20.48,20.48,53.69,20.48,74.18,0s20.49-53.69,0-74.18l-371.55-371.55Z"/>
</svg>