<?xml version="1.0" encoding="UTF-8"?>
<svg id="Layer_1" data-name="Layer 1" xmlns="http://www.w3.org/2000/svg" viewBox="0 0 1024 1024">
  <defs>
    <style>
      .cls-1 {
        fill: #231f20;
        fill-rule: evenodd;
      }
    </style>
  </defs>
  <path class="cls-1" d="m314.5,84.08c-18.18,0-32.92,14.74-32.92,32.92v32.92h-98.75c-36.36,0-65.83,29.47-65.83,65.83v658.33c0,36.36,29.47,65.83,65.83,65.83h658.33c36.36,0,65.83-29.48,65.83-65.83V215.75c0-36.36-29.48-65.83-65.83-65.83h-98.75v-32.92c0-18.18-14.74-32.92-32.92-32.92s-32.92,14.74-32.92,32.92v32.92h-329.17v-32.92c0-18.18-14.74-32.92-32.92-32.92Zm526.67,790H182.83v-460.83h658.33v460.83Zm-164.58-658.33v32.92c0,18.18,14.74,32.92,32.92,32.92s32.92-14.74,32.92-32.92v-32.92h98.75v131.67H182.83v-131.67h98.75v32.92c0,18.18,14.74,32.92,32.92,32.92s32.92-14.74,32.92-32.92v-32.92h329.17Z"/>
</svg>