<?xml version="1.0" encoding="UTF-8"?>
<svg id="Layer_1" data-name="Layer 1" xmlns="http://www.w3.org/2000/svg" viewBox="0 0 1024 1024">
  <defs>
    <style>
      .cls-1 {
        fill: #231f20;
        fill-rule: evenodd;
      }
    </style>
  </defs>
  <path class="cls-1" d="m337.56,890.82c74.94,31.02,157.39,39.12,236.93,23.27,79.54-15.84,152.6-54.93,209.92-112.3,13.33-13.35,13.32-34.98-.02-48.32-13.35-13.34-34.98-13.33-48.32.02-47.77,47.81-108.65,80.38-174.94,93.59-66.28,13.21-134.99,6.46-197.44-19.39-62.45-25.85-115.82-69.65-153.38-125.84-37.56-56.19-57.6-122.26-57.6-189.85s20.05-133.66,57.6-189.85c37.56-56.19,90.93-99.98,153.38-125.84,62.45-25.85,131.16-32.6,197.44-19.4,66.28,13.21,127.16,45.77,174.94,93.59l86.71,86.46h-88.18c-18.87,0-34.17,15.3-34.17,34.17s15.3,34.17,34.17,34.17h170.35c8.92.13,17.88-3.22,24.69-10.04,6.77-6.79,10.09-15.72,9.97-24.6v-170.36c0-18.87-15.3-34.17-34.17-34.17s-34.17,15.3-34.17,34.17v88.52l-86.89-86.63c-57.32-57.36-130.37-96.44-209.9-112.28-79.54-15.85-161.99-7.75-236.93,23.27s-138.99,83.57-184.06,151c-45.07,67.43-69.12,146.71-69.12,227.82s24.06,160.39,69.12,227.82c45.07,67.43,109.12,119.98,184.06,151Z"/>
  <path class="cls-1" d="m494.56,272.83c-18.87,0-34.17,15.3-34.17,34.17v204.35c-.02,1.33.03,2.67.16,3.99.49,4.98,2.04,9.65,4.43,13.77,2.37,4.11,5.63,7.77,9.69,10.67,1.08.77,2.21,1.49,3.38,2.14l177.1,102.17c16.35,9.43,37.24,3.83,46.67-12.52,9.43-16.34,3.83-37.24-12.52-46.67l-160.57-92.64v-185.27c0-18.87-15.3-34.17-34.17-34.17Z"/>
</svg>