<?xml version="1.0" encoding="UTF-8"?>
<svg id="Layer_1" data-name="Layer 1" xmlns="http://www.w3.org/2000/svg" viewBox="0 0 1024 1024">
  <defs>
    <style>
      .cls-1 {
        fill: #231f20;
        fill-rule: evenodd;
      }
    </style>
  </defs>
  <path class="cls-1" d="m772.98,479.08h-197.54v-197.54c0-18.18-14.74-32.92-32.92-32.92s-32.92,14.74-32.92,32.92v230.46c0,18.18,14.74,32.92,32.92,32.92h230.46c18.18,0,32.92-14.74,32.92-32.92s-14.74-32.92-32.92-32.92Z"/>
  <path class="cls-1" d="m542.52,84c-236.38,0-428,191.62-428,428s191.62,428,428,428,428-191.62,428-428S778.9,84,542.52,84Zm0,790.15c-200.01,0-362.15-162.14-362.15-362.15s162.14-362.15,362.15-362.15,362.15,162.14,362.15,362.15-162.14,362.15-362.15,362.15Z"/>
</svg>