<?xml version="1.0" encoding="UTF-8"?>
<svg id="Layer_1" data-name="Layer 1" xmlns="http://www.w3.org/2000/svg" viewBox="0 0 1024 1024">
  <defs>
    <style>
      .cls-1 {
        fill: #231f20;
        fill-rule: evenodd;
      }
    </style>
  </defs>
  <path class="cls-1" d="m428.95,667.13c12.69,12.13,32.67,12.14,45.37.02l241.01-229.92c13.12-12.52,13.62-33.31,1.09-46.44-12.53-13.13-33.31-13.61-46.44-1.09l-218.32,208.27-97.62-93.29c-13.11-12.53-33.91-12.06-46.44,1.05-12.53,13.12-12.06,33.91,1.05,46.44l120.3,114.96Z"/>
  <path class="cls-1" d="m512,939c235.83,0,427-191.17,427-427S747.83,85,512,85,85,276.17,85,512s191.17,427,427,427Zm0-788.31c199.54,0,361.31,161.76,361.31,361.31s-161.77,361.31-361.31,361.31-361.31-161.77-361.31-361.31,161.76-361.31,361.31-361.31Z"/>
</svg>