<?xml version="1.0" encoding="UTF-8"?>
<svg id="Layer_1" data-name="Layer 1" xmlns="http://www.w3.org/2000/svg" viewBox="0 0 1024 1024">
  <defs>
    <style>
      .cls-1 {
        fill: #231f20;
        fill-rule: evenodd;
      }
    </style>
  </defs>
  <path class="cls-1" d="m101.94,922.06c19.92,19.92,52.21,19.92,72.12,0l337.94-337.93,337.94,337.93c19.92,19.92,52.2,19.92,72.12,0,19.92-19.92,19.92-52.2,0-72.12l-337.93-337.94,337.93-337.94c19.92-19.92,19.92-52.21,0-72.12s-52.2-19.92-72.12,0l-337.94,337.94L174.06,101.94c-19.92-19.92-52.21-19.92-72.12,0-19.92,19.92-19.92,52.21,0,72.12l337.94,337.94L101.94,849.94c-19.92,19.92-19.92,52.2,0,72.12Z"/>
</svg>