<?xml version="1.0" encoding="UTF-8"?>
<svg id="Layer_1" data-name="Layer 1" xmlns="http://www.w3.org/2000/svg" viewBox="0 0 1024 1024">
  <defs>
    <style>
      .cls-1 {
        fill-rule: evenodd;
      }

      .cls-1, .cls-2 {
        fill: #231f20;
      }
    </style>
  </defs>
  <circle class="cls-2" cx="512" cy="594.5" r="41.25"/>
  <circle class="cls-2" cx="347" cy="759.5" r="41.25"/>
  <circle class="cls-2" cx="347" cy="594.5" r="41.25"/>
  <circle class="cls-2" cx="512" cy="759.5" r="41.25"/>
  <circle class="cls-2" cx="677" cy="759.5" r="41.25"/>
  <path class="cls-1" d="m215,941h594c36.45,0,66-29.55,66-66V149c0-36.45-29.55-66-66-66H215c-36.45,0-66,29.55-66,66v726c0,36.45,29.55,66,66,66Zm0-792h594v726H215V149Z"/>
  <path class="cls-1" d="m710,215h-396c-18.22,0-33,14.78-33,33v198c0,18.23,14.78,33,33,33h396c18.23,0,33-14.77,33-33v-198c0-18.22-14.77-33-33-33Zm-33,198h-330v-132h330v132Z"/>
  <circle class="cls-2" cx="677" cy="594.5" r="41.25"/>
</svg>