<?xml version="1.0" encoding="UTF-8"?>
<svg id="Layer_1" data-name="Layer 1" xmlns="http://www.w3.org/2000/svg" viewBox="0 0 1024 1024">
  <defs>
    <style>
      .cls-1 {
        fill: #231f20;
        fill-rule: evenodd;
      }
    </style>
  </defs>
  <path class="cls-1" d="m842.77,776.62c54.8,0,99.23-44.43,99.23-99.23V214.31c0-54.8-44.43-99.23-99.23-99.23H181.23c-54.8,0-99.23,44.43-99.23,99.23v463.08c0,54.8,44.43,99.23,99.23,99.23h297.69v66.15h-99.23c-18.27,0-33.08,14.81-33.08,33.08s14.81,33.08,33.08,33.08h264.62c18.27,0,33.08-14.81,33.08-33.08s-14.81-33.08-33.08-33.08h-99.23v-66.15h297.69ZM148.15,214.31c0-18.27,14.81-33.08,33.08-33.08h661.54c18.27,0,33.08,14.81,33.08,33.08v330.77H148.15V214.31Zm363.85,496.15H181.23c-18.27,0-33.08-14.81-33.08-33.08v-66.15h727.69v66.15c0,18.27-14.81,33.08-33.08,33.08h-330.77Z"/>
</svg>