<?xml version="1.0" encoding="UTF-8"?>
<svg id="Layer_1" data-name="Layer 1" xmlns="http://www.w3.org/2000/svg" viewBox="0 0 1024 1024">
  <defs>
    <style>
      .cls-1 {
        fill: #231f20;
      }
    </style>
  </defs>
  <path class="cls-1" d="m114.84,426.89h113.48c15.66,0,28.37,12.71,28.37,28.37v113.48c0,15.66-12.71,28.37-28.37,28.37h-113.47c-15.66,0-28.37-12.71-28.37-28.37v-113.47c0-15.66,12.71-28.37,28.37-28.37Z"/>
  <path class="cls-1" d="m455.26,426.89h113.48c15.66,0,28.37,12.71,28.37,28.37v113.47c0,15.66-12.71,28.37-28.37,28.37h-113.48c-15.66,0-28.37-12.71-28.37-28.37v-113.48c0-15.66,12.71-28.37,28.37-28.37Z"/>
  <path class="cls-1" d="m795.69,426.89h113.47c15.66,0,28.37,12.71,28.37,28.37v113.48c0,15.66-12.71,28.37-28.37,28.37h-113.48c-15.66,0-28.37-12.71-28.37-28.37v-113.48c0-15.66,12.71-28.37,28.37-28.37Z"/>
</svg>