<?xml version="1.0" encoding="UTF-8"?>
<svg id="Layer_1" data-name="Layer 1" xmlns="http://www.w3.org/2000/svg" viewBox="0 0 1024 1024">
  <defs>
    <style>
      .cls-1 {
        fill: #231f20;
        fill-rule: evenodd;
      }
    </style>
  </defs>
  <path class="cls-1" d="m543.4,344.89c-15.38-2.92-30.22,7.19-33.13,22.58-2.91,15.38,7.19,30.21,22.58,33.13,24.1,4.57,46.06,16.85,62.57,34.99,16.51,18.14,26.67,41.16,28.94,65.58,1.45,15.59,15.27,27.05,30.86,25.6,15.59-1.45,27.05-15.27,25.59-30.85-3.42-36.67-18.67-71.24-43.46-98.48-24.79-27.24-57.76-45.68-93.95-52.54Z"/>
  <path class="cls-1" d="m868.86,526.02l-.11.17-.97,1.42h0s0,.02,0,.02l-1.81,2.67c-12.88,19.04-47.49,70.22-87.73,106.22-11.67,10.44-12.67,28.36-2.23,40.03,10.44,11.67,28.36,12.67,40.03,2.23,46.05-41.19,84.69-98.58,97.01-116.87,1.13-1.69,2.05-3.04,2.72-4.01l18.53-28.05c5.89-8.91,6.27-20.37.98-29.65l-18.24-32.03-.27-.46c-41.73-70.14-166.9-239.16-405.22-239.18-26.16-.05-52.27,2.09-78.06,6.41-15.44,2.58-25.86,17.2-23.28,32.64,2.58,15.44,17.2,25.86,32.64,23.28,22.67-3.8,45.62-5.68,68.61-5.63h.06c207.57,0,317.88,146.6,356.39,211.24l.14.23,5.48,9.64v.02s3.87,6.78,3.87,6.78l-8.5,12.86-.03.05Z"/>
  <path class="cls-1" d="m119.89,577.87l.1.15c51.73,77.71,174.93,217.41,391.44,217.46,63.66.5,126.59-12.62,184.62-38.4l78.01,85.81c10.54,11.58,28.46,12.44,40.05,1.91,11.59-10.54,12.44-28.46,1.91-40.05l-91.72-100.89c-.28-.32-.56-.63-.85-.93l-285.71-314.28c-.18-.21-.36-.41-.54-.61-.19-.2-.37-.4-.56-.6l-95.04-104.55c-.28-.32-.56-.63-.85-.93l-91.7-100.87c-10.53-11.58-28.46-12.44-40.05-1.91-11.58,10.53-12.44,28.46-1.91,40.04l68.13,74.94c-73.94,45.34-123.58,104.99-152.68,147.93l-.33.5-18.65,28.81c-.68,1.04-1.28,2.13-1.81,3.25l-13.99,29.46c-4.24,8.94-3.52,19.45,1.91,27.72l30.23,46.04Zm281.31-91.96c3.05-12.91,8.33-25.11,15.52-36.09l147.77,162.54c-16.15,8.55-34.28,13.09-52.84,13.02h-.1c-22.89,0-45.24-6.93-64.11-19.87-18.88-12.94-33.39-31.3-41.65-52.64-8.25-21.35-9.85-44.7-4.58-66.97Zm-249.04,14.74l17.47-26.99c27.59-40.66,74.71-96.46,144.51-136.68l63.62,69.98c-15.16,19.32-26.04,41.78-31.74,65.9-7.9,33.41-5.5,68.43,6.88,100.45,12.38,32.02,34.15,59.55,62.47,78.96,28.3,19.4,61.8,29.8,96.11,29.81,32.81.12,64.71-9.33,91.95-26.88l52.12,57.33c-45.73,17.7-94.5,26.66-143.76,26.25h-.23c-188.81,0-297.05-121.15-344.32-192.11l-21.43-32.64,6.35-13.38Z"/>
</svg>