<?xml version="1.0" encoding="UTF-8"?>
<svg id="Layer_1" data-name="Layer 1" xmlns="http://www.w3.org/2000/svg" viewBox="0 0 1024 1024">
  <defs>
    <style>
      .cls-1 {
        fill: #231f20;
        fill-rule: evenodd;
      }
    </style>
  </defs>
  <path class="cls-1" d="m935,330.71c0-16.69-13.53-30.21-30.21-30.21H119.21c-16.69,0-30.21,13.53-30.21,30.21s13.53,30.21,30.21,30.21h785.57c16.69,0,30.21-13.53,30.21-30.21Z"/>
  <path class="cls-1" d="m270.29,542.21h483.43c16.69,0,30.21-13.53,30.21-30.21s-13.53-30.21-30.21-30.21h-483.43c-16.69,0-30.21,13.53-30.21,30.21s13.53,30.21,30.21,30.21Z"/>
  <path class="cls-1" d="m421.36,663.07c-16.69,0-30.21,13.53-30.21,30.21s13.53,30.22,30.21,30.22h181.29c16.69,0,30.21-13.53,30.21-30.22s-13.53-30.21-30.21-30.21h-181.29Z"/>
</svg>