<?xml version="1.0" encoding="UTF-8"?>
<svg id="Layer_1" data-name="Layer 1" xmlns="http://www.w3.org/2000/svg" viewBox="0 0 1024 1024">
  <defs>
    <style>
      .cls-1 {
        fill: #231f20;
        fill-rule: evenodd;
      }
    </style>
  </defs>
  <path class="cls-1" d="m144.77,587.83v267.08c0,17.71,7.03,34.69,19.56,47.21,12.52,12.52,29.5,19.56,47.21,19.56h600.92c17.71,0,34.69-7.03,47.21-19.56,12.52-12.52,19.55-29.51,19.55-47.21v-267.08c36.88,0,66.77-29.9,66.77-66.77v-133.54c0-36.88-29.9-66.77-66.77-66.77h-145.68c19.48-23.79,30.26-53.7,30.26-84.71,0-35.46-14.09-69.47-39.16-94.55-25.07-25.08-59.09-39.16-94.55-39.16s-69.47,14.09-94.55,39.16l-.1.1c-9.63,9.72-17.29,21.41-23.45,33.7-6.16-12.29-13.82-23.98-23.45-33.7l-.1-.1c-25.08-25.08-59.09-39.16-94.55-39.16s-69.47,14.09-94.55,39.16-39.16,59.09-39.16,94.55c0,31.02,10.78,60.92,30.26,84.71h-145.67c-36.88,0-66.77,29.89-66.77,66.77v133.54c0,36.87,29.89,66.77,66.77,66.77Zm406.17-305.65c2.79-19.54,6.85-39.55,12.63-56.94,5.95-17.91,12.75-30.01,19.25-36.59,12.55-12.52,29.55-19.55,47.28-19.55s34.78,7.05,47.34,19.61c12.56,12.55,19.61,29.58,19.61,47.33s-7.03,34.73-19.55,47.28c-6.58,6.49-18.68,13.29-36.59,19.24-17.39,5.78-37.4,9.84-56.94,12.63-13.31,1.9-26.03,3.15-37,3.98.82-10.97,2.08-23.69,3.98-37Zm-5.56,105.35h333.85v133.54h-333.85v-133.54Zm0,200.31h267.08v267.08h-267.08v-267.08Zm-66.77,267.08H211.54v-267.08h267.08v267.08ZM346.56,188.7c12.55-12.56,29.58-19.61,47.34-19.61s34.73,7.03,47.28,19.55c6.49,6.58,13.29,18.68,19.24,36.59,5.78,17.39,9.84,37.4,12.63,56.94,1.9,13.31,3.15,26.03,3.98,37-10.97-.83-23.69-2.08-37-3.98-19.54-2.79-39.55-6.85-56.94-12.63-17.91-5.95-30.01-12.75-36.59-19.24-12.52-12.55-19.55-29.55-19.55-47.28s7.05-34.78,19.61-47.33Zm-201.79,198.82h333.85v133.54H144.77v-133.54Z"/>
</svg>