<?xml version="1.0" encoding="UTF-8"?>
<svg id="Layer_1" data-name="Layer 1" xmlns="http://www.w3.org/2000/svg" viewBox="0 0 1024 1024">
  <defs>
    <style>
      .cls-1 {
        fill: #231f20;
        fill-rule: evenodd;
      }
    </style>
  </defs>
  <path class="cls-1" d="m119.67,262.33h784.67c19.7,0,35.67-15.97,35.67-35.67s-15.97-35.67-35.67-35.67H119.67c-19.7,0-35.67,15.97-35.67,35.67s15.97,35.67,35.67,35.67Z"/>
  <path class="cls-1" d="m119.67,547.67h784.67c19.7,0,35.67-15.97,35.67-35.67s-15.97-35.67-35.67-35.67H119.67c-19.7,0-35.67,15.97-35.67,35.67s15.97,35.67,35.67,35.67Z"/>
  <path class="cls-1" d="m119.67,833h784.67c19.7,0,35.67-15.97,35.67-35.67s-15.97-35.67-35.67-35.67H119.67c-19.7,0-35.67,15.97-35.67,35.67s15.97,35.67,35.67,35.67Z"/>
</svg>