<?xml version="1.0" encoding="UTF-8"?>
<svg id="Layer_1" data-name="Layer 1" xmlns="http://www.w3.org/2000/svg" viewBox="0 0 1024 1024">
  <defs>
    <style>
      .cls-1 {
        fill: #231f20;
        fill-rule: evenodd;
      }
    </style>
  </defs>
  <path class="cls-1" d="m635.15,135.51c-32.66-32.66-76.96-51.01-123.15-51.01s-90.49,18.35-123.15,51.01c-32.66,32.66-51.01,76.96-51.01,123.16v110.83h-142.5c-34.98,0-63.33,28.35-63.33,63.33v443.33c0,34.98,28.36,63.33,63.33,63.33h633.33c34.98,0,63.33-28.36,63.33-63.33v-443.33c0-34.98-28.36-63.33-63.33-63.33h-142.5v-110.83c0-46.19-18.35-90.49-51.01-123.16Zm-233.99,123.16c0-29.4,11.68-57.59,32.46-78.37,20.79-20.79,48.98-32.46,78.37-32.46s57.59,11.68,78.37,32.46c20.78,20.79,32.46,48.98,32.46,78.37v110.83h-221.67v-110.83Zm427.5,174.17v443.33H195.33v-443.33h633.33Z"/>
  <path class="cls-1" d="m512,614.92c-21.86,0-39.58,17.72-39.58,39.58s17.72,39.58,39.58,39.58,39.58-17.72,39.58-39.58-17.72-39.58-39.58-39.58Z"/>
</svg>