<?xml version="1.0" encoding="UTF-8"?>
<svg id="Layer_1" data-name="Layer 1" xmlns="http://www.w3.org/2000/svg" viewBox="0 0 1024 1024">
  <defs>
    <style>
      .cls-1 {
        fill: #231f20;
        fill-rule: evenodd;
      }
    </style>
  </defs>
  <path class="cls-1" d="m937.94,312.07c-1.38-59.5-25.63-116.19-67.72-158.28-42.09-42.09-98.77-66.34-158.28-67.72-59.5-1.38-117.25,20.23-161.24,60.32-.4.37-.8.75-1.19,1.14l-87.94,87.95c-13.88,13.88-13.88,36.38,0,50.25s36.37,13.88,50.25,0l87.34-87.33c30.41-27.44,70.18-42.22,111.14-41.27,41.23.95,80.51,17.76,109.67,46.92,29.16,29.16,45.97,68.44,46.92,109.67.95,40.96-13.82,80.72-41.25,111.12l-125.06,124.62-.1.09c-14.81,14.87-32.42,26.67-51.8,34.72-19.38,8.05-40.17,12.19-61.16,12.19s-41.77-4.15-61.16-12.19c-19.39-8.05-36.99-19.85-51.81-34.72-13.85-13.9-36.35-13.94-50.25-.09-13.9,13.85-13.95,36.35-.09,50.25,21.41,21.49,46.87,38.55,74.89,50.19,28.02,11.64,58.07,17.63,88.42,17.63s60.39-5.99,88.42-17.63c28-11.63,53.44-28.67,74.85-50.15l.04-.04,125.61-125.17c.4-.4.8-.81,1.18-1.23,40.09-43.99,61.69-101.74,60.32-161.24Z"/>
  <path class="cls-1" d="m86.06,711.93c1.38,59.5,25.63,116.19,67.72,158.27,42.09,42.09,98.77,66.34,158.27,67.72,59.5,1.38,117.25-20.23,161.24-60.32.4-.37.8-.75,1.19-1.14l87.94-87.95c13.88-13.88,13.88-36.37,0-50.25-13.87-13.88-36.37-13.88-50.25,0l-87.34,87.33c-30.41,27.45-70.17,42.22-111.14,41.27-41.23-.95-80.51-17.76-109.67-46.92-29.16-29.17-45.97-68.44-46.92-109.67-.95-40.96,13.82-80.72,41.25-111.12l125.06-124.62.09-.09c14.81-14.87,32.42-26.67,51.8-34.72,19.39-8.05,40.17-12.19,61.16-12.19s41.77,4.15,61.16,12.19c19.38,8.05,36.99,19.85,51.8,34.72,13.85,13.91,36.35,13.94,50.25.1,13.9-13.85,13.94-36.35.09-50.25-21.41-21.5-46.86-38.55-74.89-50.19-28.02-11.64-58.07-17.63-88.42-17.63s-60.39,5.99-88.42,17.63c-28,11.63-53.44,28.67-74.84,50.14l-125.66,125.21c-.4.4-.8.81-1.18,1.23-40.09,43.99-61.7,101.73-60.32,161.24Z"/>
</svg>