<?xml version="1.0" encoding="UTF-8"?>
<svg id="Layer_1" data-name="Layer 1" xmlns="http://www.w3.org/2000/svg" viewBox="0 0 1024 1024">
  <defs>
    <style>
      .cls-1 {
        fill-rule: evenodd;
      }

      .cls-1, .cls-2 {
        fill: #231f20;
      }
    </style>
  </defs>
  <path class="cls-1" d="m902.32,188.97H328.05c-19.82,0-35.89,16.07-35.89,35.89s16.07,35.89,35.89,35.89h574.27c19.82,0,35.89-16.07,35.89-35.89s-16.07-35.89-35.89-35.89Z"/>
  <circle class="cls-2" cx="130.65" cy="224.86" r="44.86"/>
  <path class="cls-1" d="m902.32,476.11H328.05c-19.82,0-35.89,16.07-35.89,35.89s16.07,35.89,35.89,35.89h574.27c19.82,0,35.89-16.07,35.89-35.89s-16.07-35.89-35.89-35.89Z"/>
  <circle class="cls-2" cx="130.65" cy="512" r="44.86"/>
  <circle class="cls-2" cx="130.65" cy="799.14" r="44.86"/>
  <path class="cls-1" d="m902.32,763.24H328.05c-19.82,0-35.89,16.07-35.89,35.89s16.07,35.89,35.89,35.89h574.27c19.82,0,35.89-16.07,35.89-35.89s-16.07-35.89-35.89-35.89Z"/>
</svg>