<?xml version="1.0" encoding="UTF-8"?>
<svg id="Layer_1" data-name="Layer 1" xmlns="http://www.w3.org/2000/svg" viewBox="0 0 1024 1024">
  <defs>
    <style>
      .cls-1 {
        fill: #231f20;
        fill-rule: evenodd;
      }
    </style>
  </defs>
  <path class="cls-1" d="m834.67,134.3L134.3,834.67c-15.2,15.2-15.2,39.83,0,55.02,15.2,15.2,39.83,15.2,55.03,0L889.69,189.33c15.2-15.2,15.2-39.83,0-55.03-15.19-15.2-39.83-15.2-55.02,0Z"/>
  <path class="cls-1" d="m764.91,589.82c-96.7,0-175.09,78.39-175.09,175.09s78.39,175.09,175.09,175.09,175.09-78.39,175.09-175.09-78.39-175.09-175.09-175.09Zm0,272.36c-53.72,0-97.27-43.55-97.27-97.27s43.55-97.27,97.27-97.27,97.27,43.55,97.27,97.27-43.55,97.27-97.27,97.27Z"/>
  <path class="cls-1" d="m259.09,434.18c96.7,0,175.09-78.39,175.09-175.09s-78.39-175.09-175.09-175.09-175.09,78.39-175.09,175.09,78.39,175.09,175.09,175.09Zm0-272.36c53.72,0,97.27,43.55,97.27,97.27s-43.55,97.27-97.27,97.27-97.27-43.55-97.27-97.27,43.55-97.27,97.27-97.27Z"/>
</svg>