<?xml version="1.0" encoding="UTF-8"?>
<svg id="Layer_1" data-name="Layer 1" xmlns="http://www.w3.org/2000/svg" viewBox="0 0 1024 1024">
  <defs>
    <style>
      .cls-1 {
        fill: #231f20;
        fill-rule: evenodd;
      }
    </style>
  </defs>
  <path class="cls-1" d="m919.13,298.72l-.11-.11-193.74-193.74c-6.45-6.52-14.13-11.71-22.6-15.25-8.51-3.56-17.65-5.4-26.88-5.4-6.94,0-13.98,1.68-16.65,2.33l-10.23,3.07c-6.4,2.68-12.25,6.95-14.46,8.58L99.24,632.96c-2.14,2.96-4.54,6.85-6.79,11.71-4.57,9.86-8.22,23.14-8.22,39.92v185.59c0,18.46,7.33,36.16,20.39,49.22s30.75,20.38,49.21,20.38h730.78c19.22,0,34.8-15.58,34.8-34.8s-15.58-34.8-34.8-34.8h-438.76l488.54-495.1c3.56-8.51,5.4-17.65,5.4-26.88s-1.84-18.37-5.4-26.88c-3.54-8.47-8.73-16.15-15.25-22.6ZM348.2,870.18h-194.38l1.69-196.07,376.84-376.84,198.15,190.61-382.31,382.3Zm431.52-431.52l-198.15-190.6,92.7-92.7,195.91,192.84-90.46,90.46Z"/>
</svg>