<?xml version="1.0" encoding="UTF-8"?>
<svg id="Layer_1" data-name="Layer 1" xmlns="http://www.w3.org/2000/svg" viewBox="0 0 1024 1024">
  <defs>
    <style>
      .cls-1 {
        fill: #231f20;
        fill-rule: evenodd;
      }
    </style>
  </defs>
  <path class="cls-1" d="m933.02,368.14c-3.26-7.78-8.02-14.84-14.01-20.77l-.1-.1-241.88-241.88-.1-.1c-5.93-6-12.99-10.76-20.77-14.02-7.82-3.28-16.22-4.96-24.7-4.96s-16.88,1.69-24.7,4.96c-7.78,3.26-14.84,8.02-20.77,14.02l-234.35,234.35-1.86-.58c-14.29-4.33-34.5-8.86-58.9-9.95-49.35-2.2-114.63,9.8-180.77,63.25-6.99,5.65-12.7,12.72-16.78,20.73-4.07,8.01-6.41,16.79-6.86,25.77-.45,8.98.99,17.95,4.24,26.33,3.24,8.35,8.19,15.94,14.55,22.25l.06.06,193.15,193.15-137.26,137.26c-12.49,12.49-12.49,32.73,0,45.22,12.49,12.49,32.73,12.49,45.22,0l137.26-137.26,192.22,192.22.12.12c6.43,6.51,14.18,11.56,22.73,14.82,8.6,3.27,17.8,4.66,26.99,4.05,9.18-.6,18.13-3.19,26.22-7.57,8.07-4.37,15.1-10.41,20.62-17.73,31.98-42.27,90.18-138.04,52.82-239.86l233.51-233.51.1-.1c5.99-5.93,10.76-12.99,14.01-20.77,3.27-7.82,4.96-16.22,4.96-24.7s-1.69-16.88-4.96-24.7Zm-308.18,273.89c-9.75,9.75-12.15,24.64-5.96,36.96,36.86,73.41-4.38,150.7-37.29,194.19l-.06.08-214.38-214.38c-.27-.29-.55-.58-.84-.86-.28-.29-.57-.56-.87-.84l-215.01-215.01-.1-.1c52.57-42.47,102.01-50.66,137.69-49.07,18.12.81,33.01,4.18,43.19,7.26,5.07,1.54,8.92,2.99,11.35,3.98,1.21.5,2.06.87,2.53,1.09l.4.19c12.28,6.06,27.07,3.63,36.77-6.06l249.02-249.02.17-.17,242.4,242.4.18.17-249.19,249.19Z"/>
</svg>