<?xml version="1.0" encoding="UTF-8"?>
<svg id="Layer_1" data-name="Layer 1" xmlns="http://www.w3.org/2000/svg" viewBox="0 0 1024 1024">
  <defs>
    <style>
      .cls-1 {
        fill-rule: evenodd;
      }

      .cls-1, .cls-2 {
        fill: #231f20;
      }
    </style>
  </defs>
  <circle class="cls-2" cx="333.59" cy="333" r="37.87"/>
  <path class="cls-1" d="m924.11,495.14L528.85,99.89c-7.03-7.04-15.67-12.24-25.18-15.14-7.15-2.19-14.95-2.24-17.9-2.25-2.1,0-3.96.05-5.28.11-.67.03-1.24.06-1.65.08l-.52.03h-.17s-.07.01-.07.01h-.05c-1.28.09-2.55.26-3.81.51l-305.62,60.97c-12.01,2.4-21.39,11.78-23.78,23.78l-60.97,305.62-.02.11c-1.91,9.76-1.39,19.84,1.52,29.35,2.91,9.51,8.11,18.16,15.15,25.19l395.25,395.24c5.58,5.67,12.23,10.18,19.56,13.27,7.4,3.11,15.34,4.71,23.36,4.71s15.97-1.6,23.36-4.71c7.33-3.09,13.98-7.6,19.56-13.27l342.53-342.53c5.67-5.58,10.17-12.23,13.26-19.56,3.11-7.39,4.72-15.34,4.72-23.36s-1.6-15.97-4.72-23.36c-3.09-7.34-7.59-13.98-13.27-19.56Zm-385.45,385.61L143.29,485.38l56.99-285.69,283.57-56.57c.53-.02,1.14-.03,1.77-.03h.75s394.97,394.97,394.97,394.97l-342.68,342.68Z"/>
</svg>