<?xml version="1.0" encoding="UTF-8"?>
<svg id="Layer_1" data-name="Layer 1" xmlns="http://www.w3.org/2000/svg" viewBox="0 0 1024 1024">
  <defs>
    <style>
      .cls-1 {
        fill: #231f20;
        fill-rule: evenodd;
      }
    </style>
  </defs>
  <path class="cls-1" d="m938,228c0-39.21-31.79-71-71-71H157c-39.21,0-71,31.79-71,71v177.5c0,39.21,31.79,71,71,71h710c39.21,0,71-31.79,71-71v-177.5Zm-71,177.5H157v-177.5h710v177.5Z"/>
  <path class="cls-1" d="m938,618.5c0-39.21-31.79-71-71-71H157c-39.21,0-71,31.79-71,71v177.5c0,39.21,31.79,71,71,71h710c39.21,0,71-31.79,71-71v-177.5Zm-71,177.5H157v-177.5h710v177.5Z"/>
</svg>