<?xml version="1.0" encoding="UTF-8"?>
<svg id="Layer_1" data-name="Layer 1" xmlns="http://www.w3.org/2000/svg" viewBox="0 0 1024 1024">
  <defs>
    <style>
      .cls-1 {
        fill: #231f20;
        fill-rule: evenodd;
      }
    </style>
  </defs>
  <path class="cls-1" d="m434.36,550.82H123.82c-21.44,0-38.82,17.38-38.82,38.82v310.55c0,21.44,17.38,38.82,38.82,38.82h310.55c21.44,0,38.82-17.38,38.82-38.82v-310.55c0-21.44-17.38-38.82-38.82-38.82Zm-38.82,310.55h-232.91v-232.91h232.91v232.91Z"/>
  <path class="cls-1" d="m434.36,85H123.82c-21.44,0-38.82,17.38-38.82,38.82v310.55c0,21.44,17.38,38.82,38.82,38.82h310.55c21.44,0,38.82-17.38,38.82-38.82V123.82c0-21.44-17.38-38.82-38.82-38.82Zm-38.82,310.54h-232.91v-232.91h232.91v232.91Z"/>
  <path class="cls-1" d="m900.18,85h-310.55c-21.44,0-38.82,17.38-38.82,38.82v310.55c0,21.44,17.38,38.82,38.82,38.82h310.55c21.44,0,38.82-17.38,38.82-38.82V123.82c0-21.44-17.38-38.82-38.82-38.82Zm-38.82,310.54h-232.91v-232.91h232.91v232.91Z"/>
  <path class="cls-1" d="m900.18,550.82h-310.55c-21.44,0-38.82,17.38-38.82,38.82v310.55c0,21.44,17.38,38.82,38.82,38.82h310.55c21.44,0,38.82-17.38,38.82-38.82v-310.55c0-21.44-17.38-38.82-38.82-38.82Zm-38.82,310.55h-232.91v-232.91h232.91v232.91Z"/>
</svg>