<?xml version="1.0" encoding="UTF-8"?>
<svg id="Layer_1" data-name="Layer 1" xmlns="http://www.w3.org/2000/svg" viewBox="0 0 1024 1024">
  <defs>
    <style>
      .cls-1 {
        fill: #231f20;
        fill-rule: evenodd;
      }
    </style>
  </defs>
  <path class="cls-1" d="m925,691.57c0-37.09-22.49-68.93-54.58-82.62.47-2.32.71-4.71.71-7.16V116.96c0-19.83-16.08-35.91-35.91-35.91s-35.91,16.08-35.91,35.91v484.83c0,2.45.25,4.85.71,7.16-32.09,13.69-54.58,45.53-54.58,82.62s22.49,68.93,54.58,82.62c-.47,2.32-.71,4.71-.71,7.16v125.69c0,19.83,16.08,35.91,35.91,35.91s35.91-16.08,35.91-35.91v-125.69c0-2.45-.24-4.85-.71-7.16,32.09-13.69,54.58-45.53,54.58-82.62Z"/>
  <path class="cls-1" d="m601.78,332.44c0-37.09-22.49-68.93-54.58-82.62.47-2.31.71-4.71.71-7.16v-125.7c0-19.83-16.08-35.91-35.91-35.91s-35.91,16.08-35.91,35.91v125.7c0,2.45.24,4.85.71,7.16-32.09,13.69-54.58,45.53-54.58,82.62s22.49,68.93,54.58,82.62c-.47,2.32-.71,4.71-.71,7.16v484.83c0,19.83,16.08,35.91,35.91,35.91s35.91-16.08,35.91-35.91v-484.83c0-2.45-.24-4.85-.71-7.16,32.09-13.69,54.58-45.53,54.58-82.62Z"/>
  <path class="cls-1" d="m278.56,547.91c0-37.09-22.49-68.93-54.58-82.62.47-2.32.72-4.71.72-7.16V116.96c0-19.83-16.08-35.91-35.91-35.91s-35.91,16.08-35.91,35.91v341.17c0,2.45.24,4.85.71,7.16-32.09,13.69-54.58,45.53-54.58,82.62s22.49,68.93,54.58,82.62c-.47,2.32-.71,4.71-.71,7.16v269.35c0,19.83,16.08,35.91,35.91,35.91s35.91-16.08,35.91-35.91v-269.35c0-2.45-.25-4.84-.72-7.16,32.09-13.69,54.58-45.53,54.58-82.62Z"/>
</svg>