<?xml version="1.0" encoding="UTF-8"?>
<svg id="Layer_1" data-name="Layer 1" xmlns="http://www.w3.org/2000/svg" viewBox="0 0 1024 1024">
  <defs>
    <style>
      .cls-1 {
        fill: #231f20;
        fill-rule: evenodd;
      }
    </style>
  </defs>
  <path class="cls-1" d="m369.33,512c0,19.7,15.97,35.67,35.67,35.67h413.22l-126.36,126.36c-13.93,13.93-13.93,36.51,0,50.44,13.93,13.93,36.51,13.93,50.44,0l187.25-187.25c6.97-6.96,10.45-16.09,10.45-25.22,0-4.84-.96-9.45-2.71-13.65-1.74-4.2-4.32-8.15-7.74-11.57l-187.25-187.25c-13.93-13.93-36.51-13.93-50.44,0-13.93,13.93-13.93,36.51,0,50.44l126.36,126.36h-413.22c-19.7,0-35.67,15.97-35.67,35.67Z"/>
  <path class="cls-1" d="m405,84h-249.67c-18.92,0-37.06,7.52-50.44,20.89-13.38,13.38-20.89,31.52-20.89,50.44v713.33c0,18.92,7.52,37.06,20.89,50.44,13.38,13.38,31.52,20.89,50.44,20.89h249.67c19.7,0,35.67-15.97,35.67-35.67s-15.97-35.67-35.67-35.67h-249.67V155.33h249.67c19.7,0,35.67-15.97,35.67-35.67s-15.97-35.67-35.67-35.67Z"/>
</svg>