<?xml version="1.0" encoding="UTF-8"?>
<svg id="Layer_1" data-name="Layer 1" xmlns="http://www.w3.org/2000/svg" viewBox="0 0 1024 1024">
  <defs>
    <style>
      .cls-1 {
        fill: #231f20;
        fill-rule: evenodd;
      }
    </style>
  </defs>
  <path class="cls-1" d="m431.31,633.62c13.2,12.61,33.98,12.62,47.19.02l250.7-239.17c13.65-13.03,14.16-34.65,1.14-48.31-13.03-13.65-34.65-14.16-48.31-1.14l-227.09,216.65-101.55-97.04c-13.64-13.04-35.27-12.55-48.31,1.09-13.04,13.64-12.55,35.27,1.1,48.31l125.14,119.58Z"/>
  <path class="cls-1" d="m853.67,85.03H170.33c-18.12,0-35.5,7.2-48.32,20.01s-20.01,30.2-20.01,48.32v250.7c0,382.19,324.49,508.68,388.11,529.83,14.15,5.07,29.62,5.07,43.77,0,63.63-21.16,388.11-147.64,388.11-529.83v-250.7c0-18.12-7.2-35.5-20.01-48.32s-30.2-20.01-48.32-20.01Zm0,319.03c0,334.24-282.72,445.57-341.67,465.1-58.95-19.52-341.67-130.86-341.67-465.1v-250.7h683.33v250.7Z"/>
</svg>