<?xml version="1.0" encoding="UTF-8"?>
<svg id="Layer_1" data-name="Layer 1" xmlns="http://www.w3.org/2000/svg" viewBox="0 0 1024 1024">
  <defs>
    <style>
      .cls-1 {
        fill: #231f20;
        fill-rule: evenodd;
      }
    </style>
  </defs>
  <path class="cls-1" d="m611.5,412.5c-18.32,0-33.17,14.85-33.17,33.17v265.33c0,18.32,14.85,33.17,33.17,33.17s33.17-14.85,33.17-33.17v-265.33c0-18.32-14.85-33.17-33.17-33.17Z"/>
  <path class="cls-1" d="m412.5,412.5c-18.32,0-33.17,14.85-33.17,33.17v265.33c0,18.32,14.85,33.17,33.17,33.17s33.17-14.85,33.17-33.17v-265.33c0-18.32-14.85-33.17-33.17-33.17Z"/>
  <path class="cls-1" d="m876.83,213.5h-165.83v-33.17c0-26.39-10.49-51.7-29.14-70.36-18.66-18.66-43.97-29.14-70.36-29.14h-199c-26.39,0-51.7,10.48-70.36,29.14-18.66,18.66-29.14,43.97-29.14,70.36v33.17h-165.83c-18.32,0-33.17,14.85-33.17,33.17s14.85,33.17,33.17,33.17h33.17v597c0,17.59,6.99,34.47,19.43,46.91,12.44,12.44,29.31,19.43,46.91,19.43h530.67c17.59,0,34.47-6.99,46.91-19.43,12.44-12.44,19.43-29.32,19.43-46.91V279.83h33.17c18.32,0,33.17-14.85,33.17-33.17s-14.85-33.17-33.17-33.17Zm-497.5-33.17c0-8.8,3.49-17.23,9.71-23.45,6.22-6.22,14.66-9.71,23.45-9.71h199c8.8,0,17.23,3.49,23.45,9.71,6.22,6.22,9.72,14.66,9.72,23.45v33.17h-265.33v-33.17Zm398,696.5H246.67V279.83h530.67v597Z"/>
</svg>