<?xml version="1.0" encoding="UTF-8"?>
<svg id="Layer_1" data-name="Layer 1" xmlns="http://www.w3.org/2000/svg" viewBox="0 0 1024 1024">
  <defs>
    <style>
      .cls-1 {
        fill: #231f20;
        fill-rule: evenodd;
      }
    </style>
  </defs>
  <path class="cls-1" d="m512,577.69c18.14,0,32.85-14.71,32.85-32.85v-229.92c0-18.14-14.71-32.85-32.85-32.85s-32.85,14.71-32.85,32.85v229.92c0,18.14,14.71,32.85,32.85,32.85Z"/>
  <path class="cls-1" d="m512,651.6c-22.68,0-41.06,18.38-41.06,41.06s18.38,41.06,41.06,41.06,41.06-18.38,41.06-41.06-18.38-41.06-41.06-41.06Z"/>
  <path class="cls-1" d="m512,85c-235.82,0-427,191.17-427,427s191.18,427,427,427,427-191.17,427-427S747.83,85,512,85Zm0,788.31c-199.54,0-361.31-161.77-361.31-361.31s161.76-361.31,361.31-361.31,361.31,161.76,361.31,361.31-161.77,361.31-361.31,361.31Z"/>
</svg>