<?xml version="1.0" encoding="UTF-8"?>
<svg id="Layer_1" data-name="Layer 1" xmlns="http://www.w3.org/2000/svg" viewBox="0 0 1024 1024">
  <defs>
    <style>
      .cls-1 {
        fill-rule: evenodd;
      }

      .cls-1, .cls-2 {
        fill: #231f20;
      }
    </style>
  </defs>
  <path class="cls-1" d="m511.98,618.56c16.81,0,30.44-13.63,30.44-30.44v-152.22c0-16.81-13.63-30.44-30.44-30.44s-30.44,13.63-30.44,30.44v152.22c0,16.81,13.63,30.44,30.44,30.44Z"/>
  <path class="cls-1" d="m590.94,177.22l-.04-.07c-7.96-13.88-19.44-25.41-33.27-33.43-13.86-8.04-29.6-12.27-45.62-12.27s-31.76,4.23-45.63,12.27c-13.84,8.02-25.31,19.56-33.27,33.43l-.04.07L98.24,755.56c-8,13.86-12.22,29.58-12.24,45.58-.01,16.01,4.18,31.73,12.16,45.61,7.98,13.88,19.46,25.41,33.3,33.45,13.84,8.04,29.55,12.3,45.55,12.36h669.98c16.01-.06,31.71-4.32,45.55-12.36,13.84-8.04,25.33-19.57,33.3-33.45,7.98-13.87,12.17-29.6,12.16-45.61-.02-16.01-4.25-31.76-12.26-45.62L590.94,177.22Zm282.12,639.18c-2.66,4.62-6.49,8.47-11.1,11.15-4.6,2.67-9.82,4.1-15.14,4.12H177.19c-5.32-.02-10.54-1.45-15.15-4.12-4.61-2.68-8.44-6.52-11.1-11.15-2.66-4.63-4.06-9.87-4.05-15.21,0-5.33,1.42-10.58,4.08-15.19L485.83,207.6l.08-.13c2.63-4.6,6.43-8.42,11.01-11.07,4.58-2.66,9.79-4.06,15.08-4.06s10.5,1.4,15.08,4.06c4.58,2.66,8.38,6.48,11.01,11.07l334.94,578.53c2.67,4.62,4.07,9.86,4.08,15.19,0,5.34-1.39,10.58-4.05,15.21Z"/>
  <circle class="cls-2" cx="511.98" cy="725.11" r="38.06" transform="translate(-353.86 920.63) rotate(-67.5)"/>
</svg>