<?xml version="1.0" encoding="utf-8"?>
<!-- Generator: Adobe Illustrator 28.0.0, SVG Export Plug-In . SVG Version: 6.00 Build 0)  -->
<svg version="1.1" id="Layer_1" xmlns="http://www.w3.org/2000/svg" xmlns:xlink="http://www.w3.org/1999/xlink" x="0px" y="0px"
	 viewBox="0 0 16 16" style="enable-background:new 0 0 16 16;" xml:space="preserve">
<style type="text/css">
	.st0{fill-rule:evenodd;clip-rule:evenodd;}
</style>
<path class="st0" d="M4.68,2.17h3.98c0.64,0.01,1.21,0.25,1.66,0.72c0.16,0.17,0.28,0.36,0.38,0.52l0.04,0.07l0,0
	c0.14,0.22,0.28,0.45,0.41,0.69c0.52,0.03,0.98,0.19,1.39,0.5l0.01,0.01l0.01,0.01c0.05,0.04,0.12,0.1,0.18,0.16
	c0.03,0.03,0.06,0.05,0.07,0.07l0.01,0.01l0.01,0.01l0,0l0,0c0.18,0.19,0.32,0.39,0.43,0.57l0.05,0.08
	c0.31,0.47,0.59,0.98,0.86,1.55l0,0c0.26,0.55,0.48,1.1,0.65,1.65c0.1,0.29,0.17,0.58,0.23,0.87l0,0.01
	c0.02,0.11,0.04,0.24,0.06,0.35l0,0c0.01,0.04,0.01,0.08,0.02,0.12l0,0.01l0.02,0.13c0.04,0.26,0.03,0.51,0.01,0.79
	c-0.02,0.52-0.16,0.97-0.45,1.36c-0.24,0.31-0.55,0.54-0.95,0.65c-0.24,0.07-0.49,0.11-0.74,0.11c-0.16,0-0.32-0.02-0.46-0.04
	c-0.34-0.06-0.66-0.2-0.95-0.4l0,0l0,0c-0.3-0.21-0.57-0.47-0.79-0.68l-0.06-0.06l-0.01-0.01l-0.21-0.21
	c-0.22-0.23-0.44-0.44-0.67-0.6C9.62,11,9.42,10.9,9.23,10.86l-0.01,0c-0.11-0.03-0.24-0.04-0.4-0.04H8.79c-0.03,0-0.07,0-0.11,0h0
	h0h0h0c-0.1,0-0.22,0-0.33,0c-0.18,0-0.38,0.04-0.63,0.18l0,0c-0.28,0.15-0.53,0.37-0.76,0.59L6.94,11.6l-0.01,0.01
	c-0.03,0.02-0.04,0.04-0.06,0.06h0h0c-0.02,0.02-0.04,0.05-0.09,0.09l-0.01,0.01c-0.21,0.2-0.44,0.43-0.68,0.63l0,0
	c-0.4,0.33-0.8,0.55-1.25,0.64l-0.01,0l-0.01,0C4.55,13.09,4.27,13.1,4,13.07l-0.01,0l-0.01,0l-0.03,0h0
	c-0.15-0.03-0.35-0.06-0.56-0.15c-0.37-0.14-0.66-0.39-0.88-0.74c-0.17-0.26-0.24-0.53-0.29-0.74l0,0
	c-0.02-0.12-0.04-0.24-0.05-0.37C2.17,11,2.17,10.95,2.17,10.92c-0.01-0.18,0-0.37,0.01-0.53l0-0.01l0-0.01
	c0-0.05,0.01-0.09,0.01-0.14c-0.02,0-0.05-0.01-0.07-0.02l0,0c0,0,0,0-0.01,0l0,0c-0.01,0-0.02-0.01-0.03-0.01l-0.02-0.01
	c-0.03-0.01-0.06-0.02-0.08-0.02c-0.01,0-0.02-0.01-0.02-0.01l-0.01-0.01c-0.34-0.14-0.61-0.37-0.8-0.69C1,9.24,0.93,8.99,0.9,8.81
	C0.81,8.46,0.83,8.12,0.84,7.87l0-0.02l0-0.01c0.01-0.22,0.04-0.46,0.11-0.75c0.07-0.33,0.16-0.65,0.26-0.95l0,0
	c0.14-0.42,0.31-0.84,0.5-1.26l0,0C1.9,4.48,2.1,4.1,2.32,3.73C2.45,3.5,2.65,3.19,2.88,2.9l0.01-0.01l0.01-0.01
	c0.18-0.21,0.41-0.37,0.68-0.5C3.91,2.23,4.27,2.16,4.68,2.17z M9.9,4.02c0.03,0.05,0.06,0.1,0.1,0.15H6.48
	C6.02,4.15,5.62,4.23,5.26,4.4l0,0C4.95,4.54,4.69,4.71,4.5,4.94C4.22,5.27,4,5.61,3.85,5.85C3.6,6.26,3.37,6.69,3.17,7.11l0,0
	C2.95,7.58,2.76,8.05,2.6,8.51l0,0C2.52,8.75,2.44,9,2.38,9.25L2.32,9.23H2.29c-0.11-0.05-0.2-0.13-0.28-0.26l0,0
	C1.94,8.86,1.9,8.73,1.87,8.6l0-0.01l0-0.01C1.82,8.39,1.83,8.18,1.84,7.9c0.01-0.18,0.04-0.36,0.09-0.6l0-0.01
	C2,7.01,2.08,6.73,2.17,6.45c0.13-0.38,0.28-0.77,0.46-1.16c0.17-0.36,0.35-0.71,0.56-1.05c0.12-0.2,0.28-0.46,0.47-0.7
	C3.72,3.46,3.83,3.38,4,3.29l0,0c0.17-0.08,0.38-0.13,0.66-0.13l0,0h3.97c0.38,0.01,0.69,0.14,0.94,0.41l0,0
	c0.09,0.09,0.17,0.21,0.26,0.36l0,0L9.9,4.02L9.9,4.02z M4.5,4.94L4.5,4.94l0.38,0.32L4.5,4.94L4.5,4.94z M5.67,5.31
	C5.45,5.41,5.33,5.5,5.26,5.59l0,0C5.03,5.85,4.84,6.15,4.7,6.37l0,0C4.47,6.75,4.26,7.14,4.07,7.54c-0.2,0.43-0.38,0.86-0.52,1.29
	c-0.1,0.31-0.2,0.62-0.27,0.94l0,0.01c-0.06,0.26-0.09,0.47-0.1,0.67c-0.01,0.16-0.01,0.31-0.01,0.44l0,0.01v0.01l0,0.01l0,0.05
	c0.01,0.09,0.02,0.17,0.04,0.26c0.03,0.15,0.08,0.29,0.15,0.41l0,0c0.1,0.17,0.23,0.27,0.39,0.33l0,0c0.11,0.04,0.23,0.07,0.39,0.1
	c0.14,0.02,0.3,0.02,0.48-0.02c0.25-0.05,0.5-0.18,0.81-0.43c0.21-0.18,0.42-0.38,0.63-0.59c0.01-0.01,0.02-0.02,0.03-0.03h0
	c0.04-0.04,0.1-0.1,0.16-0.15c0.24-0.23,0.57-0.53,0.98-0.74c0.38-0.2,0.74-0.3,1.13-0.29l0.01,0l0.01,0c0.08,0,0.14,0,0.23,0h0l0,0
	h0h0h0h0h0h0c0.05,0,0.11,0,0.17,0h0.04c0.21,0,0.41,0.02,0.62,0.06c0.35,0.08,0.68,0.23,0.99,0.45c0.31,0.22,0.58,0.48,0.81,0.72
	l0.2,0.2l0.05,0.05l0,0c0.23,0.22,0.43,0.42,0.66,0.58c0.22,0.14,0.4,0.22,0.57,0.25l0.01,0c0.1,0.02,0.2,0.03,0.28,0.03
	c0.16,0,0.3-0.02,0.46-0.07l0.01,0c0.18-0.05,0.32-0.15,0.43-0.29c0.14-0.19,0.23-0.44,0.25-0.8l0-0.01l0-0.01
	c0.02-0.24,0.02-0.42,0-0.59l0-0.01l-0.01-0.12c-0.01-0.06-0.02-0.12-0.02-0.17l0,0v0v0c-0.01-0.09-0.02-0.16-0.04-0.24
	c-0.06-0.27-0.12-0.52-0.2-0.77l0-0.01l0-0.01c-0.15-0.5-0.35-1-0.6-1.52c-0.26-0.54-0.51-1-0.79-1.43l0,0l-0.06-0.09l0,0
	c-0.1-0.16-0.19-0.29-0.29-0.4c-0.01-0.01-0.01-0.01-0.02-0.02l0,0l-0.04-0.03c-0.04-0.04-0.09-0.08-0.15-0.13
	c-0.25-0.19-0.55-0.29-0.92-0.29H6.46l-0.01,0C6.14,5.16,5.89,5.21,5.67,5.31z M6.24,6.43c-0.13-0.13-0.34-0.13-0.47,0
	c-0.13,0.13-0.13,0.34,0,0.47L6.2,7.33L5.76,7.76c-0.13,0.13-0.13,0.34,0,0.47c0.13,0.13,0.34,0.13,0.47,0L6.67,7.8L7.1,8.24
	c0.13,0.13,0.34,0.13,0.47,0c0.13-0.13,0.13-0.34,0-0.47L7.14,7.33L7.57,6.9c0.13-0.13,0.13-0.34,0-0.47C7.44,6.3,7.23,6.3,7.1,6.43
	L6.67,6.86L6.24,6.43z M10.33,7.48c0-0.27,0.21-0.48,0.48-0.48c0.27,0,0.48,0.21,0.48,0.48s-0.21,0.48-0.48,0.48
	C10.55,7.96,10.33,7.75,10.33,7.48z M10.81,6.33c-0.63,0-1.15,0.51-1.15,1.15s0.51,1.15,1.15,1.15s1.15-0.51,1.15-1.15
	S11.45,6.33,10.81,6.33z"/>
</svg>
