<?xml version="1.0" encoding="utf-8"?>
<!-- Generator: Adobe Illustrator 28.0.0, SVG Export Plug-In . SVG Version: 6.00 Build 0)  -->
<svg version="1.1" id="Layer_1" xmlns="http://www.w3.org/2000/svg" xmlns:xlink="http://www.w3.org/1999/xlink" x="0px" y="0px"
	 viewBox="0 0 16 16" style="enable-background:new 0 0 16 16;" xml:space="preserve">
<style type="text/css">
	.st0{fill-rule:evenodd;clip-rule:evenodd;}
</style>
<path class="st0" d="M4.5,2C4.23,2,3.98,2.11,3.79,2.29C3.61,2.48,3.5,2.73,3.5,3v3c0,0.28,0.22,0.5,0.5,0.5S4.5,6.28,4.5,6V3H13
	v8.5h-3c-0.28,0-0.5,0.22-0.5,0.5s0.22,0.5,0.5,0.5h3c0.27,0,0.52-0.11,0.71-0.29S14,11.77,14,11.5V3c0-0.27-0.11-0.52-0.29-0.71
	C13.52,2.11,13.27,2,13,2H4.5z M7.36,8.65C7.4,8.7,7.44,8.75,7.46,8.81C7.49,8.87,7.5,8.93,7.5,9l0,0v3.75c0,0.28-0.22,0.5-0.5,0.5
	s-0.5-0.22-0.5-0.5v-2.54l-3.65,3.65c-0.2,0.2-0.51,0.2-0.71,0c-0.2-0.2-0.2-0.51,0-0.71L5.79,9.5H3.25c-0.28,0-0.5-0.22-0.5-0.5
	s0.22-0.5,0.5-0.5H7h0C7.14,8.5,7.26,8.56,7.36,8.65L7.36,8.65z"/>
</svg>
