<?xml version="1.0" encoding="utf-8"?>
<!-- Generator: Adobe Illustrator 28.0.0, SVG Export Plug-In . SVG Version: 6.00 Build 0)  -->
<svg version="1.1" id="Layer_1" xmlns="http://www.w3.org/2000/svg" xmlns:xlink="http://www.w3.org/1999/xlink" x="0px" y="0px"
	 viewBox="0 0 16 16" style="enable-background:new 0 0 16 16;" xml:space="preserve">
<style type="text/css">
	.st0{fill-rule:evenodd;clip-rule:evenodd;}
</style>
<path class="st0" d="M5.85,2.65c0.2,0.2,0.2,0.51,0,0.71L4.71,4.5h8.79C13.78,4.5,14,4.72,14,5s-0.22,0.5-0.5,0.5H4.71l1.15,1.15
	c0.2,0.2,0.2,0.51,0,0.71c-0.2,0.2-0.51,0.2-0.71,0l-2-2c-0.2-0.2-0.2-0.51,0-0.71l2-2C5.34,2.45,5.66,2.45,5.85,2.65z M10.65,8.65
	c0.2-0.2,0.51-0.2,0.71,0l2,2c0.2,0.2,0.2,0.51,0,0.71l-2,2c-0.2,0.2-0.51,0.2-0.71,0c-0.2-0.2-0.2-0.51,0-0.71l1.15-1.15H3
	c-0.28,0-0.5-0.22-0.5-0.5s0.22-0.5,0.5-0.5h8.79l-1.15-1.15C10.45,9.16,10.45,8.84,10.65,8.65z"/>
</svg>
