<?xml version="1.0" encoding="utf-8"?>
<!-- Generator: Adobe Illustrator 28.0.0, SVG Export Plug-In . SVG Version: 6.00 Build 0)  -->
<svg version="1.1" id="Layer_1" xmlns="http://www.w3.org/2000/svg" xmlns:xlink="http://www.w3.org/1999/xlink" x="0px" y="0px"
	 viewBox="0 0 16 16" style="enable-background:new 0 0 16 16;" xml:space="preserve">
<style type="text/css">
	.st0{fill-rule:evenodd;clip-rule:evenodd;}
</style>
<path class="st0" d="M13.85,2.15c0.05,0.05,0.08,0.1,0.11,0.16C13.99,2.37,14,2.43,14,2.5v0v0v3.75c0,0.28-0.22,0.5-0.5,0.5
	S13,6.53,13,6.25V3.71L9.35,7.35c-0.2,0.2-0.51,0.2-0.71,0c-0.2-0.2-0.2-0.51,0-0.71L12.29,3H9.75c-0.28,0-0.5-0.22-0.5-0.5
	S9.47,2,9.75,2h3.75h0c0.07,0,0.13,0.01,0.19,0.04C13.75,2.06,13.81,2.1,13.85,2.15z M3,4C2.73,4,2.48,4.11,2.29,4.29
	C2.11,4.48,2,4.73,2,5v8c0,0.27,0.11,0.52,0.29,0.71C2.48,13.89,2.73,14,3,14h8c0.27,0,0.52-0.11,0.71-0.29S12,13.27,12,13V9
	c0-0.28-0.22-0.5-0.5-0.5S11,8.72,11,9v4H3V5h4c0.28,0,0.5-0.22,0.5-0.5S7.28,4,7,4H3z"/>
</svg>
