<?xml version="1.0" encoding="utf-8"?>
<!-- Generator: Adobe Illustrator 28.0.0, SVG Export Plug-In . SVG Version: 6.00 Build 0)  -->
<svg version="1.1" id="Layer_1" xmlns="http://www.w3.org/2000/svg" xmlns:xlink="http://www.w3.org/1999/xlink" x="0px" y="0px"
	 viewBox="0 0 16 16" style="enable-background:new 0 0 16 16;" xml:space="preserve">
<style type="text/css">
	.st0{fill-rule:evenodd;clip-rule:evenodd;}
</style>
<path class="st0" d="M8.5,1c0-0.28-0.22-0.5-0.5-0.5S7.5,0.72,7.5,1v0.53C7.02,1.57,6.56,1.69,6.11,1.87
	C5.5,2.12,4.95,2.49,4.48,2.96C4.02,3.42,3.65,3.97,3.39,4.58C3.31,4.77,3.26,5.02,3.21,5.26C3.17,5.51,3.13,5.78,3.1,6.03
	C3.07,6.28,3.05,6.52,3.04,6.69c-0.01,0.08-0.01,0.15-0.02,0.2l0,0.06l0,0.02l0,0.01c0,0.01,0,0.02,0,0.03c0,2.17-0.45,3.38-0.81,4
	c-0.09,0.15-0.13,0.32-0.13,0.5c0,0.18,0.05,0.35,0.13,0.5c0.09,0.15,0.21,0.28,0.36,0.37c0.15,0.09,0.32,0.13,0.5,0.14h0H5.5l0,0
	c0,0.66,0.26,1.3,0.73,1.77C6.7,14.74,7.34,15,8,15s1.3-0.26,1.77-0.73c0.47-0.47,0.73-1.1,0.73-1.77l0,0h2.44h0
	c0.18,0,0.35-0.05,0.5-0.14c0.15-0.09,0.28-0.21,0.36-0.37c0.09-0.15,0.13-0.32,0.13-0.5c0-0.18-0.05-0.35-0.13-0.5
	c-0.36-0.62-0.81-1.83-0.81-4V6.56c0-2.59-1.95-4.77-4.49-5.03V1z M7.99,2.5C7.99,2.5,8,2.5,7.99,2.5c0.01,0,0.01,0,0.02,0
	c0.01,0,0.01,0,0.02,0c2.19,0.02,3.96,1.84,3.96,4.06V7c0,2.31,0.48,3.7,0.95,4.5H3.06c0.46-0.8,0.95-2.18,0.95-4.48l0,0l0-0.05
	c0-0.05,0.01-0.11,0.02-0.19C4.05,6.61,4.07,6.39,4.1,6.15c0.03-0.24,0.06-0.49,0.1-0.71c0.04-0.23,0.08-0.39,0.12-0.48
	c0.2-0.49,0.5-0.93,0.87-1.3C5.56,3.29,6,3,6.49,2.8C6.97,2.6,7.48,2.5,7.99,2.5z M6.5,12.5L6.5,12.5h3l0,0
	c0,0.4-0.16,0.78-0.44,1.06C8.78,13.84,8.4,14,8,14c-0.4,0-0.78-0.16-1.06-0.44C6.66,13.28,6.5,12.9,6.5,12.5z"/>
</svg>
