<?xml version="1.0" encoding="utf-8"?>
<!-- Generator: Adobe Illustrator 28.0.0, SVG Export Plug-In . SVG Version: 6.00 Build 0)  -->
<svg version="1.1" id="Layer_1" xmlns="http://www.w3.org/2000/svg" xmlns:xlink="http://www.w3.org/1999/xlink" x="0px" y="0px"
	 viewBox="0 0 16 16" style="enable-background:new 0 0 16 16;" xml:space="preserve">
<style type="text/css">
	.st0{fill-rule:evenodd;clip-rule:evenodd;}
</style>
<path class="st0" d="M14.15,1.76H1.61c-0.31,0-0.57,0.27-0.57,0.6c0,0.33,0.25,0.6,0.57,0.6h0.37c0.08,0,0.14,0.06,0.14,0.14v10.47
	c0.01,0.15,0.03,0.22,0.12,0.37c0.26,0.42,0.79,0.59,1.28,0.54c0.03,0,0.04,0,0.04,0c0.45-0.05,0.8-0.17,1.13-0.45
	c0.01,0,0.01-0.01,0.02-0.02c0.11-0.11,0.27-0.18,0.44-0.18c0.18,0,0.35,0.08,0.46,0.2c0.21,0.23,0.51,0.37,0.82,0.37h0.09
	c0.32,0,0.62-0.14,0.84-0.38c0-0.01,0.01-0.01,0.02-0.02c0.11-0.11,0.27-0.18,0.44-0.18c0.18,0,0.35,0.08,0.46,0.2
	c0.21,0.23,0.51,0.37,0.82,0.37h0.09c0.32,0,0.62-0.14,0.84-0.38c0-0.01,0.01-0.01,0.02-0.02c0.11-0.11,0.27-0.18,0.44-0.18
	c0.18,0,0.35,0.08,0.46,0.2c0.21,0.23,0.86,0.43,1.18,0.43c0,0,0.4,0.03,0.78-0.08c0,0,0.01,0,0.01,0c0.4-0.11,0.73-0.54,0.73-0.95
	V3.11c0-0.08,0.06-0.14,0.14-0.14h0.37c0.31,0,0.57-0.27,0.57-0.6C14.72,2.03,14.46,1.76,14.15,1.76z M12.4,12.38
	c0,0.18-0.14,0.32-0.32,0.32H3.67c-0.18,0-0.32-0.14-0.32-0.32V3.29c0-0.18,0.14-0.32,0.32-0.32h8.41c0.18,0,0.32,0.14,0.32,0.32
	V12.38z"/>
<path class="st0" d="M4.85,7.13h3.04c0.34,0,0.62-0.28,0.62-0.62S8.24,5.88,7.89,5.88H4.85c-0.34,0-0.62,0.28-0.62,0.62
	S4.51,7.13,4.85,7.13z"/>
<path class="st0" d="M4.85,10.2h5.54c0.34,0,0.62-0.28,0.62-0.62s-0.28-0.62-0.62-0.62H4.85c-0.34,0-0.62,0.28-0.62,0.62
	C4.23,9.92,4.51,10.2,4.85,10.2z"/>
</svg>
