<?xml version="1.0" encoding="utf-8"?>
<!-- Generator: Adobe Illustrator 28.0.0, SVG Export Plug-In . SVG Version: 6.00 Build 0)  -->
<svg version="1.1" id="Layer_1" xmlns="http://www.w3.org/2000/svg" xmlns:xlink="http://www.w3.org/1999/xlink" x="0px" y="0px"
	 viewBox="0 0 16 16" style="enable-background:new 0 0 16 16;" xml:space="preserve">
<style type="text/css">
	.st0{fill-rule:evenodd;clip-rule:evenodd;}
</style>
<path class="st0" d="M13.5,2.5c0-0.55-0.45-1-1-1h-9c-0.55,0-1,0.45-1,1v11c0,0.55,0.45,1,1,1h9c0.55,0,1-0.45,1-1V2.5z M12.5,2.5
	v11h-9v-11H12.5z M5,3.5C4.72,3.5,4.5,3.72,4.5,4v3c0,0.28,0.22,0.5,0.5,0.5h6c0.28,0,0.5-0.22,0.5-0.5V4c0-0.28-0.22-0.5-0.5-0.5H5
	z M5.5,6.5v-2h5v2H5.5z M5.5,9.88c0.35,0,0.62-0.28,0.62-0.62S5.85,8.62,5.5,8.62S4.88,8.9,4.88,9.25S5.15,9.88,5.5,9.88z
	 M8.62,9.25C8.62,9.6,8.35,9.88,8,9.88c-0.35,0-0.62-0.28-0.62-0.62S7.65,8.62,8,8.62C8.35,8.62,8.62,8.9,8.62,9.25z M10.5,9.88
	c0.35,0,0.62-0.28,0.62-0.62s-0.28-0.62-0.62-0.62S9.88,8.9,9.88,9.25S10.15,9.88,10.5,9.88z M6.12,11.75
	c0,0.35-0.28,0.62-0.62,0.62s-0.62-0.28-0.62-0.62s0.28-0.62,0.62-0.62S6.12,11.4,6.12,11.75z M8,12.38c0.35,0,0.62-0.28,0.62-0.62
	S8.35,11.12,8,11.12c-0.35,0-0.62,0.28-0.62,0.62S7.65,12.38,8,12.38z M11.12,11.75c0,0.35-0.28,0.62-0.62,0.62
	s-0.62-0.28-0.62-0.62s0.28-0.62,0.62-0.62S11.12,11.4,11.12,11.75z"/>
</svg>
