<?xml version="1.0" encoding="utf-8"?>
<!-- Generator: Adobe Illustrator 28.0.0, SVG Export Plug-In . SVG Version: 6.00 Build 0)  -->
<svg version="1.1" id="Layer_1" xmlns="http://www.w3.org/2000/svg" xmlns:xlink="http://www.w3.org/1999/xlink" x="0px" y="0px"
	 viewBox="0 0 16 16" style="enable-background:new 0 0 16 16;" xml:space="preserve">
<style type="text/css">
	.st0{fill-rule:evenodd;clip-rule:evenodd;}
</style>
<path class="st0" d="M11.5,1.5C11.5,1.22,11.28,1,11,1s-0.5,0.22-0.5,0.5V2h-5V1.5C5.5,1.22,5.28,1,5,1S4.5,1.22,4.5,1.5V2H3
	C2.45,2,2,2.45,2,3v2.5V13c0,0.55,0.45,1,1,1h10c0.55,0,1-0.45,1-1V5.5V3c0-0.55-0.45-1-1-1h-1.5V1.5z M13,3h-1.5v0.5
	C11.5,3.78,11.28,4,11,4s-0.5-0.22-0.5-0.5V3h-5v0.5C5.5,3.78,5.28,4,5,4S4.5,3.78,4.5,3.5V3H3v2h10V3z M3,6h10v7H3V6z M5.25,8
	c0-0.28,0.22-0.5,0.5-0.5H7.5c0.19,0,0.37,0.11,0.45,0.28c0.08,0.17,0.06,0.38-0.06,0.53L7.34,9c0.16,0.11,0.3,0.25,0.41,0.41
	c0.14,0.21,0.22,0.44,0.25,0.69c0.02,0.25-0.01,0.49-0.11,0.72c-0.09,0.23-0.24,0.43-0.43,0.59c-0.19,0.16-0.42,0.26-0.66,0.31
	c-0.24,0.05-0.49,0.04-0.73-0.04c-0.24-0.07-0.45-0.2-0.63-0.38c-0.2-0.2-0.19-0.51,0-0.71c0.2-0.2,0.51-0.19,0.71,0
	c0.06,0.06,0.13,0.1,0.21,0.13c0.08,0.02,0.16,0.03,0.24,0.01c0.08-0.02,0.16-0.05,0.22-0.1c0.06-0.05,0.11-0.12,0.14-0.2
	C7,10.37,7.01,10.28,7,10.2c-0.01-0.08-0.04-0.16-0.08-0.23C6.87,9.9,6.81,9.85,6.74,9.81C6.66,9.77,6.58,9.75,6.5,9.75
	c-0.19,0-0.37-0.11-0.45-0.28C5.97,9.29,5.99,9.09,6.11,8.94L6.46,8.5H5.75C5.47,8.5,5.25,8.28,5.25,8z M10.5,8
	c0-0.19-0.11-0.36-0.28-0.45C10.05,7.47,9.85,7.49,9.7,7.6l-1,0.75c-0.22,0.17-0.27,0.48-0.1,0.7c0.17,0.22,0.48,0.27,0.7,0.1L9.5,9
	v2.25c0,0.28,0.22,0.5,0.5,0.5c0.28,0,0.5-0.22,0.5-0.5V8z"/>
</svg>
