<?xml version="1.0" encoding="utf-8"?>
<!-- Generator: Adobe Illustrator 28.0.0, SVG Export Plug-In . SVG Version: 6.00 Build 0)  -->
<svg version="1.1" id="Layer_1" xmlns="http://www.w3.org/2000/svg" xmlns:xlink="http://www.w3.org/1999/xlink" x="0px" y="0px"
	 viewBox="0 0 16 16" style="enable-background:new 0 0 16 16;" xml:space="preserve">
<style type="text/css">
	.st0{fill-rule:evenodd;clip-rule:evenodd;}
</style>
<path class="st0" d="M11.5,1.5C11.5,1.22,11.28,1,11,1s-0.5,0.22-0.5,0.5V2h-5V1.5C5.5,1.22,5.28,1,5,1S4.5,1.22,4.5,1.5V2H3
	C2.45,2,2,2.45,2,3v2.5V13c0,0.55,0.45,1,1,1h10c0.55,0,1-0.45,1-1V5.5V3c0-0.55-0.45-1-1-1h-1.5V1.5z M13,5V3h-1.5v0.5
	C11.5,3.78,11.28,4,11,4s-0.5-0.22-0.5-0.5V3h-5v0.5C5.5,3.78,5.28,4,5,4S4.5,3.78,4.5,3.5V3H3v2H13z M3,6h10v7H3V6z"/>
</svg>
