<?xml version="1.0" encoding="utf-8"?>
<!-- Generator: Adobe Illustrator 28.0.0, SVG Export Plug-In . SVG Version: 6.00 Build 0)  -->
<svg version="1.1" id="Layer_1" xmlns="http://www.w3.org/2000/svg" xmlns:xlink="http://www.w3.org/1999/xlink" x="0px" y="0px"
	 viewBox="0 0 16 16" style="enable-background:new 0 0 16 16;" xml:space="preserve">
<style type="text/css">
	.st0{fill-rule:evenodd;clip-rule:evenodd;}
</style>
<path class="st0" d="M7.9,3.65c-0.2-0.2-0.51-0.2-0.71,0L3.65,7.19c-0.2,0.2-0.2,0.51,0,0.71c0.2,0.2,0.51,0.2,0.71,0l3.19-3.19
	l3.19,3.19c0.2,0.2,0.51,0.2,0.71,0c0.2-0.2,0.2-0.51,0-0.71L7.9,3.65z M11.44,10.73L7.9,7.19c-0.2-0.2-0.51-0.2-0.71,0l-3.54,3.54
	c-0.2,0.2-0.2,0.51,0,0.71c0.2,0.2,0.51,0.2,0.71,0l3.19-3.19l3.19,3.19c0.2,0.2,0.51,0.2,0.71,0
	C11.63,11.24,11.63,10.93,11.44,10.73z"/>
</svg>
