<?xml version="1.0" encoding="utf-8"?>
<!-- Generator: Adobe Illustrator 28.0.0, SVG Export Plug-In . SVG Version: 6.00 Build 0)  -->
<svg version="1.1" id="Layer_1" xmlns="http://www.w3.org/2000/svg" xmlns:xlink="http://www.w3.org/1999/xlink" x="0px" y="0px"
	 viewBox="0 0 16 16" style="enable-background:new 0 0 16 16;" xml:space="preserve">
<style type="text/css">
	.st0{fill-rule:evenodd;clip-rule:evenodd;}
</style>
<path class="st0" d="M9.25,2.5c0-0.28,0.22-0.5,0.5-0.5h3.5c0.28,0,0.5,0.22,0.5,0.5v10h0.5c0.28,0,0.5,0.22,0.5,0.5
	s-0.22,0.5-0.5,0.5h-1h-3.5h-3.5h-3.5h-1c-0.28,0-0.5-0.22-0.5-0.5s0.22-0.5,0.5-0.5h0.5v-4c0-0.28,0.22-0.5,0.5-0.5h3V5.5
	c0-0.28,0.22-0.5,0.5-0.5h3V2.5z M5.75,9h-2.5v3.5h2.5V9z M12.75,3v9.5h-2.5v-7V3H12.75z M9.25,6v6.5h-2.5v-4V6H9.25z"/>
</svg>
