<?xml version="1.0" encoding="utf-8"?>
<!-- Generator: Adobe Illustrator 28.0.0, SVG Export Plug-In . SVG Version: 6.00 Build 0)  -->
<svg version="1.1" id="Layer_1" xmlns="http://www.w3.org/2000/svg" xmlns:xlink="http://www.w3.org/1999/xlink" x="0px" y="0px"
	 viewBox="0 0 16 16" style="enable-background:new 0 0 16 16;" xml:space="preserve">
<style type="text/css">
	.st0{fill-rule:evenodd;clip-rule:evenodd;}
</style>
<path class="st0" d="M9.6,5.6c0.2-0.2,0.2-0.51,0-0.71c-0.2-0.2-0.51-0.2-0.71,0l-5.15,5.15l-2.4-2.4c-0.2-0.2-0.51-0.2-0.71,0
	c-0.2,0.2-0.2,0.51,0,0.71L3.4,11.1c0.2,0.2,0.51,0.2,0.71,0L9.6,5.6z M15.35,5.6c0.2-0.2,0.2-0.51,0-0.71c-0.2-0.2-0.51-0.2-0.71,0
	L9.5,10.04L8.39,8.93c-0.2-0.2-0.51-0.2-0.71,0c-0.2,0.2-0.2,0.51,0,0.71l1.46,1.46c0.2,0.2,0.51,0.2,0.71,0L15.35,5.6z"/>
</svg>
