<?xml version="1.0" encoding="utf-8"?>
<!-- Generator: Adobe Illustrator 28.0.0, SVG Export Plug-In . SVG Version: 6.00 Build 0)  -->
<svg version="1.1" id="Layer_1" xmlns="http://www.w3.org/2000/svg" xmlns:xlink="http://www.w3.org/1999/xlink" x="0px" y="0px"
	 viewBox="0 0 16 16" style="enable-background:new 0 0 16 16;" xml:space="preserve">
<style type="text/css">
	.st0{fill-rule:evenodd;clip-rule:evenodd;}
</style>
<path class="st0" d="M3,2C2.45,2,2,2.45,2,3v10c0,0.55,0.45,1,1,1h10c0.55,0,1-0.45,1-1V3c0-0.55-0.45-1-1-1H3z M3,3h10v10H3V3z
	 M11.1,6.86c0.2-0.19,0.21-0.51,0.02-0.71c-0.19-0.2-0.51-0.21-0.71-0.02L7.08,9.31L5.6,7.89C5.4,7.7,5.08,7.7,4.89,7.9
	C4.7,8.1,4.7,8.42,4.9,8.61l1.83,1.75c0.19,0.18,0.5,0.18,0.69,0L11.1,6.86z"/>
</svg>
