<?xml version="1.0" encoding="utf-8"?>
<!-- Generator: Adobe Illustrator 28.0.0, SVG Export Plug-In . SVG Version: 6.00 Build 0)  -->
<svg version="1.1" id="Layer_1" xmlns="http://www.w3.org/2000/svg" xmlns:xlink="http://www.w3.org/1999/xlink" x="0px" y="0px"
	 viewBox="0 0 16 16" style="enable-background:new 0 0 16 16;" xml:space="preserve">
<style type="text/css">
	.st0{fill-rule:evenodd;clip-rule:evenodd;}
</style>
<path class="st0" d="M2.5,8c0-3.04,2.46-5.5,5.5-5.5c3.04,0,5.5,2.46,5.5,5.5c0,3.04-2.46,5.5-5.5,5.5C4.96,13.5,2.5,11.04,2.5,8z
	 M8,1.5C4.41,1.5,1.5,4.41,1.5,8c0,3.59,2.91,6.5,6.5,6.5c3.59,0,6.5-2.91,6.5-6.5C14.5,4.41,11.59,1.5,8,1.5z M8.5,4.5
	C8.5,4.22,8.28,4,8,4S7.5,4.22,7.5,4.5V8c0,0.28,0.22,0.5,0.5,0.5h3.5C11.78,8.5,12,8.28,12,8s-0.22-0.5-0.5-0.5h-3V4.5z"/>
</svg>
