<?xml version="1.0" encoding="utf-8"?>
<!-- Generator: Adobe Illustrator 28.0.0, SVG Export Plug-In . SVG Version: 6.00 Build 0)  -->
<svg version="1.1" id="Layer_1" xmlns="http://www.w3.org/2000/svg" xmlns:xlink="http://www.w3.org/1999/xlink" x="0px" y="0px"
	 viewBox="0 0 16 16" style="enable-background:new 0 0 16 16;" xml:space="preserve">
<style type="text/css">
	.st0{fill-rule:evenodd;clip-rule:evenodd;}
</style>
<path class="st0" d="M6.08,3.38C7,3,8,2.9,8.97,3.1c0.97,0.19,1.86,0.67,2.56,1.37l0,0l1.27,1.26h-1.29c-0.28,0-0.5,0.22-0.5,0.5
	c0,0.28,0.22,0.5,0.5,0.5h2.49h0.01c0.28,0,0.5-0.22,0.5-0.5V6.22V3.73c0-0.28-0.22-0.5-0.5-0.5s-0.5,0.22-0.5,0.5v1.3l-1.27-1.27
	l0,0c-0.84-0.84-1.91-1.41-3.07-1.64C8.01,1.88,6.8,2,5.7,2.46S3.67,3.68,3.01,4.67C2.35,5.65,2,6.81,2,8
	c0,1.19,0.35,2.35,1.01,3.33c0.66,0.99,1.6,1.76,2.69,2.21c1.1,0.45,2.3,0.57,3.47,0.34c1.16-0.23,2.23-0.8,3.07-1.64
	c0.2-0.2,0.2-0.51,0-0.71c-0.2-0.2-0.51-0.19-0.71,0c-0.7,0.7-1.59,1.18-2.56,1.37C8,13.1,7,13,6.08,12.62
	c-0.91-0.38-1.7-1.02-2.24-1.84C3.29,9.96,3,8.99,3,8s0.29-1.96,0.84-2.78C4.39,4.4,5.17,3.76,6.08,3.38z M8.5,5
	c0-0.28-0.22-0.5-0.5-0.5S7.5,4.72,7.5,5v2.99c0,0.02,0,0.04,0,0.05C7.51,8.19,7.59,8.31,7.69,8.4c0.02,0.02,0.04,0.03,0.07,0.04
	l2.59,1.49c0.24,0.14,0.55,0.06,0.68-0.18c0.14-0.24,0.06-0.54-0.18-0.68L8.5,7.71V5z"/>
</svg>
