<?xml version="1.0" encoding="utf-8"?>
<!-- Generator: Adobe Illustrator 28.0.0, SVG Export Plug-In . SVG Version: 6.00 Build 0)  -->
<svg version="1.1" id="Layer_1" xmlns="http://www.w3.org/2000/svg" xmlns:xlink="http://www.w3.org/1999/xlink" x="0px" y="0px"
	 viewBox="0 0 16 16" style="enable-background:new 0 0 16 16;" xml:space="preserve">
<style type="text/css">
	.st0{fill-rule:evenodd;clip-rule:evenodd;}
</style>
<path class="st0" d="M10.3,2.46C9.2,2,7.99,1.88,6.83,2.12C5.67,2.35,4.6,2.92,3.76,3.76L2.49,5.03v-1.3c0-0.28-0.22-0.5-0.5-0.5
	c-0.28,0-0.5,0.22-0.5,0.5v2.5c0,0,0,0.01,0,0.01c0,0.06,0.01,0.11,0.03,0.16c0.02,0.07,0.06,0.13,0.12,0.18
	c0.1,0.1,0.23,0.15,0.36,0.15c0.13,0,0.25-0.05,0.35-0.15L3.2,5.73l1.27-1.27c0.7-0.7,1.59-1.18,2.56-1.37C8,2.9,9,3,9.92,3.38
	c0.91,0.38,1.7,1.02,2.24,1.84C12.71,6.04,13,7.01,13,8s-0.29,1.96-0.84,2.78c-0.55,0.82-1.33,1.46-2.24,1.84C9,13,8,13.1,7.03,12.9
	c-0.97-0.19-1.86-0.67-2.56-1.37c-0.2-0.2-0.51-0.2-0.71,0c-0.2,0.2-0.2,0.51,0,0.71c0.84,0.84,1.91,1.41,3.07,1.64
	C7.99,14.12,9.2,14,10.3,13.54c1.1-0.45,2.03-1.22,2.69-2.21S14,9.19,14,8c0-1.19-0.35-2.35-1.01-3.33S11.39,2.91,10.3,2.46z M8.5,5
	c0-0.28-0.22-0.5-0.5-0.5S7.5,4.72,7.5,5v2.99c0,0.02,0,0.04,0,0.06C7.51,8.12,7.53,8.2,7.57,8.26C7.6,8.31,7.64,8.36,7.7,8.4
	c0.02,0.02,0.04,0.03,0.06,0.04l2.59,1.49c0.24,0.14,0.55,0.06,0.68-0.18c0.14-0.24,0.06-0.54-0.18-0.68L8.5,7.71V5z"/>
</svg>
