<?xml version="1.0" encoding="utf-8"?>
<!-- Generator: Adobe Illustrator 28.0.0, SVG Export Plug-In . SVG Version: 6.00 Build 0)  -->
<svg version="1.1" id="Layer_1" xmlns="http://www.w3.org/2000/svg" xmlns:xlink="http://www.w3.org/1999/xlink" x="0px" y="0px"
	 viewBox="0 0 16 16" style="enable-background:new 0 0 16 16;" xml:space="preserve">
<style type="text/css">
	.st0{fill-rule:evenodd;clip-rule:evenodd;}
</style>
<path class="st0" d="M12.02,4.69c0.2-0.2,0.2-0.51,0-0.71c-0.2-0.2-0.51-0.2-0.71,0L8,7.29L4.69,3.98c-0.2-0.2-0.51-0.2-0.71,0
	c-0.2,0.2-0.2,0.51,0,0.71L7.29,8l-3.31,3.31c-0.2,0.2-0.2,0.51,0,0.71c0.2,0.2,0.51,0.2,0.71,0L8,8.71l3.31,3.31
	c0.2,0.2,0.51,0.2,0.71,0c0.2-0.2,0.2-0.51,0-0.71L8.71,8L12.02,4.69z"/>
</svg>
