<?xml version="1.0" encoding="utf-8"?>
<!-- Generator: Adobe Illustrator 28.0.0, SVG Export Plug-In . SVG Version: 6.00 Build 0)  -->
<svg version="1.1" id="Layer_1" xmlns="http://www.w3.org/2000/svg" xmlns:xlink="http://www.w3.org/1999/xlink" x="0px" y="0px"
	 viewBox="0 0 16 16" style="enable-background:new 0 0 16 16;" xml:space="preserve">
<style type="text/css">
	.st0{fill-rule:evenodd;clip-rule:evenodd;}
</style>
<path class="st0" d="M3.61,4.83C2.47,5.36,2,5.98,2,6.5s0.47,1.14,1.61,1.67C4.71,8.67,6.26,9,8,9s3.29-0.33,4.39-0.83
	C13.53,7.64,14,7.02,14,6.5s-0.47-1.14-1.61-1.67C11.29,4.33,9.74,4,8,4S4.71,4.33,3.61,4.83z M14,8.34
	c-0.34,0.28-0.75,0.53-1.19,0.73c-0.1,0.05-0.2,0.09-0.31,0.13v1.92l0.03-0.01C13.6,10.58,14,9.96,14,9.5V8.34z M8.5,9.99
	c1.08-0.04,2.1-0.19,3-0.44v1.97c-0.82,0.26-1.83,0.43-3,0.47V9.99z M8,13c2.06,0,3.76-0.38,4.97-0.99C14.15,11.42,15,10.54,15,9.5
	v-3c0-1.14-0.98-2.02-2.19-2.58C11.55,3.35,9.85,3,8,3S4.45,3.35,3.19,3.92C1.98,4.48,1,5.36,1,6.5v3c0,1.04,0.85,1.92,2.03,2.51
	C4.24,12.62,5.94,13,8,13z M7.5,11.99v-2c-1.08-0.04-2.1-0.19-3-0.44v1.97C5.32,11.78,6.33,11.95,7.5,11.99z M3.5,11.13
	c-0.01,0-0.02-0.01-0.03-0.01C2.4,10.58,2,9.96,2,9.5V8.34c0.34,0.28,0.75,0.53,1.19,0.73c0.1,0.05,0.2,0.09,0.31,0.13V11.13z"/>
</svg>
