<?xml version="1.0" encoding="utf-8"?>
<!-- Generator: Adobe Illustrator 28.0.0, SVG Export Plug-In . SVG Version: 6.00 Build 0)  -->
<svg version="1.1" id="Layer_1" xmlns="http://www.w3.org/2000/svg" xmlns:xlink="http://www.w3.org/1999/xlink" x="0px" y="0px"
	 viewBox="0 0 16 16" style="enable-background:new 0 0 16 16;" xml:space="preserve">
<style type="text/css">
	.st0{fill-rule:evenodd;clip-rule:evenodd;}
</style>
<path class="st0" d="M2.67,4.11C1.8,4.51,1.5,4.95,1.5,5.25s0.3,0.74,1.17,1.14c0.4,0.18,0.87,0.33,1.41,0.43
	c0.01,0,0.02,0,0.04,0.01C4.69,6.94,5.32,7,6,7s1.31-0.06,1.88-0.17c0.01,0,0.02-0.01,0.04-0.01c0.54-0.11,1.01-0.26,1.41-0.43
	c0.87-0.39,1.17-0.83,1.17-1.14s-0.3-0.74-1.17-1.14C8.5,3.74,7.33,3.5,6,3.5S3.5,3.74,2.67,4.11z M7.5,7.9C7.02,7.97,6.52,8,6,8
	S4.98,7.97,4.5,7.9v1.49C4.97,9.46,5.47,9.5,6,9.5s1.03-0.04,1.5-0.11V7.9z M8.5,9.18V7.71C8.95,7.6,9.37,7.46,9.74,7.3
	c0.27-0.12,0.53-0.26,0.76-0.43v0.88c0,0.3-0.3,0.74-1.17,1.14C9.08,9,8.8,9.1,8.5,9.18z M7.5,10.72c-0.28-0.07-0.55-0.15-0.8-0.24
	C6.47,10.49,6.24,10.5,6,10.5c-0.17,0-0.34,0-0.5-0.01v0.26c0,0.3,0.3,0.74,1.17,1.14C6.92,12,7.2,12.1,7.5,12.18V10.72z M8.5,12.39
	V10.9C8.98,10.97,9.48,11,10,11c0.52,0,1.02-0.03,1.5-0.1v1.49c-0.47,0.07-0.97,0.11-1.5,0.11S8.97,12.46,8.5,12.39z M3.5,7.71
	C3.05,7.6,2.63,7.46,2.26,7.3C1.99,7.18,1.73,7.03,1.5,6.87v0.88c0,0.3,0.3,0.74,1.17,1.14C2.92,9,3.2,9.1,3.5,9.18V7.71z M2.26,3.2
	C1.32,3.62,0.5,4.31,0.5,5.25v2.5c0,0.94,0.82,1.63,1.76,2.05c0.63,0.28,1.39,0.49,2.24,0.6v0.35c0,0.94,0.82,1.63,1.76,2.05
	c0.98,0.44,2.31,0.7,3.74,0.7c1.44,0,2.76-0.26,3.74-0.7c0.94-0.42,1.76-1.11,1.76-2.05v-2.5v0c0-0.83-0.64-1.45-1.41-1.87
	C13.41,6,12.51,5.73,11.5,5.6V5.25c0-0.94-0.82-1.63-1.76-2.05C8.76,2.76,7.43,2.5,6,2.5S3.24,2.76,2.26,3.2z M14.5,9.87
	c-0.23,0.16-0.49,0.31-0.76,0.43c-0.37,0.17-0.79,0.31-1.24,0.42v1.47c0.3-0.09,0.58-0.18,0.83-0.3c0.87-0.39,1.17-0.83,1.17-1.14
	V9.87z M10,10c0.67,0,1.31-0.06,1.88-0.17c0.02,0,0.03-0.01,0.05-0.01c0.53-0.11,1.01-0.25,1.4-0.43c0.87-0.39,1.17-0.83,1.17-1.14
	c0-0.26-0.22-0.63-0.88-0.99c-0.53-0.29-1.26-0.52-2.12-0.65v1.14c0,0.94-0.82,1.63-1.76,2.05C9.6,9.86,9.45,9.92,9.3,9.98
	C9.53,9.99,9.76,10,10,10z"/>
</svg>
