<?xml version="1.0" encoding="utf-8"?>
<!-- Generator: Adobe Illustrator 28.0.0, SVG Export Plug-In . SVG Version: 6.00 Build 0)  -->
<svg version="1.1" id="Layer_1" xmlns="http://www.w3.org/2000/svg" xmlns:xlink="http://www.w3.org/1999/xlink" x="0px" y="0px"
	 viewBox="0 0 16 16" style="enable-background:new 0 0 16 16;" xml:space="preserve">
<style type="text/css">
	.st0{fill-rule:evenodd;clip-rule:evenodd;}
</style>
<path class="st0" d="M4.46,4.01C3.88,5.01,3.5,6.42,3.5,8s0.38,2.99,0.96,3.99C5.05,13,5.79,13.5,6.5,13.5s1.45-0.5,2.04-1.51
	c0.03-0.06,0.07-0.12,0.1-0.18c0.01-0.03,0.03-0.05,0.04-0.08C9.18,10.76,9.5,9.45,9.5,8S9.18,5.24,8.69,4.27
	C8.67,4.24,8.66,4.22,8.64,4.19c-0.03-0.06-0.07-0.12-0.1-0.18C7.95,3,7.21,2.5,6.5,2.5S5.05,3,4.46,4.01z M9.4,12.5
	c-0.22,0.37-0.47,0.71-0.75,1H9.5c0.58,0,1.18-0.33,1.7-1H9.4z M11.8,11.5H9.88c0.34-0.88,0.56-1.91,0.61-3h2
	C12.43,9.64,12.18,10.67,11.8,11.5z M10.49,7.5h2c-0.06-1.14-0.31-2.17-0.69-3H9.88C10.22,5.38,10.44,6.41,10.49,7.5z M12.41,12.49
	C13.09,11.32,13.5,9.73,13.5,8s-0.41-3.32-1.09-4.49C11.73,2.34,10.72,1.5,9.5,1.5h-3c-1.22,0-2.23,0.84-2.91,2.01
	C2.91,4.68,2.5,6.27,2.5,8s0.41,3.32,1.09,4.49c0.68,1.16,1.69,2.01,2.91,2.01h3C10.72,14.5,11.73,13.66,12.41,12.49z M11.2,3.5H9.4
	c-0.22-0.37-0.47-0.71-0.75-1H9.5C10.08,2.5,10.68,2.83,11.2,3.5z"/>
</svg>
