<?xml version="1.0" encoding="utf-8"?>
<!-- Generator: Adobe Illustrator 28.0.0, SVG Export Plug-In . SVG Version: 6.00 Build 0)  -->
<svg version="1.1" id="Layer_1" xmlns="http://www.w3.org/2000/svg" xmlns:xlink="http://www.w3.org/1999/xlink" x="0px" y="0px"
	 viewBox="0 0 16 16" style="enable-background:new 0 0 16 16;" xml:space="preserve">
<style type="text/css">
	.st0{fill-rule:evenodd;clip-rule:evenodd;}
</style>
<path class="st0" d="M4.5,2C4.22,2,4,2.22,4,2.5S4.22,3,4.5,3H13v8.5c0,0.28,0.22,0.5,0.5,0.5s0.5-0.22,0.5-0.5v-9
	C14,2.22,13.78,2,13.5,2H4.5z M2.5,4C2.22,4,2,4.22,2,4.5v9C2,13.78,2.22,14,2.5,14h9c0.28,0,0.5-0.22,0.5-0.5v-9
	C12,4.22,11.78,4,11.5,4H2.5z M3,13V5h8v8H3z"/>
</svg>
