<?xml version="1.0" encoding="utf-8"?>
<!-- Generator: Adobe Illustrator 28.0.0, SVG Export Plug-In . SVG Version: 6.00 Build 0)  -->
<svg version="1.1" id="Layer_1" xmlns="http://www.w3.org/2000/svg" xmlns:xlink="http://www.w3.org/1999/xlink" x="0px" y="0px"
	 viewBox="0 0 16 16" style="enable-background:new 0 0 16 16;" xml:space="preserve">
<style type="text/css">
	.st0{fill-rule:evenodd;clip-rule:evenodd;}
</style>
<path class="st0" d="M8,2.5C4.96,2.5,2.5,4.96,2.5,8c0,3.04,2.46,5.5,5.5,5.5c3.04,0,5.5-2.46,5.5-5.5C13.5,4.96,11.04,2.5,8,2.5z
	 M1.5,8c0-3.59,2.91-6.5,6.5-6.5c3.59,0,6.5,2.91,6.5,6.5c0,3.59-2.91,6.5-6.5,6.5C4.41,14.5,1.5,11.59,1.5,8z M8.5,4.5
	C8.5,4.22,8.28,4,8,4S7.5,4.22,7.5,4.5V5H7.25C6.79,5,6.34,5.18,6.01,5.51C5.68,5.84,5.5,6.29,5.5,6.75s0.18,0.91,0.51,1.24
	C6.34,8.32,6.79,8.5,7.25,8.5h1.5c0.2,0,0.39,0.08,0.53,0.22C9.42,8.86,9.5,9.05,9.5,9.25S9.42,9.64,9.28,9.78
	C9.14,9.92,8.95,10,8.75,10H8H6.5C6.22,10,6,10.22,6,10.5S6.22,11,6.5,11h1v0.5C7.5,11.78,7.72,12,8,12s0.5-0.22,0.5-0.5V11h0.25
	c0.46,0,0.91-0.18,1.24-0.51c0.33-0.33,0.51-0.77,0.51-1.24s-0.18-0.91-0.51-1.24C9.66,7.68,9.21,7.5,8.75,7.5h-1.5
	c-0.2,0-0.39-0.08-0.53-0.22C6.58,7.14,6.5,6.95,6.5,6.75s0.08-0.39,0.22-0.53C6.86,6.08,7.05,6,7.25,6H8h1.5C9.78,6,10,5.78,10,5.5
	S9.78,5,9.5,5h-1V4.5z"/>
</svg>
