<?xml version="1.0" encoding="utf-8"?>
<!-- Generator: Adobe Illustrator 28.0.0, SVG Export Plug-In . SVG Version: 6.00 Build 0)  -->
<svg version="1.1" id="Layer_1" xmlns="http://www.w3.org/2000/svg" xmlns:xlink="http://www.w3.org/1999/xlink" x="0px" y="0px"
	 viewBox="0 0 16 16" style="enable-background:new 0 0 16 16;" xml:space="preserve">
<style type="text/css">
	.st0{fill-rule:evenodd;clip-rule:evenodd;}
</style>
<path class="st0" d="M8.5,1.5C8.5,1.22,8.28,1,8,1S7.5,1.22,7.5,1.5v1H6.75c-0.8,0-1.56,0.32-2.12,0.88S3.75,4.7,3.75,5.5
	s0.32,1.56,0.88,2.12C5.19,8.18,5.95,8.5,6.75,8.5H7.5v4h-1c-0.53,0-1.04-0.21-1.41-0.59C4.71,11.54,4.5,11.03,4.5,10.5
	C4.5,10.22,4.28,10,4,10s-0.5,0.22-0.5,0.5c0,0.8,0.32,1.56,0.88,2.12S5.7,13.5,6.5,13.5h1v1C7.5,14.78,7.72,15,8,15
	s0.5-0.22,0.5-0.5v-1h1c0.8,0,1.56-0.32,2.12-0.88s0.88-1.33,0.88-2.12c0-0.8-0.32-1.56-0.88-2.12S10.3,7.5,9.5,7.5h-1v-4H9
	c0.26,0,0.52,0.05,0.77,0.15c0.24,0.1,0.46,0.25,0.65,0.43c0.19,0.19,0.33,0.41,0.43,0.65S11,5.24,11,5.5C11,5.78,11.22,6,11.5,6
	S12,5.78,12,5.5c0-0.39-0.08-0.78-0.23-1.15c-0.15-0.36-0.37-0.69-0.65-0.97c-0.28-0.28-0.61-0.5-0.97-0.65
	C9.78,2.58,9.39,2.5,9,2.5H8.5V1.5z M7.5,3.5H6.75c-0.53,0-1.04,0.21-1.41,0.59C4.96,4.46,4.75,4.97,4.75,5.5s0.21,1.04,0.59,1.41
	C5.71,7.29,6.22,7.5,6.75,7.5H7.5V3.5z M8.5,8.5v4h1c0.53,0,1.04-0.21,1.41-0.59s0.59-0.88,0.59-1.41c0-0.53-0.21-1.04-0.59-1.41
	C10.54,8.71,10.03,8.5,9.5,8.5H8.5z"/>
</svg>
