<?xml version="1.0" encoding="utf-8"?>
<!-- Generator: Adobe Illustrator 28.0.0, SVG Export Plug-In . SVG Version: 6.00 Build 0)  -->
<svg version="1.1" id="Layer_1" xmlns="http://www.w3.org/2000/svg" xmlns:xlink="http://www.w3.org/1999/xlink" x="0px" y="0px"
	 viewBox="0 0 16 16" style="enable-background:new 0 0 16 16;" xml:space="preserve">
<style type="text/css">
	.st0{fill-rule:evenodd;clip-rule:evenodd;}
</style>
<path class="st0" d="M13.5,11c0,0.28-0.22,0.5-0.5,0.5H8H3c-0.28,0-0.5-0.22-0.5-0.5v-1h11V11z M8.5,12.5H13
	c0.83,0,1.5-0.67,1.5-1.5V9.5V4c0-0.83-0.67-1.5-1.5-1.5H3C2.17,2.5,1.5,3.17,1.5,4v5.5V11c0,0.83,0.67,1.5,1.5,1.5h4.5v1H6
	c-0.28,0-0.5,0.22-0.5,0.5s0.22,0.5,0.5,0.5h2h2c0.28,0,0.5-0.22,0.5-0.5s-0.22-0.5-0.5-0.5H8.5V12.5z M2.5,4v5h11V4
	c0-0.28-0.22-0.5-0.5-0.5H3C2.72,3.5,2.5,3.72,2.5,4z"/>
</svg>
