<?xml version="1.0" encoding="utf-8"?>
<!-- Generator: Adobe Illustrator 28.0.0, SVG Export Plug-In . SVG Version: 6.00 Build 0)  -->
<svg version="1.1" id="Layer_1" xmlns="http://www.w3.org/2000/svg" xmlns:xlink="http://www.w3.org/1999/xlink" x="0px" y="0px"
	 viewBox="0 0 16 16" style="enable-background:new 0 0 16 16;" xml:space="preserve">
<style type="text/css">
	.st0{fill-rule:evenodd;clip-rule:evenodd;}
</style>
<path class="st0" d="M8,5c0.55,0,1-0.45,1-1S8.55,3,8,3S7,3.45,7,4S7.45,5,8,5z M8,9c0.55,0,1-0.45,1-1S8.55,7,8,7S7,7.45,7,8
	S7.45,9,8,9z M9,12c0,0.55-0.45,1-1,1s-1-0.45-1-1s0.45-1,1-1S9,11.45,9,12z"/>
</svg>
