<?xml version="1.0" encoding="UTF-8"?>
<svg id="Fill" xmlns="http://www.w3.org/2000/svg" viewBox="0 0 24 24">
  <defs>
    <style>
      .cls-1 {
        fill: #282a32;
        stroke-width: 0px;
      }
    </style>
  </defs>
  <g id="Double_Dooble" data-name="Double Dooble">
    <path class="cls-1" d="M20.91,9.96c-.39-.25-.61-.68-.61-1.12,0-.16.03-.32.09-.48.61-1.6-.56-3.3-2.23-3.3h-.2c-.6,0-1.13-.41-1.28-.99-.45-1.71-2.49-2.38-3.84-1.27-.24.2-.54.3-.84.3s-.58-.1-.83-.3c-.45-.37-.98-.55-1.51-.55-1.03,0-2.03.68-2.33,1.81-.15.59-.68.99-1.28.99h-.06c-1.43-.08-2.53,1.09-2.53,2.42,0,.29.05.59.16.88.06.15.09.31.09.48,0,.45-.22.87-.61,1.12-.73.49-1.1,1.27-1.1,2.05s.37,1.56,1.1,2.05c.39.25.61.68.61,1.12,0,.16-.03.32-.09.48-.61,1.61.57,3.31,2.24,3.31h.21c.59,0,1.11.4,1.26.98.3,1.13,1.3,1.81,2.33,1.81.53,0,1.06-.17,1.51-.55.25-.19.54-.29.83-.29s.6.1.84.29c.45.37.98.55,1.51.55,1.03,0,2.03-.68,2.33-1.81.15-.58.67-.98,1.26-.98h.08c1.43.07,2.53-1.09,2.53-2.43,0-.28-.05-.59-.16-.88-.06-.15-.09-.31-.09-.48,0-.45.22-.87.61-1.12.73-.49,1.09-1.27,1.09-2.05s-.36-1.56-1.09-2.05ZM8.03,15h-.2c-.95,0-1.52-.78-1.26-1.74l1.54-5.83c.21-.78,1.01-1.42,1.78-1.42h3.04c2.45,0,3.91,2.01,3.25,4.5-.6,2.28-2.78,4.16-5.03,4.45l.29-1.08c1.7-.41,3.32-1.9,3.78-3.63.24-.92.12-1.75-.33-2.36-.42-.56-1.12-.86-1.96-.86h-3.04c-.32,0-.72.33-.81.67l-1.54,5.83c-.05.16-.04.3.02.37.06.08.2.09.27.09h.47l-.27,1.01ZM18.35,13.5c-.66,2.49-3.18,4.51-5.63,4.51h-2.72c-.95,0-1.52-.79-1.26-1.75l1.54-5.83c.21-.78,1-1.42,1.78-1.42h2.25c.06.28,0,.75-.07,1.01h-2.18c-.32,0-.72.33-.81.67l-1.55,5.83c-.04.16-.03.3.03.37.06.08.19.1.27.1h2.72c1.99,0,4.13-1.72,4.66-3.76.24-.89.14-1.71-.28-2.3.09-.29.2-.86.23-1.2,1,.8,1.44,2.19,1.02,3.77Z"/>
  </g>
</svg>