<?xml version="1.0" encoding="utf-8"?>
<!-- Generator: Adobe Illustrator 27.3.1, SVG Export Plug-In . SVG Version: 6.00 Build 0)  -->
<svg version="1.1" id="Layer_1" xmlns="http://www.w3.org/2000/svg" xmlns:xlink="http://www.w3.org/1999/xlink" x="0px" y="0px"
	 viewBox="0 0 20 20" style="enable-background:new 0 0 20 20;" xml:space="preserve">
<path d="M18.5,19h-17C1.2,19,1,18.8,1,18.5C1,18.2,1.2,18,1.5,18h17c0.3,0,0.5,0.2,0.5,0.5C19,18.8,18.8,19,18.5,19z M15.4,5
	c0.5-1,0.2-2.2-0.7-2.7l-1.7-1c-1-0.6-2.2-0.2-2.7,0.7L8.7,4.6l5.2,3L15.4,5L15.4,5z M10,14.3l3.4-5.9l-5.2-3l-3.4,5.9
	c-0.3,0.5-0.4,1.1-0.4,1.7l0.2,3c0,0.7,0.8,1.2,1.4,0.8l2.7-1.4C9.2,15.2,9.7,14.8,10,14.3z"/>
</svg>
