<?xml version="1.0" encoding="utf-8"?>
<!-- Generator: Adobe Illustrator 28.0.0, SVG Export Plug-In . SVG Version: 6.00 Build 0)  -->
<svg version="1.1" id="Layer_1" xmlns="http://www.w3.org/2000/svg" xmlns:xlink="http://www.w3.org/1999/xlink" x="0px" y="0px"
	 viewBox="0 0 16 16" style="enable-background:new 0 0 16 16;" xml:space="preserve">
<style type="text/css">
	.st0{fill-rule:evenodd;clip-rule:evenodd;}
</style>
<path class="st0" d="M8.28,2.08c-0.17-0.11-0.39-0.11-0.55,0l-6,4C1.58,6.18,1.5,6.33,1.5,6.5V13c0,0.27,0.11,0.52,0.29,0.71
	C1.98,13.89,2.23,14,2.5,14h11c0.27,0,0.52-0.11,0.71-0.29S14.5,13.27,14.5,13V6.5c0-0.17-0.08-0.32-0.22-0.42L8.28,2.08z M2.5,7.37
	V13h11V7.42l-4.12,2.99C9.3,10.47,9.2,10.5,9.09,10.5H6.91c-0.1,0-0.21-0.03-0.29-0.09L2.5,7.37z M13.08,6.49L8,3.1L2.96,6.46
	L7.07,9.5h1.87L13.08,6.49z"/>
</svg>
