<?xml version="1.0" encoding="utf-8"?>
<!-- Generator: Adobe Illustrator 28.0.0, SVG Export Plug-In . SVG Version: 6.00 Build 0)  -->
<svg version="1.1" id="Layer_1" xmlns="http://www.w3.org/2000/svg" xmlns:xlink="http://www.w3.org/1999/xlink" x="0px" y="0px"
	 viewBox="0 0 16 16" style="enable-background:new 0 0 16 16;" xml:space="preserve">
<style type="text/css">
	.st0{fill-rule:evenodd;clip-rule:evenodd;}
</style>
<path class="st0" d="M2,3C1.72,3,1.5,3.22,1.5,3.5V12c0,0.27,0.11,0.52,0.29,0.71C1.98,12.89,2.23,13,2.5,13h11
	c0.27,0,0.52-0.11,0.71-0.29S14.5,12.27,14.5,12V3.5C14.5,3.22,14.28,3,14,3H2z M2.5,4.83V12h11V4.64L8.34,9.37
	c-0.19,0.18-0.48,0.18-0.68,0L2.5,4.83z M12.71,4H3.07L8,8.32L12.71,4z"/>
</svg>
