<?xml version="1.0" encoding="utf-8"?>
<!-- Generator: Adobe Illustrator 28.0.0, SVG Export Plug-In . SVG Version: 6.00 Build 0)  -->
<svg version="1.1" id="Layer_1" xmlns="http://www.w3.org/2000/svg" xmlns:xlink="http://www.w3.org/1999/xlink" x="0px" y="0px"
	 viewBox="0 0 16 16" style="enable-background:new 0 0 16 16;" xml:space="preserve">
<g>
	<path d="M15.46,7.8C15.46,7.8,15.46,7.8,15.46,7.8L15.46,7.8L15.46,7.8L15.46,7.8l-0.01-0.02c-0.01-0.01-0.01-0.03-0.02-0.04
		c-0.02-0.04-0.04-0.09-0.08-0.16c-0.07-0.13-0.17-0.32-0.31-0.54c-0.28-0.45-0.71-1.04-1.3-1.63C12.54,4.2,10.67,3,8,3
		S3.46,4.2,2.27,5.4c-0.59,0.59-1.02,1.19-1.3,1.63C0.83,7.25,0.72,7.44,0.65,7.57C0.62,7.64,0.59,7.69,0.57,7.73
		C0.56,7.75,0.56,7.77,0.55,7.78L0.55,7.79l0,0l0,0l0,0c0,0,0,0,0,0c-0.06,0.13-0.06,0.28,0,0.41c0,0,0,0,0,0l0,0l0,0l0,0l0.01,0.01
		c0.01,0.01,0.01,0.03,0.02,0.04c0.02,0.04,0.04,0.09,0.08,0.16c0.07,0.13,0.17,0.32,0.31,0.54c0.28,0.45,0.71,1.04,1.3,1.63
		C3.46,11.8,5.33,13,8,13s4.54-1.2,5.73-2.4c0.59-0.59,1.02-1.19,1.3-1.63c0.14-0.22,0.24-0.41,0.31-0.54
		c0.04-0.07,0.06-0.12,0.08-0.16c0.01-0.02,0.02-0.03,0.02-0.04l0.01-0.01l0,0l0,0l0,0c0,0,0,0,0,0C15.51,8.07,15.51,7.93,15.46,7.8
		z M14.19,8.44c-0.25,0.4-0.63,0.93-1.16,1.46C11.96,10.95,10.33,12,8,12c-2.33,0-3.96-1.05-5.02-2.1C2.45,9.37,2.06,8.83,1.81,8.44
		C1.7,8.26,1.62,8.11,1.56,8C1.62,7.89,1.7,7.74,1.81,7.56c0.25-0.4,0.63-0.93,1.16-1.46C4.04,5.05,5.67,4,8,4
		c2.33,0,3.96,1.05,5.02,2.1c0.53,0.53,0.91,1.06,1.16,1.46c0.11,0.18,0.2,0.33,0.25,0.44C14.38,8.11,14.3,8.26,14.19,8.44z"/>
	<path d="M8,5C6.34,5,5,6.34,5,8c0,1.66,1.34,3,3,3s3-1.34,3-3C11,6.34,9.66,5,8,5z M8,10c-1.1,0-2-0.9-2-2c0-1.1,0.9-2,2-2
		s2,0.9,2,2C10,9.1,9.1,10,8,10z"/>
</g>
</svg>
