<?xml version="1.0" encoding="utf-8"?>
<!-- Generator: Adobe Illustrator 28.0.0, SVG Export Plug-In . SVG Version: 6.00 Build 0)  -->
<svg version="1.1" id="Layer_1" xmlns="http://www.w3.org/2000/svg" xmlns:xlink="http://www.w3.org/1999/xlink" x="0px" y="0px"
	 viewBox="0 0 16 16" style="enable-background:new 0 0 16 16;" xml:space="preserve">
<g>
	<polygon points="14.27,8.28 14.29,8.26 14.29,8.25 	"/>
	<path d="M15.47,7.79l-0.32-0.56l0-0.01C14.4,5.98,12.2,3,7.99,3C7.53,3,7.07,3.04,6.62,3.11C6.34,3.16,6.16,3.42,6.2,3.69
		s0.3,0.46,0.58,0.41C7.18,4.03,7.59,4,7.99,4c3.66,0,5.61,2.59,6.29,3.73v0l0,0l0.1,0.17l0.07,0.12l-0.15,0.23
		c0,0,0,0.01-0.01,0.01l0-0.01l0,0l-0.01,0.01c-0.01,0.02-0.03,0.04-0.04,0.06c-0.23,0.34-0.84,1.24-1.55,1.87
		c-0.21,0.18-0.22,0.5-0.04,0.71s0.5,0.22,0.71,0.04c0.81-0.73,1.49-1.74,1.71-2.06c0.02-0.03,0.04-0.05,0.05-0.07l0.33-0.49
		C15.55,8.16,15.56,7.96,15.47,7.79z"/>
	<path d="M9.47,6.65c0.29,0.32,0.47,0.73,0.51,1.16c0.03,0.27,0.27,0.48,0.54,0.45C10.8,8.23,11,7.99,10.98,7.72
		c-0.06-0.65-0.33-1.26-0.77-1.74C9.77,5.5,9.19,5.17,8.55,5.05C8.28,5,8.02,5.18,7.97,5.45C7.92,5.72,8.1,5.98,8.37,6.03
		C8.79,6.12,9.18,6.33,9.47,6.65z"/>
	<path d="M11.74,11.38c0-0.01-0.01-0.01-0.02-0.02L6.69,5.82L6.68,5.81L6.67,5.8L4.99,3.96c0-0.01-0.01-0.01-0.01-0.02L3.36,2.16
		c-0.19-0.2-0.5-0.22-0.71-0.03c-0.2,0.19-0.22,0.5-0.03,0.71l1.2,1.32c-1.3,0.8-2.18,1.85-2.69,2.61L1.12,6.78L0.8,7.28
		C0.78,7.3,0.77,7.32,0.76,7.34L0.52,7.86C0.44,8.02,0.46,8.2,0.55,8.35l0.53,0.81l0,0C2,10.54,4.17,13,7.99,13
		c1.12,0.01,2.23-0.22,3.26-0.68l1.38,1.51c0.19,0.2,0.5,0.22,0.71,0.03c0.2-0.19,0.22-0.5,0.03-0.71L11.74,11.38z M6.05,7.54
		C6.1,7.31,6.19,7.1,6.32,6.9l2.61,2.87C8.64,9.92,8.32,10,7.99,10h0c-0.4,0-0.8-0.12-1.13-0.35C6.53,9.42,6.27,9.1,6.13,8.72
		C5.98,8.34,5.95,7.93,6.05,7.54z M8,12L8,12c-3.33,0-5.24-2.14-6.08-3.39L1.54,8.04L1.65,7.8l0.31-0.48
		c0.49-0.72,1.32-1.7,2.55-2.41l1.12,1.23C5.36,6.49,5.17,6.88,5.07,7.31C4.93,7.9,4.98,8.52,5.19,9.08c0.22,0.56,0.6,1.05,1.1,1.39
		C6.79,10.82,7.39,11,7.99,11c0.58,0,1.14-0.16,1.62-0.47l0.92,1.01C9.73,11.85,8.86,12.01,8,12z"/>
</g>
</svg>
