<?xml version="1.0" encoding="utf-8"?>
<!-- Generator: Adobe Illustrator 28.0.0, SVG Export Plug-In . SVG Version: 6.00 Build 0)  -->
<svg version="1.1" id="Layer_1" xmlns="http://www.w3.org/2000/svg" xmlns:xlink="http://www.w3.org/1999/xlink" x="0px" y="0px"
	 viewBox="0 0 16 16" style="enable-background:new 0 0 16 16;" xml:space="preserve">
<style type="text/css">
	.st0{fill-rule:evenodd;clip-rule:evenodd;}
</style>
<path class="st0" d="M7.06,1.84c0.32-0.88,1.56-0.88,1.88,0l1.33,3.65l3.88,0.14c0.93,0.03,1.32,1.21,0.58,1.79L11.67,9.8l1.07,3.73
	c0.26,0.9-0.75,1.63-1.52,1.1L8,12.47l-3.22,2.17c-0.77,0.52-1.78-0.21-1.52-1.1L4.33,9.8L1.27,7.41C0.54,6.84,0.92,5.66,1.85,5.63
	l3.88-0.14L7.06,1.84z M8,2.19L6.67,5.83c-0.14,0.38-0.5,0.64-0.9,0.66L1.89,6.63l3.06,2.39c0.32,0.25,0.46,0.67,0.35,1.06
	l-1.07,3.73l3.22-2.17c0.34-0.23,0.78-0.23,1.12,0l3.22,2.17l-1.07-3.73c-0.11-0.39,0.02-0.81,0.35-1.06l3.06-2.39l-3.88-0.14
	c-0.41-0.01-0.76-0.27-0.9-0.66L8,2.19z"/>
</svg>
