<?xml version="1.0" encoding="utf-8"?>
<!-- Generator: Adobe Illustrator 28.0.0, SVG Export Plug-In . SVG Version: 6.00 Build 0)  -->
<svg version="1.1" id="Layer_1" xmlns="http://www.w3.org/2000/svg" xmlns:xlink="http://www.w3.org/1999/xlink" x="0px" y="0px"
	 viewBox="0 0 16 16" style="enable-background:new 0 0 16 16;" xml:space="preserve">
<style type="text/css">
	.st0{fill-rule:evenodd;clip-rule:evenodd;}
</style>
<path class="st0" d="M13.7,2.6c-0.2-0.1-0.4-0.1-0.5,0c-0.9,0.7-1.7,0.8-2.5,0.7c-0.8,0-1.6-0.4-2.5-0.8C7.3,2.2,6.4,1.8,5.4,1.7
	S3.3,1.8,2.2,2.6c0,0,0,0-0.1,0.1c0,0,0,0-0.1,0.1v0.1V3v10.5C2,13.8,2.2,14,2.5,14S3,13.8,3,13.5v-2.7c0.8-0.6,1.6-0.7,2.3-0.6
	c0.8,0.1,1.6,0.4,2.5,0.8s1.8,0.8,2.8,0.9c1,0.1,2.1-0.1,3.2-0.9c0.1-0.1,0.2-0.2,0.2-0.4V3C14,2.8,13.9,2.6,13.7,2.6z M13,10.2
	c-0.8,0.6-1.6,0.7-2.3,0.6c-0.8-0.1-1.6-0.4-2.5-0.8C7.3,9.7,6.4,9.3,5.4,9.2C4.6,9.1,3.8,9.2,3,9.6V3.3c0.8-0.6,1.6-0.7,2.3-0.6
	c0.8,0.1,1.6,0.4,2.5,0.8s1.8,0.8,2.8,0.9c0.8,0.1,1.6,0,2.4-0.4V10.2z"/>
</svg>
