<?xml version="1.0" encoding="utf-8"?>
<!-- Generator: Adobe Illustrator 28.0.0, SVG Export Plug-In . SVG Version: 6.00 Build 0)  -->
<svg version="1.1" id="Layer_1" xmlns="http://www.w3.org/2000/svg" xmlns:xlink="http://www.w3.org/1999/xlink" x="0px" y="0px"
	 viewBox="0 0 16 16" style="enable-background:new 0 0 16 16;" xml:space="preserve">
<style type="text/css">
	.st0{fill-rule:evenodd;clip-rule:evenodd;}
</style>
<path class="st0" d="M2.63,2.5h10.74c0.19,0,0.38,0.06,0.55,0.16c0.16,0.11,0.29,0.26,0.37,0.43c0.08,0.18,0.1,0.37,0.07,0.57
	c-0.03,0.19-0.12,0.37-0.25,0.51c0,0,0,0,0,0l-3.98,4.38L10,12.24c0,0.16-0.04,0.32-0.12,0.47c-0.08,0.15-0.19,0.27-0.33,0.36l0,0
	l-1.83,1.17c0,0-0.01,0.01-0.02,0.01c-0.04,0.03-0.13,0.09-0.2,0.13c-0.05,0.03-0.11,0.07-0.17,0.09l0,0
	c-0.04,0.02-0.15,0.08-0.29,0.08c-0.18,0.01-0.36-0.03-0.52-0.12c-0.16-0.08-0.29-0.21-0.38-0.36C6.05,13.93,6,13.76,6,13.58
	L5.87,8.55L1.89,4.18c0,0,0,0,0,0C1.76,4.03,1.68,3.85,1.64,3.66C1.61,3.47,1.64,3.27,1.72,3.1c0.08-0.18,0.21-0.33,0.37-0.43
	C2.25,2.56,2.44,2.5,2.63,2.5z M2.63,3.5L2.63,3.5l4.11,4.52c0.08,0.09,0.13,0.2,0.13,0.32L7,13.52c0.03-0.02,0.05-0.04,0.08-0.05
	c0.01-0.01,0.02-0.01,0.03-0.02c0.02-0.02,0.04-0.03,0.06-0.04l0.01,0L9,12.23c0-0.01,0-0.01,0-0.02l0.13-3.87
	c0-0.12,0.05-0.23,0.13-0.32l4.11-4.52l0,0H2.63z"/>
</svg>
