<?xml version="1.0" encoding="utf-8"?>
<!-- Generator: Adobe Illustrator 28.0.0, SVG Export Plug-In . SVG Version: 6.00 Build 0)  -->
<svg version="1.1" id="Layer_1" xmlns="http://www.w3.org/2000/svg" xmlns:xlink="http://www.w3.org/1999/xlink" x="0px" y="0px"
	 viewBox="0 0 16 16" style="enable-background:new 0 0 16 16;" xml:space="preserve">
<style type="text/css">
	.st0{fill-rule:evenodd;clip-rule:evenodd;}
</style>
<path class="st0" d="M9.06,2.52c-0.1,0.1-0.2,0.28-0.29,0.55C8.69,3.33,8.63,3.63,8.58,3.92c-0.03,0.2-0.05,0.39-0.06,0.55
	c0.16-0.01,0.35-0.03,0.55-0.06c0.29-0.04,0.59-0.1,0.85-0.19c0.27-0.09,0.45-0.19,0.55-0.29c0.19-0.19,0.29-0.44,0.29-0.71
	c0-0.27-0.11-0.52-0.29-0.71c-0.19-0.19-0.44-0.29-0.71-0.29C9.5,2.23,9.25,2.33,9.06,2.52z M11.77,3.23c0,0.46-0.16,0.91-0.45,1.27
	h2.18c0.55,0,1,0.45,1,1v2c0,0.55-0.45,1-1,1v4c0,0.27-0.11,0.52-0.29,0.71s-0.44,0.29-0.71,0.29H8H3.5c-0.27,0-0.52-0.11-0.71-0.29
	C2.61,13.02,2.5,12.77,2.5,12.5v-4c-0.55,0-1-0.45-1-1v-2c0-0.55,0.45-1,1-1h2.18C4.39,4.14,4.23,3.7,4.23,3.23
	c0-0.53,0.21-1.04,0.59-1.42C5.19,1.44,5.7,1.23,6.23,1.23c0.53,0,1.04,0.21,1.42,0.59l0,0C7.79,1.96,7.91,2.14,8,2.32
	c0.09-0.18,0.21-0.36,0.35-0.5l0,0c0.38-0.38,0.88-0.59,1.42-0.59c0.53,0,1.04,0.21,1.42,0.59S11.77,2.7,11.77,3.23z M8.5,12.5h4v-4
	h-4V12.5z M7.5,8.5v4h-4v-4H7.5z M8.5,7.5H13h0.5v-2h-5V7.5z M7.5,5.5v2H3H2.5v-2H7.5z M7.42,3.92c0.03,0.2,0.05,0.39,0.06,0.55
	C7.31,4.46,7.12,4.45,6.92,4.42c-0.29-0.04-0.59-0.1-0.85-0.19C5.8,4.14,5.62,4.04,5.52,3.94C5.33,3.75,5.23,3.5,5.23,3.23
	c0-0.27,0.11-0.52,0.29-0.71c0.19-0.19,0.44-0.29,0.71-0.29c0.27,0,0.52,0.11,0.71,0.29c0.1,0.1,0.2,0.28,0.29,0.55
	C7.31,3.33,7.37,3.63,7.42,3.92z"/>
</svg>
