<?xml version="1.0" encoding="utf-8"?>
<!-- Generator: Adobe Illustrator 28.0.0, SVG Export Plug-In . SVG Version: 6.00 Build 0)  -->
<svg version="1.1" id="Layer_1" xmlns="http://www.w3.org/2000/svg" xmlns:xlink="http://www.w3.org/1999/xlink" x="0px" y="0px"
	 viewBox="0 0 16 16" style="enable-background:new 0 0 16 16;" xml:space="preserve">
<style type="text/css">
	.st0{fill-rule:evenodd;clip-rule:evenodd;}
</style>
<path class="st0" d="M6.25,2.78C4.88,3.24,3.75,4.23,3.1,5.5h2.13c0.13-0.68,0.32-1.29,0.54-1.82C5.91,3.35,6.07,3.05,6.25,2.78z
	 M5.08,6.5H2.71C2.57,6.98,2.5,7.48,2.5,8s0.07,1.02,0.21,1.5h2.37C5.03,9.02,5,8.52,5,8S5.03,6.98,5.08,6.5z M6.09,9.5
	C6.03,9.03,6,8.52,6,8c0-0.52,0.03-1.03,0.09-1.5h3.83C9.97,6.97,10,7.48,10,8c0,0.52-0.03,1.03-0.09,1.5H6.09z M5.23,10.5H3.1
	c0.65,1.27,1.78,2.26,3.15,2.72c-0.18-0.26-0.34-0.57-0.48-0.89C5.55,11.79,5.36,11.18,5.23,10.5z M9.75,13.22
	c1.37-0.46,2.5-1.44,3.15-2.72h-2.13c-0.13,0.68-0.32,1.29-0.54,1.82C10.09,12.65,9.93,12.95,9.75,13.22z M9.75,10.5
	c-0.11,0.54-0.26,1.02-0.44,1.43c-0.21,0.49-0.45,0.86-0.69,1.09C8.39,13.26,8.18,13.34,8,13.34s-0.39-0.08-0.62-0.31
	c-0.24-0.24-0.48-0.6-0.69-1.09c-0.18-0.41-0.33-0.89-0.44-1.43H9.75z M10.92,9.5h2.37C13.43,9.02,13.5,8.52,13.5,8
	s-0.07-1.02-0.21-1.5h-2.37C10.97,6.98,11,7.48,11,8S10.97,9.02,10.92,9.5z M10.77,5.5h2.13c-0.65-1.27-1.78-2.26-3.15-2.72
	c0.18,0.26,0.34,0.57,0.48,0.89C10.45,4.21,10.64,4.82,10.77,5.5z M9.75,5.5h-3.5c0.11-0.54,0.26-1.02,0.44-1.43
	C6.9,3.58,7.14,3.21,7.38,2.98C7.61,2.74,7.82,2.66,8,2.66s0.39,0.08,0.62,0.31c0.24,0.24,0.48,0.6,0.69,1.09
	C9.48,4.48,9.63,4.96,9.75,5.5z M8,1.5C4.41,1.5,1.5,4.41,1.5,8c0,3.59,2.91,6.5,6.5,6.5c3.59,0,6.5-2.91,6.5-6.5
	C14.5,4.41,11.59,1.5,8,1.5z"/>
</svg>
