<?xml version="1.0" encoding="utf-8"?>
<!-- Generator: Adobe Illustrator 28.0.0, SVG Export Plug-In . SVG Version: 6.00 Build 0)  -->
<svg version="1.1" id="Layer_1" xmlns="http://www.w3.org/2000/svg" xmlns:xlink="http://www.w3.org/1999/xlink" x="0px" y="0px"
	 viewBox="0 0 16 16" style="enable-background:new 0 0 16 16;" xml:space="preserve">
<style type="text/css">
	.st0{fill-rule:evenodd;clip-rule:evenodd;}
</style>
<path class="st0" d="M7.33,1.94C7.51,1.77,7.75,1.68,8,1.68c0.25,0,0.49,0.09,0.67,0.26c0,0,0,0,0,0l5.01,4.55
	c0.1,0.09,0.18,0.21,0.23,0.33C13.97,6.94,14,7.07,14,7.21l0,0.01L14,13c0,0.27-0.11,0.52-0.29,0.71C13.52,13.89,13.27,14,13,14h-3
	c-0.27,0-0.52-0.11-0.71-0.29C9.11,13.52,9,13.27,9,13v-3H7v3c0,0.27-0.11,0.52-0.29,0.71C6.52,13.89,6.27,14,6,14H3
	c-0.27,0-0.52-0.11-0.71-0.29C2.11,13.52,2,13.27,2,13V7.21c0-0.14,0.03-0.27,0.09-0.39c0.05-0.12,0.13-0.24,0.23-0.33l0.01-0.01
	L7.33,1.94C7.33,1.94,7.33,1.94,7.33,1.94z M3,7.21L8,2.68l0,0l0,0L13,7.21c0,0,0,0,0,0c0,0,0,0,0,0.01V13h-3v-3
	c0-0.27-0.11-0.52-0.29-0.71C9.52,9.11,9.27,9,9,9H7C6.73,9,6.48,9.11,6.29,9.29C6.11,9.48,6,9.73,6,10v3H3V7.23
	C3,7.22,3,7.22,3,7.21C3,7.22,3,7.22,3,7.21z"/>
</svg>
