<?xml version="1.0" encoding="utf-8"?>
<!-- Generator: Adobe Illustrator 28.0.0, SVG Export Plug-In . SVG Version: 6.00 Build 0)  -->
<svg version="1.1" id="Layer_1" xmlns="http://www.w3.org/2000/svg" xmlns:xlink="http://www.w3.org/1999/xlink" x="0px" y="0px"
	 viewBox="0 0 16 16" style="enable-background:new 0 0 16 16;" xml:space="preserve">
<style type="text/css">
	.st0{fill-rule:evenodd;clip-rule:evenodd;}
</style>
<path class="st0" d="M8,4.82l1.23-1.23c0.43-0.39,0.99-0.59,1.56-0.58c0.58,0.01,1.13,0.25,1.54,0.66c0.41,0.41,0.65,0.96,0.66,1.54
	c0.01,0.58-0.19,1.14-0.58,1.56l-1.76,1.75l0,0C10.44,8.74,10.2,8.9,9.92,9.02C9.65,9.13,9.36,9.19,9.06,9.19S8.48,9.13,8.2,9.02
	C7.93,8.9,7.68,8.74,7.47,8.53c-0.19-0.2-0.51-0.2-0.71,0c-0.2,0.19-0.2,0.51,0,0.71c0.3,0.3,0.66,0.54,1.05,0.71
	c0.39,0.16,0.82,0.25,1.24,0.25s0.85-0.08,1.24-0.25c0.39-0.16,0.75-0.4,1.05-0.71l0,0l1.77-1.76c0.01-0.01,0.01-0.01,0.02-0.02
	c0.56-0.62,0.87-1.43,0.85-2.27s-0.36-1.63-0.95-2.23c-0.59-0.59-1.39-0.93-2.23-0.95C9.98,1.99,9.16,2.29,8.54,2.86
	C8.54,2.86,8.53,2.87,8.53,2.87L7.29,4.11c-0.2,0.2-0.2,0.51,0,0.71C7.49,5.01,7.8,5.01,8,4.82z M6.08,6.98
	c0.27-0.11,0.57-0.17,0.86-0.17S7.53,6.87,7.8,6.98C8.07,7.1,8.32,7.26,8.53,7.47c0.19,0.2,0.51,0.2,0.71,0
	c0.2-0.19,0.2-0.51,0-0.71c-0.3-0.3-0.66-0.54-1.05-0.71C7.79,5.9,7.36,5.81,6.94,5.81c-0.43,0-0.85,0.08-1.24,0.25
	C5.3,6.22,4.94,6.46,4.64,6.77l0,0L2.87,8.53C2.87,8.53,2.86,8.54,2.86,8.54c-0.56,0.62-0.87,1.43-0.85,2.27
	c0.02,0.84,0.36,1.64,0.95,2.23c0.59,0.59,1.39,0.93,2.23,0.95c0.84,0.02,1.65-0.28,2.27-0.85c0.01-0.01,0.01-0.01,0.02-0.02
	l1.24-1.24c0.2-0.2,0.2-0.51,0-0.71c-0.2-0.2-0.51-0.2-0.71,0l-1.23,1.23c-0.43,0.39-0.99,0.59-1.56,0.58
	c-0.58-0.01-1.13-0.25-1.54-0.66c-0.41-0.41-0.65-0.96-0.66-1.54C2.99,10.21,3.2,9.65,3.59,9.23l1.76-1.75l0,0
	C5.56,7.26,5.8,7.1,6.08,6.98z"/>
</svg>
