<?xml version="1.0" encoding="utf-8"?>
<!-- Generator: Adobe Illustrator 28.0.0, SVG Export Plug-In . SVG Version: 6.00 Build 0)  -->
<svg version="1.1" id="Layer_1" xmlns="http://www.w3.org/2000/svg" xmlns:xlink="http://www.w3.org/1999/xlink" x="0px" y="0px"
	 viewBox="0 0 16 16" style="enable-background:new 0 0 16 16;" xml:space="preserve">
<style type="text/css">
	.st0{fill-rule:evenodd;clip-rule:evenodd;}
</style>
<path class="st0" d="M2,4c0-0.28,0.22-0.5,0.5-0.5h11C13.78,3.5,14,3.72,14,4s-0.22,0.5-0.5,0.5h-11C2.22,4.5,2,4.28,2,4z M2,8
	c0-0.28,0.22-0.5,0.5-0.5h11C13.78,7.5,14,7.72,14,8s-0.22,0.5-0.5,0.5h-11C2.22,8.5,2,8.28,2,8z M2.5,11.5C2.22,11.5,2,11.72,2,12
	s0.22,0.5,0.5,0.5h11c0.28,0,0.5-0.22,0.5-0.5s-0.22-0.5-0.5-0.5H2.5z"/>
</svg>
