<?xml version="1.0" encoding="utf-8"?>
<!-- Generator: Adobe Illustrator 28.0.0, SVG Export Plug-In . SVG Version: 6.00 Build 0)  -->
<svg version="1.1" id="Layer_1" xmlns="http://www.w3.org/2000/svg" xmlns:xlink="http://www.w3.org/1999/xlink" x="0px" y="0px"
	 viewBox="0 0 16 16" style="enable-background:new 0 0 16 16;" xml:space="preserve">
<style type="text/css">
	.st0{fill-rule:evenodd;clip-rule:evenodd;}
</style>
<path class="st0" d="M6.09,3.37c0.2-0.19,0.22-0.5,0.03-0.71c-0.19-0.2-0.5-0.22-0.71-0.03L3.58,4.32L2.84,3.63
	c-0.2-0.19-0.52-0.18-0.71,0.03c-0.19,0.2-0.18,0.52,0.03,0.71l1.08,1c0.19,0.18,0.49,0.18,0.68,0L6.09,3.37z M8,3.5
	C7.72,3.5,7.5,3.72,7.5,4S7.72,4.5,8,4.5h5.5C13.78,4.5,14,4.28,14,4s-0.22-0.5-0.5-0.5H8z M8,7.5C7.72,7.5,7.5,7.72,7.5,8
	S7.72,8.5,8,8.5h5.5C13.78,8.5,14,8.28,14,8s-0.22-0.5-0.5-0.5H8z M7.5,12c0-0.28,0.22-0.5,0.5-0.5h5.5c0.28,0,0.5,0.22,0.5,0.5
	s-0.22,0.5-0.5,0.5H8C7.72,12.5,7.5,12.28,7.5,12z M6.12,6.66c0.19,0.2,0.17,0.52-0.03,0.71l-2.17,2c-0.19,0.18-0.49,0.18-0.68,0
	l-1.08-1c-0.2-0.19-0.22-0.5-0.03-0.71c0.19-0.2,0.5-0.22,0.71-0.03l0.74,0.69l1.83-1.69C5.61,6.45,5.93,6.46,6.12,6.66z
	 M6.09,11.37c0.2-0.19,0.22-0.5,0.03-0.71c-0.19-0.2-0.5-0.22-0.71-0.03l-1.83,1.69l-0.74-0.69c-0.2-0.19-0.52-0.18-0.71,0.03
	c-0.19,0.2-0.18,0.52,0.03,0.71l1.08,1c0.19,0.18,0.49,0.18,0.68,0L6.09,11.37z"/>
</svg>
