<?xml version="1.0" encoding="utf-8"?>
<!-- Generator: Adobe Illustrator 28.0.0, SVG Export Plug-In . SVG Version: 6.00 Build 0)  -->
<svg version="1.1" id="Layer_1" xmlns="http://www.w3.org/2000/svg" xmlns:xlink="http://www.w3.org/1999/xlink" x="0px" y="0px"
	 viewBox="0 0 16 16" style="enable-background:new 0 0 16 16;" xml:space="preserve">
<style type="text/css">
	.st0{fill-rule:evenodd;clip-rule:evenodd;}
</style>
<path class="st0" d="M3.38,4c0,0.35-0.28,0.62-0.62,0.62S2.12,4.35,2.12,4S2.4,3.38,2.75,3.38S3.38,3.65,3.38,4z M5.5,3.5
	C5.22,3.5,5,3.72,5,4s0.22,0.5,0.5,0.5h8C13.78,4.5,14,4.28,14,4s-0.22-0.5-0.5-0.5H5.5z M5.5,7.5C5.22,7.5,5,7.72,5,8
	s0.22,0.5,0.5,0.5h8C13.78,8.5,14,8.28,14,8s-0.22-0.5-0.5-0.5H5.5z M5,12c0-0.28,0.22-0.5,0.5-0.5h8c0.28,0,0.5,0.22,0.5,0.5
	s-0.22,0.5-0.5,0.5h-8C5.22,12.5,5,12.28,5,12z M2.75,12.62c0.35,0,0.62-0.28,0.62-0.62s-0.28-0.62-0.62-0.62S2.12,11.65,2.12,12
	S2.4,12.62,2.75,12.62z M3.38,8c0,0.35-0.28,0.62-0.62,0.62S2.12,8.35,2.12,8c0-0.35,0.28-0.62,0.62-0.62S3.38,7.65,3.38,8z"/>
</svg>
