<?xml version="1.0" encoding="utf-8"?>
<!-- Generator: Adobe Illustrator 28.0.0, SVG Export Plug-In . SVG Version: 6.00 Build 0)  -->
<svg version="1.1" id="Layer_1" xmlns="http://www.w3.org/2000/svg" xmlns:xlink="http://www.w3.org/1999/xlink" x="0px" y="0px"
	 viewBox="0 0 16 16" style="enable-background:new 0 0 16 16;" xml:space="preserve">
<style type="text/css">
	.st0{fill-rule:evenodd;clip-rule:evenodd;}
</style>
<path class="st0" d="M8,1.5c-0.46,0-0.91,0.18-1.24,0.51C6.43,2.34,6.25,2.79,6.25,3.25V5h3.5V3.25c0-0.46-0.18-0.91-0.51-1.24
	S8.46,1.5,8,1.5z M5.25,3.25V5H3C2.45,5,2,5.45,2,6v7c0,0.55,0.45,1,1,1h10c0.55,0,1-0.45,1-1V6c0-0.55-0.45-1-1-1h-2.25V3.25
	c0-0.73-0.29-1.43-0.81-1.94C9.43,0.79,8.73,0.5,8,0.5S6.57,0.79,6.06,1.31C5.54,1.82,5.25,2.52,5.25,3.25z M3,6h2.75h4.5H13v7H3V6z
	 M8.62,9.5c0,0.35-0.28,0.62-0.62,0.62c-0.35,0-0.62-0.28-0.62-0.62S7.65,8.88,8,8.88C8.35,8.88,8.62,9.15,8.62,9.5z"/>
</svg>
