<?xml version="1.0" encoding="utf-8"?>
<!-- Generator: Adobe Illustrator 28.0.0, SVG Export Plug-In . SVG Version: 6.00 Build 0)  -->
<svg version="1.1" id="Layer_1" xmlns="http://www.w3.org/2000/svg" xmlns:xlink="http://www.w3.org/1999/xlink" x="0px" y="0px"
	 viewBox="0 0 16 16" style="enable-background:new 0 0 16 16;" xml:space="preserve">
<style type="text/css">
	.st0{fill-rule:evenodd;clip-rule:evenodd;}
</style>
<path class="st0" d="M2.5,7.25c0-2.62,2.13-4.75,4.75-4.75S12,4.63,12,7.25S9.87,12,7.25,12S2.5,9.87,2.5,7.25z M7.25,1.5
	C4.07,1.5,1.5,4.07,1.5,7.25C1.5,10.43,4.07,13,7.25,13c1.41,0,2.7-0.51,3.7-1.35l2.7,2.7c0.2,0.2,0.51,0.2,0.71,0
	c0.2-0.2,0.2-0.51,0-0.71l-2.7-2.7c0.84-1,1.35-2.29,1.35-3.7C13,4.07,10.43,1.5,7.25,1.5z"/>
</svg>
