<?xml version="1.0" encoding="utf-8"?>
<!-- Generator: Adobe Illustrator 27.3.1, SVG Export Plug-In . SVG Version: 6.00 Build 0)  -->
<svg version="1.1" id="Layer_1" xmlns="http://www.w3.org/2000/svg" xmlns:xlink="http://www.w3.org/1999/xlink" x="0px" y="0px"
	 viewBox="0 0 20 20" style="enable-background:new 0 0 20 20;" xml:space="preserve">
<style type="text/css">
	.st0{fill:#020202;}
</style>
<path class="st0" d="M14.8,10.5h1.8V5c0-1.1-0.9-2-2-2h-0.6c-0.8,0-1.5,0.4-1.9,1c-0.4,0.7-1.1,1.2-2,1.2S8.4,4.8,8,4
	C7.7,3.4,6.9,3,6.1,3H5.5c-1.1,0-2,0.9-2,2v5.5h1.8c0.3,0,0.5,0.2,0.5,0.5s-0.2,0.5-0.5,0.5H3.5V15c0,1.1,0.9,2,2,2h0.6
	c0.8,0,1.5-0.4,1.9-1c0.4-0.7,1.1-1.2,2-1.2s1.6,0.5,2,1.2c0.4,0.7,1.1,1,1.9,1h0.6c1.1,0,2-0.9,2-2v-3.5h-1.8
	c-0.3,0-0.5-0.2-0.5-0.5S14.5,10.5,14.8,10.5z M10,13c-1.6,0-3-1.3-3-3s1.4-3,3-3s3,1.4,3,3S11.6,13,10,13z M11.2,10.5
	c0.2,0.2,0.2,0.5,0,0.7c-0.1,0.1-0.2,0.1-0.3,0.1c-0.1,0-0.2-0.1-0.4-0.1l-0.7-0.7c-0.2-0.2-0.3-0.4-0.3-0.7V8.5C9.5,8.2,9.7,8,10,8
	s0.5,0.2,0.5,0.5v1.3L11.2,10.5z"/>
</svg>
