<?xml version="1.0" encoding="utf-8"?>
<!-- Generator: Adobe Illustrator 28.0.0, SVG Export Plug-In . SVG Version: 6.00 Build 0)  -->
<svg version="1.1" id="Layer_1" xmlns="http://www.w3.org/2000/svg" xmlns:xlink="http://www.w3.org/1999/xlink" x="0px" y="0px"
	 viewBox="0 0 16 16" style="enable-background:new 0 0 16 16;" xml:space="preserve">
<style type="text/css">
	.st0{fill-rule:evenodd;clip-rule:evenodd;}
</style>
<path class="st0" d="M2.22,9.59c-0.03,0.04-0.07,0.1-0.1,0.17C2.05,9.9,2,10.09,2,10.33V13c0,0.27,0.11,0.52,0.29,0.71
	C2.48,13.89,2.73,14,3,14h3c0,0,0,0,0,0h7.5c0.28,0,0.5-0.22,0.5-0.5c0-0.28-0.22-0.5-0.5-0.5H7.2l7.02-7.11
	c0.05-0.12,0.08-0.25,0.08-0.39c0-0.13-0.03-0.26-0.08-0.39C14.16,4.99,14.09,4.88,14,4.79L11.21,2c-0.09-0.09-0.2-0.17-0.32-0.22
	c-0.12-0.05-0.25-0.08-0.39-0.08c-0.1,0-0.2,0.02-0.24,0.03l-0.15,0.04c-0.09,0.04-0.18,0.1-0.21,0.12L2.22,9.59z M13.29,5.5
	L13.29,5.5l-1.3,1.3L9.15,4.06l1.33-1.33L13.29,5.5z M8.44,4.77l2.85,2.74L5.79,13H3l0.02-2.82L8.44,4.77z"/>
</svg>
