<?xml version="1.0" encoding="utf-8"?>
<!-- Generator: Adobe Illustrator 28.0.0, SVG Export Plug-In . SVG Version: 6.00 Build 0)  -->
<svg version="1.1" id="Layer_1" xmlns="http://www.w3.org/2000/svg" xmlns:xlink="http://www.w3.org/1999/xlink" x="0px" y="0px"
	 viewBox="0 0 16 16" style="enable-background:new 0 0 16 16;" xml:space="preserve">
<style type="text/css">
	.st0{fill-rule:evenodd;clip-rule:evenodd;}
</style>
<path class="st0" d="M4,2C3.72,2,3.5,2.22,3.5,2.5v2H2.83C2,4.5,1.25,5.14,1.25,6v5c0,0.28,0.22,0.5,0.5,0.5H3.5v2.25
	c0,0.28,0.22,0.5,0.5,0.5h8c0.28,0,0.5-0.22,0.5-0.5V11.5h1.75c0.28,0,0.5-0.22,0.5-0.5V6c0-0.86-0.75-1.5-1.58-1.5H12.5v-2
	C12.5,2.22,12.28,2,12,2H4z M2.83,5.5H4h8h1.17c0.36,0,0.58,0.26,0.58,0.5v4.5H12.5v-1C12.5,9.22,12.28,9,12,9H4
	C3.72,9,3.5,9.22,3.5,9.5v1H2.25V6C2.25,5.76,2.48,5.5,2.83,5.5z M4.5,4.5h7V3h-7V4.5z M4.5,10h7v1v2.25h-7V11V10z M12.38,7.25
	c0,0.35-0.28,0.62-0.62,0.62s-0.62-0.28-0.62-0.62s0.28-0.62,0.62-0.62S12.38,6.9,12.38,7.25z"/>
</svg>
