<?xml version="1.0" encoding="utf-8"?>
<!-- Generator: Adobe Illustrator 28.0.0, SVG Export Plug-In . SVG Version: 6.00 Build 0)  -->
<svg version="1.1" id="Layer_1" xmlns="http://www.w3.org/2000/svg" xmlns:xlink="http://www.w3.org/1999/xlink" x="0px" y="0px"
	 viewBox="0 0 16 16" style="enable-background:new 0 0 16 16;" xml:space="preserve">
<style type="text/css">
	.st0{fill-rule:evenodd;clip-rule:evenodd;}
</style>
<path class="st0" d="M8.09,1.06C7.91,1,7.73,1,7.55,1.03l0,0L2.51,2.04C2.27,2.08,2.08,2.27,2.04,2.51L1.03,7.55h0l0,0
	C1,7.73,1,7.91,1.06,8.09C1.11,8.26,1.2,8.42,1.33,8.54l0,0l6.52,6.52c0.1,0.1,0.22,0.18,0.36,0.24c0.13,0.06,0.28,0.09,0.42,0.09
	s0.29-0.03,0.42-0.09c0.13-0.06,0.25-0.14,0.36-0.24l5.65-5.65c0.1-0.1,0.18-0.22,0.24-0.36c0.06-0.13,0.09-0.28,0.09-0.42
	s-0.03-0.29-0.09-0.42c-0.06-0.13-0.14-0.25-0.24-0.36L8.54,1.33l0,0C8.42,1.2,8.26,1.11,8.09,1.06z M14.15,8.63L7.73,2.22
	l-4.6,0.92l-0.92,4.6l6.42,6.42L14.15,8.63z M5.88,5.25c0,0.35-0.28,0.62-0.62,0.62S4.62,5.6,4.62,5.25c0-0.35,0.28-0.62,0.62-0.62
	S5.88,4.9,5.88,5.25z"/>
</svg>
