<?xml version="1.0" encoding="utf-8"?>
<!-- Generator: Adobe Illustrator 28.0.0, SVG Export Plug-In . SVG Version: 6.00 Build 0)  -->
<svg version="1.1" id="Layer_1" xmlns="http://www.w3.org/2000/svg" xmlns:xlink="http://www.w3.org/1999/xlink" x="0px" y="0px"
	 viewBox="0 0 16 16" style="enable-background:new 0 0 16 16;" xml:space="preserve">
<style type="text/css">
	.st0{fill-rule:evenodd;clip-rule:evenodd;}
</style>
<path class="st0" d="M14.94,5.96c0.04,0.3-0.24,0.64-0.34,0.74L12,9.3c-0.1,0.1-0.19,0.16-0.39,0.16c-0.2,0-0.31-0.06-0.41-0.16
	c-0.2-0.2-0.2-0.5,0-0.7L13.8,6L10,2.2L7.6,4.6c-0.2,0.2-0.5,0.2-0.7,0c-0.2-0.2-0.2-0.5,0-0.7l2.4-2.4c0.1-0.1,0.18-0.14,0.3-0.2
	c0.19-0.09,0.6-0.13,0.8-0.03c0.07,0.03,0.2,0.13,0.3,0.23l3.8,3.8C14.55,5.35,14.92,5.7,14.94,5.96z M2.7,2.1
	C2.9,1.9,3.2,2,3.4,2.2l10.2,10.9c0.2,0.2,0.2,0.5,0,0.7c-0.1,0.1-0.2,0.1-0.3,0.1c-0.2,0-0.3-0.1-0.4-0.2l-1.7-1.8
	c-0.17,0.76-0.56,1.38-0.85,1.86c-0.05,0.08-0.13,0.16-0.18,0.23l-0.29,0.3c-0.06,0.07-0.18,0.11-0.34,0.14c0,0-0.23,0.03-0.41-0.03
	c-0.05-0.02-0.2-0.04-0.54-0.31l-3-3l-2.1,2.1c-0.1,0.1-0.23,0.16-0.43,0.16c-0.2,0-0.27-0.06-0.37-0.16c-0.2-0.2-0.2-0.5,0-0.7
	l2.1-2.1l-3-3C1.74,7.34,1.74,7.32,1.69,7.26C1.65,7.22,1.63,7.15,1.6,7.1C1.53,6.97,1.5,6.8,1.5,6.7c0-0.1-0.01-0.27,0.07-0.39
	C1.6,6.24,1.69,6.1,1.8,6c1.1-0.8,2-1,2.9-1l-2-2.2C2.5,2.6,2.5,2.3,2.7,2.1z M5.8,10.1l3.4,3.4c0.4-0.5,1-1.6,0.7-2.6L5.7,6.2
	L5.49,6.1c0,0-1.39-0.6-2.99,0.7L5.8,10.1z"/>
</svg>
