<?xml version="1.0" encoding="utf-8"?>
<!-- Generator: Adobe Illustrator 28.0.0, SVG Export Plug-In . SVG Version: 6.00 Build 0)  -->
<svg version="1.1" id="Layer_1" xmlns="http://www.w3.org/2000/svg" xmlns:xlink="http://www.w3.org/1999/xlink" x="0px" y="0px"
	 viewBox="0 0 16 16" style="enable-background:new 0 0 16 16;" xml:space="preserve">
<style type="text/css">
	.st0{fill-rule:evenodd;clip-rule:evenodd;}
</style>
<path class="st0" d="M10,1.21c-0.13,0-0.26,0.03-0.39,0.08C9.49,1.34,9.38,1.41,9.29,1.5L5.63,5.17L5.6,5.16
	C5.37,5.09,5.06,5.02,4.68,5C3.9,4.97,2.88,5.16,1.85,5.99c-0.11,0.09-0.2,0.2-0.26,0.32c-0.06,0.13-0.1,0.26-0.11,0.4
	C1.47,6.86,1.49,7,1.55,7.13C1.6,7.26,1.67,7.38,1.77,7.48l0,0l3.02,3.02l-2.15,2.15c-0.2,0.2-0.2,0.51,0,0.71
	c0.2,0.2,0.51,0.2,0.71,0l2.15-2.15l3.01,3.01c0.1,0.1,0.22,0.18,0.36,0.23C9,14.5,9.14,14.52,9.29,14.51
	c0.14-0.01,0.28-0.05,0.41-0.12c0.13-0.07,0.24-0.16,0.32-0.28c0.5-0.66,1.41-2.16,0.83-3.75l3.65-3.65
	c0.09-0.09,0.17-0.2,0.22-0.32c0.05-0.12,0.08-0.25,0.08-0.39c0-0.13-0.03-0.26-0.08-0.39c-0.05-0.12-0.13-0.23-0.22-0.32L10.71,1.5
	c-0.09-0.09-0.2-0.17-0.32-0.22C10.26,1.23,10.13,1.21,10,1.21z M4.63,6C4.07,5.98,3.3,6.11,2.48,6.77l0,0l6.74,6.74l0,0
	c0.51-0.68,1.16-1.89,0.58-3.04c-0.1-0.19-0.06-0.43,0.09-0.58l3.9-3.9l0,0L10,2.21l0,0L6.1,6.1C5.95,6.26,5.72,6.29,5.53,6.2
	l-0.01,0c-0.01,0-0.02-0.01-0.04-0.02c-0.04-0.02-0.1-0.04-0.18-0.06C5.15,6.07,4.91,6.02,4.63,6z"/>
</svg>
