<?xml version="1.0" encoding="utf-8"?>
<!-- Generator: Adobe Illustrator 28.0.0, SVG Export Plug-In . SVG Version: 6.00 Build 0)  -->
<svg version="1.1" id="Layer_1" xmlns="http://www.w3.org/2000/svg" xmlns:xlink="http://www.w3.org/1999/xlink" x="0px" y="0px"
	 viewBox="0 0 16 16" style="enable-background:new 0 0 16 16;" xml:space="preserve">
<style type="text/css">
	.st0{fill-rule:evenodd;clip-rule:evenodd;}
</style>
<path class="st0" d="M3,3C2.45,3,2,3.45,2,4v2.5c0,0.55,0.45,1,1,1h10c0.55,0,1-0.45,1-1V4c0-0.55-0.45-1-1-1H3z M3,4h10v2.5H3V4z
	 M3,8.5c-0.55,0-1,0.45-1,1V12c0,0.55,0.45,1,1,1h10c0.55,0,1-0.45,1-1V9.5c0-0.55-0.45-1-1-1H3z M3,9.5h10V12H3V9.5z"/>
</svg>
