<?xml version="1.0" encoding="utf-8"?>
<!-- Generator: Adobe Illustrator 28.0.0, SVG Export Plug-In . SVG Version: 6.00 Build 0)  -->
<svg version="1.1" id="Layer_1" xmlns="http://www.w3.org/2000/svg" xmlns:xlink="http://www.w3.org/1999/xlink" x="0px" y="0px"
	 viewBox="0 0 16 16" style="enable-background:new 0 0 16 16;" xml:space="preserve">
<style type="text/css">
	.st0{fill-rule:evenodd;clip-rule:evenodd;}
</style>
<path class="st0" d="M6.27,1.38C6.15,1.3,6,1.29,5.86,1.33C4.91,1.64,4.03,2.14,3.29,2.82C3.19,2.91,3.13,3.05,3.13,3.2l0.03,1.7
	C3.06,5.05,2.97,5.2,2.89,5.36L1.4,6.19C1.28,6.26,1.19,6.38,1.16,6.52C0.94,7.5,0.94,8.51,1.16,9.48c0.03,0.14,0.12,0.26,0.25,0.33
	l1.48,0.82c0.08,0.16,0.17,0.32,0.27,0.47l-0.03,1.7c0,0.14,0.06,0.28,0.16,0.38c0.74,0.67,1.62,1.18,2.57,1.48
	c0.14,0.04,0.28,0.03,0.41-0.05l1.46-0.87c0.18,0.01,0.36,0.01,0.54,0l1.46,0.88c0.12,0.07,0.27,0.09,0.41,0.05
	c0.95-0.31,1.83-0.81,2.56-1.49c0.11-0.1,0.17-0.23,0.16-0.38l-0.03-1.7c0.1-0.15,0.19-0.31,0.27-0.47l1.49-0.82
	c0.13-0.07,0.22-0.19,0.25-0.33c0.21-0.98,0.21-1.99-0.01-2.97c-0.03-0.14-0.12-0.26-0.24-0.33l-1.48-0.82
	c-0.08-0.16-0.17-0.32-0.27-0.47l0.03-1.7c0-0.14-0.06-0.28-0.16-0.38c-0.74-0.67-1.62-1.18-2.57-1.48C10,1.29,9.85,1.31,9.72,1.38
	L8.27,2.25c-0.18-0.01-0.36-0.01-0.54,0L6.27,1.38z M4.16,5.04L4.14,3.41C4.67,2.95,5.29,2.6,5.95,2.35l1.39,0.84
	c0.09,0.05,0.19,0.08,0.29,0.07c0.24-0.02,0.48-0.02,0.72,0c0.1,0.01,0.2-0.02,0.29-0.07l1.39-0.83c0.67,0.24,1.28,0.59,1.82,1.05
	l-0.03,1.62c0,0.11,0.03,0.21,0.09,0.29c0.13,0.19,0.25,0.4,0.35,0.61c0.04,0.1,0.12,0.17,0.21,0.22l1.42,0.79
	c0.13,0.69,0.13,1.41,0.01,2.1l-1.42,0.79c-0.09,0.05-0.17,0.13-0.21,0.23c-0.1,0.21-0.22,0.42-0.35,0.61
	c-0.06,0.09-0.09,0.19-0.09,0.29l0.03,1.62c-0.54,0.46-1.16,0.81-1.82,1.06l-1.39-0.84c-0.09-0.05-0.19-0.08-0.29-0.07
	c-0.24,0.02-0.48,0.02-0.72,0c-0.1-0.01-0.2,0.02-0.29,0.07l-1.39,0.83c-0.67-0.24-1.28-0.59-1.82-1.05l0.03-1.62
	c0-0.1-0.03-0.2-0.09-0.29c-0.13-0.2-0.25-0.4-0.35-0.62C3.68,9.97,3.6,9.89,3.51,9.84L2.09,9.05c-0.13-0.69-0.13-1.41-0.01-2.1
	l1.42-0.79C3.6,6.11,3.68,6.03,3.72,5.94c0.1-0.21,0.22-0.42,0.35-0.61C4.13,5.24,4.16,5.14,4.16,5.04z M5.5,8
	c0-1.38,1.12-2.5,2.5-2.5s2.5,1.12,2.5,2.5S9.38,10.5,8,10.5S5.5,9.38,5.5,8z M8,4.5C6.07,4.5,4.5,6.07,4.5,8s1.57,3.5,3.5,3.5
	s3.5-1.57,3.5-3.5S9.93,4.5,8,4.5z"/>
</svg>
