<?xml version="1.0" encoding="utf-8"?>
<!-- Generator: Adobe Illustrator 28.0.0, SVG Export Plug-In . SVG Version: 6.00 Build 0)  -->
<svg version="1.1" id="Layer_1" xmlns="http://www.w3.org/2000/svg" xmlns:xlink="http://www.w3.org/1999/xlink" x="0px" y="0px"
	 viewBox="0 0 16 16" style="enable-background:new 0 0 16 16;" xml:space="preserve">
<style type="text/css">
	.st0{fill-rule:evenodd;clip-rule:evenodd;}
</style>
<path class="st0" d="M9.5,3.5C9.5,2.67,10.17,2,11,2s1.5,0.67,1.5,1.5S11.83,5,11,5c-0.52,0-0.97-0.26-1.24-0.66
	C9.75,4.33,9.75,4.32,9.74,4.31C9.73,4.3,9.73,4.29,9.72,4.28C9.58,4.05,9.5,3.79,9.5,3.5z M11,6c-0.7,0-1.34-0.29-1.79-0.75
	L6.33,7.1C6.44,7.38,6.5,7.68,6.5,8c0,0.32-0.06,0.62-0.17,0.9l2.88,1.85C9.66,10.29,10.3,10,11,10c1.38,0,2.5,1.12,2.5,2.5
	S12.38,15,11,15c-1.38,0-2.5-1.12-2.5-2.5c0-0.32,0.06-0.62,0.17-0.9L5.79,9.75C5.34,10.21,4.7,10.5,4,10.5
	c-1.38,0-2.5-1.12-2.5-2.5S2.62,5.5,4,5.5c0.7,0,1.34,0.29,1.79,0.75L8.67,4.4C8.56,4.12,8.5,3.82,8.5,3.5C8.5,2.12,9.62,1,11,1
	c1.38,0,2.5,1.12,2.5,2.5S12.38,6,11,6z M5.28,8.79C5.27,8.8,5.27,8.8,5.26,8.81c0,0.01-0.01,0.01-0.01,0.02
	C4.98,9.24,4.52,9.5,4,9.5C3.17,9.5,2.5,8.83,2.5,8S3.17,6.5,4,6.5c0.52,0,0.98,0.26,1.25,0.67c0,0.01,0.01,0.01,0.01,0.02
	c0,0.01,0.01,0.02,0.02,0.02C5.42,7.44,5.5,7.71,5.5,8C5.5,8.29,5.42,8.56,5.28,8.79z M9.72,11.72c-0.14,0.23-0.22,0.5-0.22,0.78
	c0,0.83,0.67,1.5,1.5,1.5s1.5-0.67,1.5-1.5S11.83,11,11,11c-0.52,0-0.97,0.26-1.24,0.66c-0.01,0.01-0.01,0.02-0.02,0.03
	C9.73,11.7,9.73,11.71,9.72,11.72z"/>
</svg>
