<?xml version="1.0" encoding="utf-8"?>
<!-- Generator: Adobe Illustrator 28.0.0, SVG Export Plug-In . SVG Version: 6.00 Build 0)  -->
<svg version="1.1" id="Layer_1" xmlns="http://www.w3.org/2000/svg" xmlns:xlink="http://www.w3.org/1999/xlink" x="0px" y="0px"
	 viewBox="0 0 16 16" style="enable-background:new 0 0 16 16;" xml:space="preserve">
<style type="text/css">
	.st0{fill-rule:evenodd;clip-rule:evenodd;}
</style>
<path class="st0" d="M3,1.5c-0.27,0-0.52,0.11-0.71,0.29C2.11,1.98,2,2.23,2,2.5v3.67c0,5.59,4.75,7.44,5.68,7.75
	c0.21,0.07,0.43,0.07,0.64,0C9.25,13.61,14,11.76,14,6.17V2.5c0-0.27-0.11-0.52-0.29-0.71C13.52,1.61,13.27,1.5,13,1.5H3z M3,2.5h10
	v3.67c0,4.89-4.14,6.52-5,6.81c-0.86-0.29-5-1.91-5-6.81V2.5z M11.1,5.86c0.2-0.19,0.21-0.51,0.02-0.71
	c-0.19-0.2-0.51-0.21-0.71-0.02L7.08,8.31L5.6,6.89C5.4,6.7,5.08,6.7,4.89,6.9C4.7,7.1,4.7,7.42,4.9,7.61l1.83,1.75
	c0.19,0.18,0.5,0.18,0.69,0L11.1,5.86z"/>
</svg>
