<?xml version="1.0" encoding="utf-8"?>
<!-- Generator: Adobe Illustrator 28.0.0, SVG Export Plug-In . SVG Version: 6.00 Build 0)  -->
<svg version="1.1" id="Layer_1" xmlns="http://www.w3.org/2000/svg" xmlns:xlink="http://www.w3.org/1999/xlink" x="0px" y="0px"
	 viewBox="0 0 16 16" style="enable-background:new 0 0 16 16;" xml:space="preserve">
<style type="text/css">
	.st0{fill-rule:evenodd;clip-rule:evenodd;}
</style>
<path class="st0" d="M13,2c0.3,0,0.5,0.1,0.7,0.3S14,2.7,14,3v10c0,0.3-0.1,0.5-0.3,0.7S13.3,14,13,14H9.5C9.2,14,9,13.8,9,13.5
	S9.2,13,9.5,13H13V3H9.5C9.2,3,9,2.8,9,2.5S9.2,2,9.5,2H13z M10,8.1C9.99,8.21,9.9,8.3,9.9,8.3L7.2,11c-0.2,0.2-0.5,0.2-0.7,0
	s-0.2-0.5,0-0.7l1.8-1.8H2.5C2.2,8.5,2,8.3,2,8s0.2-0.5,0.5-0.5h5.8L6.5,5.7C6.3,5.5,6.3,5.2,6.5,5S7,4.8,7.2,5l2.7,2.6
	c0.05,0.06,0.11,0.13,0.11,0.26L10,8.1z"/>
</svg>
