<?xml version="1.0" encoding="utf-8"?>
<!-- Generator: Adobe Illustrator 28.0.0, SVG Export Plug-In . SVG Version: 6.00 Build 0)  -->
<svg version="1.1" id="Layer_1" xmlns="http://www.w3.org/2000/svg" xmlns:xlink="http://www.w3.org/1999/xlink" x="0px" y="0px"
	 viewBox="0 0 16 16" style="enable-background:new 0 0 16 16;" xml:space="preserve">
<style type="text/css">
	.st0{fill-rule:evenodd;clip-rule:evenodd;}
</style>
<path class="st0" d="M3,13h3.5C6.8,13,7,13.2,7,13.5S6.8,14,6.5,14H3c-0.3,0-0.5-0.1-0.7-0.3S2,13.3,2,13V3c0-0.3,0.1-0.5,0.3-0.7
	S2.7,2,3,2h3.5C6.8,2,7,2.2,7,2.5S6.8,3,6.5,3H3V13z M14.05,7.93l-0.02,0.17l-0.09,0.16L13.8,8.4L11.2,11c-0.2,0.2-0.5,0.2-0.7,0
	s-0.2-0.5,0-0.7l1.8-1.8H6.5C6.2,8.5,6,8.3,6,8s0.2-0.5,0.5-0.5h5.8l-1.8-1.8c-0.2-0.2-0.2-0.5,0-0.7s0.5-0.2,0.7,0l2.7,2.6
	c0.06,0.07,0.06,0.08,0.09,0.1C14.01,7.73,14.05,7.88,14.05,7.93z"/>
</svg>
