<?xml version="1.0" encoding="utf-8"?>
<!-- Generator: Adobe Illustrator 28.0.0, SVG Export Plug-In . SVG Version: 6.00 Build 0)  -->
<svg version="1.1" id="Layer_1" xmlns="http://www.w3.org/2000/svg" xmlns:xlink="http://www.w3.org/1999/xlink" x="0px" y="0px"
	 viewBox="0 0 16 16" style="enable-background:new 0 0 16 16;" xml:space="preserve">
<style type="text/css">
	.st0{fill-rule:evenodd;clip-rule:evenodd;}
</style>
<path class="st0" d="M1.5,4c0-0.28,0.22-0.5,0.5-0.5h8c0.28,0,0.5,0.22,0.5,0.5S10.28,4.5,10,4.5H2C1.72,4.5,1.5,4.28,1.5,4z
	 M12.6,5.65c-0.2-0.2-0.51-0.2-0.71,0c-0.2,0.2-0.2,0.51,0,0.71l1.15,1.15H2C1.72,7.5,1.5,7.72,1.5,8S1.72,8.5,2,8.5h11.04
	L11.9,9.65c-0.2,0.2-0.2,0.51,0,0.71c0.2,0.2,0.51,0.2,0.71,0l2-2c0.2-0.2,0.2-0.51,0-0.71L12.6,5.65z M2,11.5
	c-0.28,0-0.5,0.22-0.5,0.5s0.22,0.5,0.5,0.5h8c0.28,0,0.5-0.22,0.5-0.5s-0.22-0.5-0.5-0.5H2z"/>
</svg>
