<?xml version="1.0" encoding="utf-8"?>
<!-- Generator: Adobe Illustrator 28.0.0, SVG Export Plug-In . SVG Version: 6.00 Build 0)  -->
<svg version="1.1" id="Layer_1" xmlns="http://www.w3.org/2000/svg" xmlns:xlink="http://www.w3.org/1999/xlink" x="0px" y="0px"
	 viewBox="0 0 16 16" style="enable-background:new 0 0 16 16;" xml:space="preserve">
<style type="text/css">
	.st0{fill-rule:evenodd;clip-rule:evenodd;}
</style>
<path class="st0" d="M8,2c0.28,0,0.5,0.22,0.5,0.5v1.75c0,0.02,0,0.05-0.01,0.07C9.22,4.53,9.75,5.21,9.75,6
	c0,0.79-0.53,1.46-1.25,1.68v5.82C8.5,13.78,8.28,14,8,14s-0.5-0.22-0.5-0.5V7.68C6.78,7.46,6.25,6.79,6.25,6
	c0-0.79,0.53-1.47,1.26-1.68C7.5,4.3,7.5,4.27,7.5,4.25V2.5C7.5,2.22,7.72,2,8,2z M10.75,11c0,0.79,0.53,1.46,1.25,1.68v0.82
	c0,0.28,0.22,0.5,0.5,0.5s0.5-0.22,0.5-0.5v-0.82c0.72-0.22,1.25-0.88,1.25-1.68c0-0.79-0.53-1.47-1.26-1.68C13,9.3,13,9.27,13,9.25
	V2.5C13,2.22,12.78,2,12.5,2S12,2.22,12,2.5v6.75c0,0.02,0,0.05,0.01,0.07C11.28,9.53,10.75,10.21,10.75,11z M3,10.43v3.07
	C3,13.78,3.22,14,3.5,14S4,13.78,4,13.5v-3.07c0.72-0.22,1.25-0.88,1.25-1.68S4.72,7.29,4,7.07V2.5C4,2.22,3.78,2,3.5,2
	S3,2.22,3,2.5v4.57C2.28,7.29,1.75,7.96,1.75,8.75S2.28,10.21,3,10.43z"/>
</svg>
