<?xml version="1.0" encoding="utf-8"?>
<!-- Generator: Adobe Illustrator 28.0.0, SVG Export Plug-In . SVG Version: 6.00 Build 0)  -->
<svg version="1.1" id="Layer_1" xmlns="http://www.w3.org/2000/svg" xmlns:xlink="http://www.w3.org/1999/xlink" x="0px" y="0px"
	 viewBox="0 0 16 16" style="enable-background:new 0 0 16 16;" xml:space="preserve">
<style type="text/css">
	.st0{fill-rule:evenodd;clip-rule:evenodd;}
</style>
<path class="st0" d="M5.5,4c0-0.28,0.22-0.5,0.5-0.5h8c0.28,0,0.5,0.22,0.5,0.5S14.28,4.5,14,4.5H6C5.72,4.5,5.5,4.28,5.5,4z
	 M4.1,6.35c0.2-0.2,0.2-0.51,0-0.71c-0.2-0.2-0.51-0.2-0.71,0l-2,2c-0.2,0.2-0.2,0.51,0,0.71l2,2c0.2,0.2,0.51,0.2,0.71,0
	c0.2-0.2,0.2-0.51,0-0.71L2.96,8.5H14c0.28,0,0.5-0.22,0.5-0.5S14.28,7.5,14,7.5H2.96L4.1,6.35z M6,11.5c-0.28,0-0.5,0.22-0.5,0.5
	s0.22,0.5,0.5,0.5h8c0.28,0,0.5-0.22,0.5-0.5s-0.22-0.5-0.5-0.5H6z"/>
</svg>
