<?xml version="1.0" encoding="utf-8"?>
<!-- Generator: Adobe Illustrator 28.0.0, SVG Export Plug-In . SVG Version: 6.00 Build 0)  -->
<svg version="1.1" id="Layer_1" xmlns="http://www.w3.org/2000/svg" xmlns:xlink="http://www.w3.org/1999/xlink" x="0px" y="0px"
	 viewBox="0 0 16 16" style="enable-background:new 0 0 16 16;" xml:space="preserve">
<style type="text/css">
	.st0{fill-rule:evenodd;clip-rule:evenodd;}
</style>
<path class="st0" d="M8.43,5.75C8.21,6.47,7.54,7,6.75,7S5.29,6.47,5.07,5.75H2.5C2.22,5.75,2,5.53,2,5.25s0.22-0.5,0.5-0.5h2.57
	C5.29,4.03,5.96,3.5,6.75,3.5s1.46,0.53,1.68,1.25h5.07c0.28,0,0.5,0.22,0.5,0.5s-0.22,0.5-0.5,0.5H8.43z M10.75,12.5
	c0.79,0,1.46-0.53,1.68-1.25h1.07c0.28,0,0.5-0.22,0.5-0.5s-0.22-0.5-0.5-0.5h-1.07C12.21,9.53,11.54,9,10.75,9
	c-0.79,0-1.46,0.53-1.68,1.25H2.5c-0.28,0-0.5,0.22-0.5,0.5s0.22,0.5,0.5,0.5h6.57C9.29,11.97,9.96,12.5,10.75,12.5z"/>
</svg>
