<?xml version="1.0" encoding="utf-8"?>
<!-- Generator: Adobe Illustrator 28.0.0, SVG Export Plug-In . SVG Version: 6.00 Build 0)  -->
<svg version="1.1" id="Layer_1" xmlns="http://www.w3.org/2000/svg" xmlns:xlink="http://www.w3.org/1999/xlink" x="0px" y="0px"
	 viewBox="0 0 16 16" style="enable-background:new 0 0 16 16;" xml:space="preserve">
<style type="text/css">
	.st0{fill-rule:evenodd;clip-rule:evenodd;}
</style>
<path class="st0" d="M3,2.5C2.72,2.5,2.5,2.72,2.5,3v4c0,0.28,0.22,0.5,0.5,0.5h4c0.28,0,0.5-0.22,0.5-0.5V3
	c0-0.28-0.22-0.5-0.5-0.5H3z M3.5,6.5v-3h3v3H3.5z M9,2.5C8.72,2.5,8.5,2.72,8.5,3v4c0,0.28,0.22,0.5,0.5,0.5h4
	c0.28,0,0.5-0.22,0.5-0.5V3c0-0.28-0.22-0.5-0.5-0.5H9z M9.5,6.5v-3h3v3H9.5z M2.5,9c0-0.28,0.22-0.5,0.5-0.5h4
	c0.28,0,0.5,0.22,0.5,0.5v4c0,0.28-0.22,0.5-0.5,0.5H3c-0.28,0-0.5-0.22-0.5-0.5V9z M3.5,9.5v3h3v-3H3.5z M9,8.5
	C8.72,8.5,8.5,8.72,8.5,9v4c0,0.28,0.22,0.5,0.5,0.5h4c0.28,0,0.5-0.22,0.5-0.5V9c0-0.28-0.22-0.5-0.5-0.5H9z M9.5,12.5v-3h3v3H9.5z
	"/>
</svg>
