<?xml version="1.0" encoding="utf-8"?>
<!-- Generator: Adobe Illustrator 28.0.0, SVG Export Plug-In . SVG Version: 6.00 Build 0)  -->
<svg version="1.1" id="Layer_1" xmlns="http://www.w3.org/2000/svg" xmlns:xlink="http://www.w3.org/1999/xlink" x="0px" y="0px"
	 viewBox="0 0 16 16" style="enable-background:new 0 0 16 16;" xml:space="preserve">
<style type="text/css">
	.st0{fill-rule:evenodd;clip-rule:evenodd;}
</style>
<path class="st0" d="M6.5,1C6.22,1,6,1.22,6,1.5S6.22,2,6.5,2h3C9.78,2,10,1.78,10,1.5S9.78,1,9.5,1H6.5z M8,4C5.24,4,3,6.24,3,9
	c0,2.76,2.24,5,5,5c2.76,0,5-2.24,5-5C13,6.24,10.76,4,8,4z M2,9c0-3.31,2.69-6,6-6c3.31,0,6,2.69,6,6c0,3.31-2.69,6-6,6
	C4.69,15,2,12.31,2,9z M10.83,6.17c0.2,0.2,0.2,0.51,0,0.71L8.35,9.35c-0.2,0.2-0.51,0.2-0.71,0c-0.2-0.2-0.2-0.51,0-0.71l2.47-2.47
	C10.32,5.98,10.63,5.98,10.83,6.17z"/>
</svg>
