<?xml version="1.0" encoding="UTF-8"?><svg id="Layer_1" xmlns="http://www.w3.org/2000/svg" viewBox="0 0 80 80"><path d="m71.7033,16.9191c-1.6485.5577-2.7071,1.4483-3.0473,1.75-.8126.7205-1.2482,1.3803-1.8944,2.375,0,0-2.2942,3.5316-3.2186,7.9011-.1472.6959-.1864,1.3445-.1864,1.3447-.0325.4199-.014.7513-.006.9146.0175.3584.0563.6747.0999.9393,1.8569-.579,3.3355-.7659,4.0282-.7367.7257.0306,1.3246.2057,1.3248.2057.1787.0522.3578.1153.538.1905-.4116.0806-.8223.1707-1.2353.2405-1.2303.2751-2.9444.7665-4.6806,1.6406-1.1169.6123-2.1845,1.3683-3.2041,2.2568-.6182.5387-1.1787,1.1262-1.6717,1.7687-.1614.2261-.3165.4605-.4633.704-1.2061,1.9987-1.7661,4.3908-1.7711,5.5769.0132.2535.0601.4943.1562.7313.1039.1627.3173.4915.616.967.5299.7735.9792,1.6157,1.2124,2.5859.0028.0112.0055.0222.0083.0334.0139.0587.0264.1183.0384.178.0068.0332.0136.0658.0199.0997.0391.2101.069.4255.0865.6481.0304.3925.0045.7915-.0509,1.1939-.0035-.0421-.0092-.0827-.0132-.1243-.0007.0048-.0014.0104-.0023.015-.1974-2.3196-2.3847-4.8503-2.3847-4.8503-1.1044-1.1772-2.0803-2.0681-2.8018-2.6887-1.3938-1.1988-2.5686-2.0168-3.7521-2.8408-.8954-.6234-1.653-1.1171-2.196-1.4625-.007-.0018-.0133-.0045-.0205-.0062.4291.8542.858,1.7084,1.2872,2.5626-.0062.0057-.0122.0113-.0183.017.0062.0122.0122.0244.0183.0366l-.1373.1267-4.4351-6.4892c-.1447.35-.3569.8478-.6321,1.438-.1383.3324-.2729.663-.398.9974-.0047.0128-.0064.0282-.0077.044,0,.0281.0023.0566.006.0865.0211.1124.086.2516.1539.3541.1377.1809.3781.4097.7808.9072.1962.2421.5066.626.4787.6666-.0255.0372-.3452-.199-1.6829-1.4514-.2797.8955-.707,2.1249-1.3405,3.5285-.2233.4948-.3964.8434-.4354.9225-.0284.0746-.0571.1493-.0852.2241-.088.3104-.1067.748-.0332,1.3474.8386,2.4778,1.6944,4.947,2.5568,7.4128.4001,1.1441.739,2.0734,1.0345,2.8395.4009.9072.8413,1.8788,1.323,2.9176.5837.9887,1.0811,1.3771,1.9616,2.5038,1.5005,1.9204,3.4425,3.7386,3.903,4.1648.637.5894,1.1995,1.0705,1.641,1.4349,1.2645.7701,2.4123,1.0936,3.3494.8667.134-.0381.2652-.0825.3917-.1326.0162-.0071.0334-.0123.0493-.0199.0016-.0006.0028-.0012.0042-.0017.3587-.1702.9878-.5842,1.6852-1.0984.1731-.1583.2938-.2851.3496-.3452,1.9413-1.5435,3.0566-2.6029,3.8679-3.6013.3096-.3945.5725-.7641.7918-1.0905.1602-.2384.4647-.7828.6967-1.5115.3701-1.1624.3414-2.2411.3192-2.8845-.0255-.7399-.1209-1.2689-.0107-1.3.1059-.0299.322.4232.4366.7114.6153,1.5452.021,2.6138.4254,2.9418.6532.5296,3.0205-1.5943,3.1892-1.7473.6607-.5989,1.576-1.5516,3.1577-3.9943.9238-1.4266.6052-1.0942,2.8824-5.0768.7093-1.2405,1.5486-2.6862,2.0557-4.7142.2672-1.0683.3083-1.7631,0-2.3533-.3628-.6948-1.3422-1.5008-1.5339-1.6429-.0027-.002-.0049-.0037-.0066-.0049-.2116-.1406-.4282-.2708-.6464-.3918-.3833-.2122-.79-.3612-1.1866-.5379-.0022-.0597-.0042-.1193-.0062-.179.3536-.068.8729-.136,1.4979-.098.0259.0015.3758.0141.569.0432,1.2103.1824,1.6627,1.812,2.1245,1.794.7496-.0292,1.4578-4.3996,1.368-10.5657-.036-2.4703-.2237-6.8535-2.2295-9.7573-.9466-1.3704-1.8199-1.7188-2.3034-1.8408-.9188-.2319-1.7023.0332-2.756.3897Zm.9436,18.9472c-.6807.3351-1.1726.9061-1.4957,1.7099-.7538,1.8753-1.4884,3.7632-2.2838,5.6124-1.0719,2.4922-2.6542,4.411-4.6667,5.7851-1.0621.7251-1.8997.8899-2.9556.6825,4.1458-2.0508,6.2624-6.2143,8.0082-10.7514.6564-1.706.7516-3.5509.4585-5.4988.9783.5811,1.1759,1.5736,1.1375,2.8325.9833-.6445,1.8846-1.1759,3.0754-1.0128-.5107.2563-.8933.4513-1.2779.6406Z" style="fill:#cbcbcb; stroke-width:0px;"/><path d="m49.9617,20.929c-.0503-.2255-.1155-.4063-.1155-.4063-.0791-.2133-.1279-.2317-.1972-.7514-.1911-1.4288-.6957-1.7084-.7191-1.7277-.2083-.0081-.8324-.7268-.864-.7671-.3332-.2241-.9837-1.9421-.9944-1.9628-.3284-.7034-.7833-1.0678-.7985-1.0787-.7774-.5219-1.5614.0906-1.5614.0906,0,0,.9375.8662.914.8413.7813.7128.4815,1.2825.4752,1.3002-.0563.3967-1.0327,1.1163-1.0327,1.1163.7147,1.0609.7399,2.3036.7399,2.3036l.2098,2.2972c.1296,1.3336-.4612,1.6738-.44,1.6526-.3274.1626-.2908.6796-.2929.7256-.0383.7983-.2315,1.0624-.2795,1.1384-.4381.5984-1.0996.4076-1.0996.4076.0147.6013-.4617,1.2061-.7601,1.4553-.2982.2492-1.642-.3082-1.642-.3082,0,0-.4257.6023-.9757.9451-.5498.3428-1.6938-.3887-1.6938-.3887,0,0-.4048,1.7468-.4103,1.7629-.6686,2.8266-7.0043,8.7608-7.0043,8.7608l-6.374,5.5057c-1.3321.6571-1.6581,4.2121-1.6581,4.2121-.7367-1.3379.0192-3.8914.0187-3.8812-.2378-6.3436-5.4627-9.3173-5.6032-9.422-1.6448-1.2184-1.5423-3.5331-1.5274-3.7862.0002-.003.0005-.0054.0005-.0074,0-.0001.0005-.0075.0007-.0152.3161-8.5014-5.076-12.7644-5.0761-12.7645-.9933-.7853-3.1243-2.47-5.2659-1.834-1.294.3843-1.9965,1.4392-2.7042,2.5019-2.3071,3.4643-2.2227,7.9059-1.0582,8.5549.1209.0674.3732.2111,1.1025.5253.2698.1162.6108.284,1.0634.5572.5649.3408,1.0765.6496,1.6048,1.1469.7465.7026,1.2375,1.5833,2.2195,3.3447.4293.7703.6829,1.2587,1.256,1.7392.4408.3696.927.6003,1.1825.7196.6357.2973,1.1388.4097,1.3053.4498,1.1757.2835,3.0184,1.1718,4.4421,2.7034.3592.3863.8615.9963,1.3597,1.8863-.0617.0196-.0829.0342-.09.0273-2.3582-2.2869-5.165-3.1989-8.0464-3.875-.4331-.1015-.8288-.2462-1.1254-.6016-.1635-.1958-.243-.3896-.2694-.4504-.3261-.75-1.2469-1.8698-1.9359-2.6886-1.5408-1.8312-3.3486-3.9797-4.3831-3.5576-.7517.3067-.804,1.8518-.8509,3.7949-.0946,3.9321.7461,6.9325.9785,7.7221.8986,3.0543,2.0459,5.1731,2.977,6.8691,1.5076,2.7456,3.4283,6.2446,6.5784,8.8252.4899.4014,1.6021,1.2662,3.3739,2.7653,1.1429.967,2.0665,1.7803,2.677,2.3245.9688.9842,3.0305,2.8866,5.5911,3.7649,1.9276.6611,2.8387.2963,3.2192.094.3903-.2074.6627-.4777.8348-.6798,1.2861-1.1533,2.8085-2.7226,4.332-4.7999,1.6066-2.1909,2.7559-4.322,3.5663-6.0789l1.5289-3.6893,4.5334-11.2798s2.3286-5.3575,2.2948-5.3744c.4252-.8856,2.1039-2.5278,2.1039-2.5278,0,0,.9214-.7483,1.924-1.605,1.0023-.8567,2.4654-3.1705,2.4654-3.1705.0633-2.9521.0319-5.1007-.0242-5.3517Zm-20.0355,36.8261c2.7766-3.0534,4.7489-6.833,6.5876-10.7238-1.043,4.6307-3.0627,8.3622-6.5876,10.7238Zm15.2194-27.2946c1.488-1.4889,2.8277-3.1482,3.8517-5.1582-.472,2.6035-1.88,4.1855-3.8517,5.1582Z" style="fill:#cbcbcb; stroke-width:0px;"/><path d="m45.1688,20.5257c-.3182.3174-.5164.515-.7086.7067.3023.0904.6142.0692.7434.2458.2822.3855.1776,1.0847-.2128,1.6239-.2278-.5441-.4599-1.0375-.6445-1.556-.1903-.5346-.3192-1.1011-.5021-1.6401-.2921-.8605-.7862-1.4853-1.4662-1.9422-.5428-.3648-1.043-.8312-1.5382-1.2906-.4104-.3807-.7893-.8079-1.5158-.7356.1842.3428.2879.6444.4672.847.378.4268.7973.799,1.1966,1.1982,1.2192,1.2189,2.1168,2.7442,2.796,4.3187-.2117.4186-.3985.7878-.5853,1.1571.0588.0723.1176.1447.1764.217.142-.5647.389-.8257.7912-.4804.4419.3793.6554,1.2764.4062,1.6718-.2748.4361-.625.3226-.8622.0099-.46-.6064-.8488-1.2916-1.288-1.9227-.7486-1.0758-1.4667-2.1917-2.2849-3.1843-.7392-.8968-1.6847-1.4361-2.9023-1.7477.1935.3366.2813.5948.4389.7437.4511.4261.9148.8391,1.4017,1.2011,1.3137.9768,2.214,2.4126,3.0363,3.9433-.6907.5022-.7696.9877-.2393,1.615-.0077-.2001-.0751-.4332-.0079-.5348.1262-.1909.4633-.4545.4817-.4301.2938.3896.7126.7851.7806,1.2491.1169.797-.4113,1.1827-.9943.7398-.7146-.5429-1.3874-1.183-2.0242-1.8567-.5695-.6024-1.0581-1.3168-1.5961-1.9649-.6964-.8389-1.5717-1.2339-2.5173-1.4293-.1538-.0318-.3158-.0045-.4741-.0045-.0309.0663-.0617.1326-.0926.1989.1815.2067.3349.5184.549.6032,1.5646.6194,2.6597,1.9679,3.6878,3.4346-.0745.2488-.1545.5157-.2345.7826l.0832.1584c.3289-.6966.6558-.5496.9591-.0992.0918.1363.2141.4144.1712.479-.1134.1707-.3294.3886-.4689.3568-.3726-.085-.7503-.2384-1.083-.4601-.7118-.4742-1.4034-.9954-2.0905-1.5219-.7486-.5736-1.5085-.2762-2.3752-.1898.5496.9703,1.456.4357,2.0683,1.0574-.4288.3832-.83.7416-1.2311,1.1.0297.0691.0595.1383.0892.2074.5851-.2677,1.1703-.5353,1.8207-.8329q.7253.4944.4746,1.6084c-.3493,1.5338-1.1198,2.7489-1.9849,3.9782-1.3318-2.1199-2.5821-4.1946-3.2195-6.7171-.3408-1.3487-.1244-2.4766.7733-3.3935.1554-.1587.2917-.3454.4487-.5015.4864-.4837.7481-1.0807.7412-1.8658-.008-.9059.2664-1.5727,1.0337-1.933.3036-.1426.5588-.5765.7371-.948.4586-.9556,1.0417-1.58,2.0097-1.6219.3244-.014.6668-.2503.9555-.4725.6199-.477,1.2521-.5374,1.8032.024,1.0738,1.0936,2.1676,2.1826,3.1086,3.4343.4769.6345.6389,1.6192.9138,2.3656Z" style="fill:#cbcbcb; stroke-width:0px;"/><path d="m43.365,15.5453c.6751-.506,1.3064-.3465,1.9202.1291.32.2479.2918.5287.0309.8084-.3428.3675-.8069.3489-1.1639-.0329-.2473-.2644-.4984-.5237-.7467-.7867-.012-.0127-.0141-.0392-.0404-.1179Z" style="fill:#cbcbcb; stroke-width:0px;"/><path d="m43.2625,14.7496c-.5376.4434-.8153.3213-1.3545-.5956.5278-.3106.8466-.1704,1.3545.5956Z" style="fill:#cbcbcb; stroke-width:0px;"/><path d="m61.2452,49.6562s3.4544-1.3915,5.9636-6.1921l1.51-3.216c.2668-.5735.8851-2.0077,1.0731-3.693.0451-.4046.108-.9685.0643-1.7086,0,0-.0128-.2166-.1443-1.4405.1124.0616.268.1628.4286.3261.3646.3708.5265.8297.5943,1.0814.1798.6676.1145,1.4249.1145,1.4249.1831-.1287.4346-.2938.7432-.4618.2806-.1528.5914-.322.9722-.4366.3025-.0911.7675-.1832,1.36-.1144-.2403.1181-.5869.2903-1.0062.5059-.3989.2051-.5009.2629-.6143.3419,0,0-.4787.3337-.8888.9651-.7309,1.1254-1.6954,4.1956-2.4869,6.0074-.9822,2.2485-2.1552,3.6056-2.5262,4.0171-.9847,1.0923-1.9561,1.7762-2.6543,2.1933,0,0-1.2445.7436-2.5029.3999Z" style="fill:none; stroke-width:0px;"/><rect width="80" height="80" style="fill:none; stroke-width:0px;"/></svg>