<?xml version="1.0" encoding="utf-8"?>
<!-- Generator: Adobe Illustrator 28.0.0, SVG Export Plug-In . SVG Version: 6.00 Build 0)  -->
<svg version="1.1" id="Layer_1" xmlns="http://www.w3.org/2000/svg" xmlns:xlink="http://www.w3.org/1999/xlink" x="0px" y="0px"
	 viewBox="0 0 16 16" style="enable-background:new 0 0 16 16;" xml:space="preserve">
<style type="text/css">
	.st0{fill-rule:evenodd;clip-rule:evenodd;}
</style>
<path class="st0" d="M6.5,1C6.1,1,5.72,1.16,5.44,1.44S5,2.1,5,2.5V3H3.5h-1C2.22,3,2,3.22,2,3.5S2.22,4,2.5,4H3v9
	c0,0.27,0.11,0.52,0.29,0.71C3.48,13.89,3.73,14,4,14h8c0.27,0,0.52-0.11,0.71-0.29S13,13.27,13,13V4h0.5C13.78,4,14,3.78,14,3.5
	S13.78,3,13.5,3h-1H11V2.5c0-0.4-0.16-0.78-0.44-1.06C10.28,1.16,9.9,1,9.5,1H6.5z M10,3V2.5c0-0.13-0.05-0.26-0.15-0.35
	C9.76,2.05,9.63,2,9.5,2h-3C6.37,2,6.24,2.05,6.15,2.15C6.05,2.24,6,2.37,6,2.5V3H10z M5.5,4H4v9h8V4h-1.5H5.5z M6.5,6
	C6.78,6,7,6.22,7,6.5v4C7,10.78,6.78,11,6.5,11S6,10.78,6,10.5v-4C6,6.22,6.22,6,6.5,6z M10,10.5v-4C10,6.22,9.78,6,9.5,6
	S9,6.22,9,6.5v4C9,10.78,9.22,11,9.5,11S10,10.78,10,10.5z"/>
</svg>
