<?xml version="1.0" encoding="utf-8"?>
<!-- Generator: Adobe Illustrator 28.0.0, SVG Export Plug-In . SVG Version: 6.00 Build 0)  -->
<svg version="1.1" id="Layer_1" xmlns="http://www.w3.org/2000/svg" xmlns:xlink="http://www.w3.org/1999/xlink" x="0px" y="0px"
	 viewBox="0 0 16 16" style="enable-background:new 0 0 16 16;" xml:space="preserve">
<style type="text/css">
	.st0{fill-rule:evenodd;clip-rule:evenodd;}
</style>
<path class="st0" d="M4.75,6.25C4.75,4.46,6.21,3,8,3c1.79,0,3.25,1.46,3.25,3.25c0,1.77-1.42,3.21-3.18,3.25c-0.02,0-0.04,0-0.07,0
	c-0.02,0-0.04,0-0.07,0C6.17,9.46,4.75,8.02,4.75,6.25z M5.74,9.85C4.55,9.1,3.75,7.77,3.75,6.25C3.75,3.9,5.66,2,8,2
	c2.35,0,4.25,1.9,4.25,4.25c0,1.52-0.79,2.85-1.99,3.6c0.31,0.1,0.61,0.22,0.91,0.35c0.99,0.46,1.87,1.14,2.58,1.98
	c0.18,0.21,0.15,0.53-0.06,0.7c-0.21,0.18-0.53,0.15-0.7-0.06c-0.61-0.73-1.37-1.31-2.23-1.71C9.91,10.72,9,10.51,8.07,10.5
	c-0.02,0-0.05,0-0.07,0c-0.02,0-0.05,0-0.07,0c-0.92,0.01-1.84,0.22-2.68,0.61c-0.86,0.4-1.62,0.99-2.23,1.71
	c-0.18,0.21-0.49,0.24-0.7,0.06c-0.21-0.18-0.24-0.49-0.06-0.7c0.7-0.84,1.58-1.51,2.58-1.98C5.13,10.06,5.43,9.95,5.74,9.85z"/>
</svg>
