<?xml version="1.0" encoding="utf-8"?>
<!-- Generator: Adobe Illustrator 28.0.0, SVG Export Plug-In . SVG Version: 6.00 Build 0)  -->
<svg version="1.1" id="Layer_1" xmlns="http://www.w3.org/2000/svg" xmlns:xlink="http://www.w3.org/1999/xlink" x="0px" y="0px"
	 viewBox="0 0 16 16" style="enable-background:new 0 0 16 16;" xml:space="preserve">
<style type="text/css">
	.st0{fill-rule:evenodd;clip-rule:evenodd;}
</style>
<path class="st0" d="M4.69,4.5c-1.1,0-2,0.9-2,2c0,1.05,0.82,1.92,1.85,1.99c0.05,0,0.1,0,0.15,0c0.05,0,0.1,0,0.15,0
	C5.87,8.42,6.69,7.55,6.69,6.5C6.69,5.4,5.79,4.5,4.69,4.5z M6.51,8.88C7.23,8.33,7.69,7.47,7.69,6.5c0-1.66-1.34-3-3-3s-3,1.34-3,3
	c0,0.97,0.46,1.83,1.17,2.38C2.53,9.03,2.22,9.21,1.93,9.44c-0.79,0.61-1.35,1.47-1.6,2.44c-0.07,0.27,0.09,0.54,0.36,0.61
	c0.27,0.07,0.54-0.09,0.61-0.36c0.19-0.75,0.63-1.42,1.24-1.9c0.57-0.44,1.27-0.7,1.99-0.73c0.05,0,0.11,0,0.16,0s0.11,0,0.16,0
	c0.72,0.03,1.41,0.29,1.99,0.73c0.61,0.48,1.05,1.14,1.24,1.9c0.07,0.27,0.34,0.43,0.61,0.36c0.27-0.07,0.43-0.34,0.36-0.61
	c-0.25-0.97-0.81-1.83-1.6-2.44C7.16,9.21,6.84,9.03,6.51,8.88z M8.69,5c0-0.28,0.22-0.5,0.5-0.5h6c0.28,0,0.5,0.22,0.5,0.5
	s-0.22,0.5-0.5,0.5h-6C8.91,5.5,8.69,5.28,8.69,5z M9.19,7.5c-0.28,0-0.5,0.22-0.5,0.5c0,0.28,0.22,0.5,0.5,0.5h6
	c0.28,0,0.5-0.22,0.5-0.5c0-0.28-0.22-0.5-0.5-0.5H9.19z M10.19,11c0-0.28,0.22-0.5,0.5-0.5h4.5c0.28,0,0.5,0.22,0.5,0.5
	s-0.22,0.5-0.5,0.5h-4.5C10.41,11.5,10.19,11.28,10.19,11z"/>
</svg>
