<?xml version="1.0" encoding="utf-8"?>
<!-- Generator: Adobe Illustrator 28.0.0, SVG Export Plug-In . SVG Version: 6.00 Build 0)  -->
<svg version="1.1" id="Layer_1" xmlns="http://www.w3.org/2000/svg" xmlns:xlink="http://www.w3.org/1999/xlink" x="0px" y="0px"
	 viewBox="0 0 16 16" style="enable-background:new 0 0 16 16;" xml:space="preserve">
<style type="text/css">
	.st0{fill-rule:evenodd;clip-rule:evenodd;}
</style>
<path class="st0" d="M8,2.5C4.96,2.5,2.5,4.96,2.5,8c0,3.04,2.46,5.5,5.5,5.5c3.04,0,5.5-2.46,5.5-5.5C13.5,4.96,11.04,2.5,8,2.5z
	 M1.5,8c0-3.59,2.91-6.5,6.5-6.5c3.59,0,6.5,2.91,6.5,6.5c0,3.59-2.91,6.5-6.5,6.5C4.41,14.5,1.5,11.59,1.5,8z M8,4.5
	c0.28,0,0.5,0.22,0.5,0.5v3.5C8.5,8.78,8.28,9,8,9S7.5,8.78,7.5,8.5V5C7.5,4.72,7.72,4.5,8,4.5z M8.62,10.75
	c0,0.35-0.28,0.62-0.62,0.62c-0.35,0-0.62-0.28-0.62-0.62S7.65,10.12,8,10.12C8.35,10.12,8.62,10.4,8.62,10.75z"/>
</svg>
