<?xml version="1.0" encoding="utf-8"?>
<!-- Generator: Adobe Illustrator 28.0.0, SVG Export Plug-In . SVG Version: 6.00 Build 0)  -->
<svg version="1.1" id="Layer_1" xmlns="http://www.w3.org/2000/svg" xmlns:xlink="http://www.w3.org/1999/xlink" x="0px" y="0px"
	 viewBox="0 0 16 16" style="enable-background:new 0 0 16 16;" xml:space="preserve">
<style type="text/css">
	.st0{fill-rule:evenodd;clip-rule:evenodd;}
</style>
<path class="st0" d="M7.25,1.7C7.48,1.57,7.74,1.5,8,1.5c0.26,0,0.52,0.07,0.75,0.2C8.98,1.83,9.17,2.02,9.3,2.25l0,0l5.5,9.5
	c0.13,0.23,0.2,0.49,0.2,0.75c0,0.26-0.07,0.52-0.2,0.75c-0.13,0.23-0.32,0.42-0.55,0.55c-0.23,0.13-0.49,0.2-0.75,0.2h0h-11h0
	c-0.26,0-0.52-0.07-0.75-0.2c-0.23-0.13-0.42-0.32-0.55-0.55C1.07,13.02,1,12.76,1,12.5c0-0.26,0.07-0.52,0.2-0.75l5.5-9.5l0,0
	C6.84,2.02,7.02,1.83,7.25,1.7z M7.14,2.5l0.43,0.25l-5.5,9.5C2.03,12.33,2,12.41,2,12.5c0,0.09,0.02,0.17,0.07,0.25
	c0.04,0.08,0.11,0.14,0.18,0.18C2.33,12.98,2.41,13,2.5,13h11c0.09,0,0.17-0.02,0.25-0.07c0.08-0.04,0.14-0.11,0.18-0.18
	C13.97,12.67,14,12.59,14,12.5c0-0.09-0.02-0.17-0.07-0.25l-5.5-9.5C8.39,2.67,8.32,2.61,8.25,2.57C8.17,2.52,8.09,2.5,8,2.5
	c-0.09,0-0.17,0.02-0.25,0.07C7.68,2.61,7.62,2.67,7.57,2.75L7.14,2.5z M8,11.88c0.35,0,0.62-0.28,0.62-0.62S8.35,10.62,8,10.62
	c-0.35,0-0.62,0.28-0.62,0.62S7.65,11.88,8,11.88z M8.5,6.5C8.5,6.22,8.28,6,8,6S7.5,6.22,7.5,6.5V9c0,0.28,0.22,0.5,0.5,0.5
	S8.5,9.28,8.5,9V6.5z"/>
</svg>
