<?xml version="1.0" encoding="UTF-8"?><svg id="a" xmlns="http://www.w3.org/2000/svg" viewBox="0 0 1024 1024"><defs><style>.b{fill:#fff;fill-rule:evenodd;}</style></defs><path class="b" d="M312.93,181.53h238.51c38.55,.5,72.84,14.84,99.48,43.46,9.77,10.32,17.06,21.65,22.8,31.08l2.62,4.11,.02,.03c8.48,13.28,16.62,27.16,24.4,41.64,31,1.59,58.97,11.35,83.2,29.77l.65,.49,.87,.74c3.14,2.67,6.91,5.87,10.79,9.55,2.04,1.66,3.46,3.16,4.18,3.93l.7,.76,.31,.34,.08,.08,.27,.28c10.92,11.17,19.11,23.53,25.66,33.98l2.99,4.56c18.68,28.39,35.28,58.85,51.6,92.84l.09,.19c15.44,32.74,28.72,65.83,38.78,98.77,5.87,17.64,10.2,35.03,13.94,52.3l.07,.3c1.41,6.85,2.48,14.63,3.36,20.99h0v.07c.37,2.62,.7,4.99,1,6.95l.08,.48,.94,7.78c2.14,15.78,2.08,30.67,.66,47.66-1.18,31.03-9.44,58.41-27.07,81.44-14.16,18.53-33.14,32.15-56.89,38.88-14.48,4.31-29.14,6.5-44.33,6.5-9.5,0-19.04-1.13-27.53-2.67-20.56-3.56-39.39-12.21-57.23-23.93l-.28-.19-.28-.2c-18.16-12.54-33.96-27.94-47.2-40.84l-3.55-3.46-.39-.38-12.58-12.69c-13.36-13.84-26.3-26.29-40.26-36.08-13.93-9.78-26.21-15.28-37.81-17.79l-.43-.09c-6.77-1.56-14.42-2.33-23.74-2.33h-2.28c-1.87,0-4.12,.04-6.61,.08h0c-5.97,.1-13.31,.22-19.97-.1-10.96-.22-22.64,2.44-38.08,10.66l-.08,.04c-17.03,8.99-31.83,22-45.46,35.24l-5.29,4.99-5.54,5.53c-12.51,12.16-26.36,25.6-40.83,37.79l-.21,.17c-24.1,19.92-47.98,32.85-74.83,38.52l-.33,.07-.33,.06c-16.85,3.17-33.41,3.84-49.42,1.54l-.59-.08-.59-.11-1.58-.29c-8.87-1.63-21.09-3.88-33.52-8.81-22.13-8.62-39.86-23.57-52.7-44.3-9.94-15.74-14.5-31.99-17.1-44.12l-.05-.24c-1.5-7.28-2.54-14.6-3.13-21.94-.66-3.91-.68-7.24-.67-8.72-.47-11.09,.06-22.33,.49-31.62l.02-.33,.02-.33c.19-2.72,.41-5.48,.67-8.28-1.4-.25-2.79-.6-4.17-1.06h-.05l-.34-.12c-.34-.1-1-.31-1.71-.54-.37-.12-.78-.26-1.24-.43-1.92-.47-3.47-1.02-4.55-1.43-.58-.22-1.07-.43-1.39-.56l-.83-.33c-20.36-8.14-36.51-22.23-48.1-41.48-8.85-14.43-12.93-29.24-15.25-40.26-4.92-20.98-3.89-41.37-3.13-56.62l.05-1,.02-.5c.89-13.38,2.69-27.67,6.63-45.22,4.28-20.08,9.79-39.09,15.58-56.87l.06-.2c8.35-25.04,18.35-50.45,30-75.83l.05-.12c10.83-23.32,22.9-46.21,36.2-68.66,7.87-13.26,19.51-31.85,33.58-49.45l.35-.44,.37-.43c10.99-12.73,24.74-22.22,41.1-29.92,19.85-9.4,41.63-13.71,66.28-13.27Zm312.84,110.95c1.92,3.01,3.83,6.05,5.72,9.14h-210.67c-27.33-.96-51.33,3.8-73.37,13.68l-.2,.09c-18.05,8.25-33.57,18.54-45.49,32.68-16.46,19.4-29.67,39.89-38.6,54.49-15.24,24.53-28.94,50.26-41.14,75.78l-.06,.12c-13.22,27.97-24.56,55.98-34.03,83.57l-.07,.2c-4.75,14.16-9.32,29.01-13.32,44.49l-3.21-1.61h-2.12c-6.61-3.11-12.14-8-16.84-15.83l-.18-.29c-3.78-6.15-6.09-13.49-7.78-21.6l-.09-.42-.1-.42c-2.84-11.94-2.45-24.48-1.63-40.9,.71-10.51,2.11-21.71,5.32-35.97l.07-.34c3.71-17.42,8.57-34.32,13.95-50.85,7.64-22.91,16.82-46.25,27.54-69.61,9.96-21.45,21.08-42.54,33.37-63.27,7.24-12.2,17.08-27.8,28.43-42.07,4.19-4.74,10.39-9.52,20.94-14.49l.07-.03c10.46-4.96,22.97-7.84,39.78-7.52h238.77c22.91,.34,41.31,8.36,56.22,24.42l.24,.25c5.28,5.56,9.92,12.45,15.32,21.34l.16,.26,2.96,4.65,.03,.05Zm-253.68,77.53c-12.82,5.87-20.03,11.48-24.48,16.76l-.08,.09c-13.53,15.93-24.87,33.41-33.23,47.09l-.12,.19c-13.86,22.3-26.54,46.05-37.99,70.01-12.25,25.93-22.74,51.83-31.46,77.26-6.14,18.34-11.71,37.12-15.95,56.49l-.08,.35c-3.68,15.88-5.29,28.36-6.11,40.08-.46,9.8-.81,18.48-.44,26.5l.03,.7v.44l.2,.76,.19,2.75c.36,5.23,1.08,10.49,2.16,15.79,1.94,9.02,4.64,17.44,9.19,24.62l.18,.29c6.25,10.12,13.94,16.34,23.58,20.09l.21,.08c6.66,2.65,13.54,3.97,23.33,5.78,8.35,1.14,17.92,.9,28.91-1.13,14.9-3.21,30.05-10.61,48.57-25.9,12.67-10.67,25.07-22.7,37.92-35.19,.38-.36,.97-.97,1.73-1.73h0c2.31-2.34,6.06-6.14,9.35-9.04,14.53-14.08,34.1-31.7,58.59-44.64,22.62-12.03,44.56-18.24,68.09-17.64h27c12.45-.01,24.76,.99,37.04,3.81,21.1,4.59,40.62,14.1,59.4,27.28,18.76,13.16,34.9,28.96,48.82,43.38l11.96,12.04,2.79,2.72c13.86,13.48,26.07,25.36,39.76,34.86,12.94,8.47,24.03,13.02,34.28,14.78l.31,.05c6.04,1.1,11.92,1.73,16.93,1.73,9.31,0,18.26-1.32,27.37-4.05l.47-.14c10.72-3.02,18.98-8.82,25.71-17.63,8.63-11.28,14.06-26.12,14.8-47.84l.02-.77,.07-.76c1.24-14.45,1.14-24.94-.29-35.38l-.06-.47-.85-7.04c-.6-3.88-1.04-7.16-1.44-10.13v-.02h0c-.7-5.12-1.27-9.35-2.28-14.28-3.5-16.16-7.33-31.32-12.3-46.23l-.13-.38-.12-.38c-9.04-29.71-21.2-60.15-35.72-90.94-15.52-32.3-30.79-60.21-47.59-85.74l-.04-.05-3.35-5.12-.16-.26c-6.11-9.75-11.5-17.57-17.7-23.96-.37-.37-.7-.71-1-1.02l-.16-.11-2.12-2.06c-2.65-2.57-5.37-4.92-8.79-7.82-15.16-11.32-33.05-17.31-55.44-17.31H419.7l-.57-.02c-18.82-.72-33.75,2.47-47.03,8.41Zm34.05,67.35c-7.81-7.81-20.47-7.81-28.28,0-7.81,7.81-7.81,20.47,0,28.29l25.86,25.86-25.86,25.86c-7.81,7.81-7.81,20.48,0,28.29,7.81,7.81,20.47,7.81,28.28,0l25.86-25.86,25.86,25.86c7.81,7.81,20.48,7.81,28.29,0,7.81-7.81,7.81-20.48,0-28.29l-25.86-25.86,25.86-25.86c7.81-7.81,7.81-20.48,0-28.29-7.81-7.81-20.48-7.81-28.29,0l-25.86,25.86-25.86-25.86Zm245.86,62.94c0-15.9,12.9-28.8,28.8-28.8s28.8,12.9,28.8,28.8-12.9,28.8-28.8,28.8-28.8-12.9-28.8-28.8Zm28.8-68.8c-38,0-68.8,30.8-68.8,68.8s30.8,68.8,68.8,68.8,68.8-30.8,68.8-68.8-30.8-68.8-68.8-68.8Z"/></svg>