<?xml version="1.0" encoding="UTF-8"?><svg id="a" xmlns="http://www.w3.org/2000/svg" viewBox="0 0 1024 1024"><defs><style>.b{fill:#fff;}</style></defs><path class="b" d="M466.28,558.18l-.46-.46c-6.41-6.3-15.2-10.18-24.9-10.18H174.37c-19.63,0-35.54,15.91-35.54,35.54s15.91,35.54,35.54,35.54h180.75L95.92,877.82c-13.88,13.88-13.88,36.38,0,50.26,13.88,13.88,36.38,13.88,50.26,0l259.19-259.19v180.75c0,19.63,15.91,35.54,35.54,35.54s35.54-15.91,35.54-35.54v-266.55c0-4.82-.96-9.42-2.7-13.6-1.7-4.09-4.19-7.94-7.48-11.29Z"/><path class="b" d="M917.67,106.33c-13.33-13.33-31.41-20.82-50.26-20.82H263.22c-18.85,0-36.93,7.49-50.26,20.82-13.33,13.33-20.82,31.41-20.82,50.26v213.24c0,19.63,15.91,35.54,35.54,35.54s35.54-15.91,35.54-35.54V156.6H867.4V760.78h-213.24c-19.63,0-35.54,15.91-35.54,35.54s15.91,35.54,35.54,35.54h213.24c18.85,0,36.93-7.49,50.26-20.82,13.33-13.33,20.82-31.41,20.82-50.26V156.6c0-18.85-7.49-36.93-20.82-50.26Z"/></svg>