<?xml version="1.0" encoding="UTF-8"?><svg id="a" xmlns="http://www.w3.org/2000/svg" viewBox="0 0 1024 1024"><defs><style>.b{fill:#fff;fill-rule:evenodd;}</style></defs><path class="b" d="M925.91,98.09c3.39,3.39,5.95,7.3,7.67,11.47,1.73,4.17,2.68,8.74,2.68,13.53V388.26c0,19.53-15.83,35.36-35.36,35.36s-35.36-15.83-35.36-35.36V208.45l-257.84,257.84c-13.81,13.81-36.19,13.81-50,0-13.81-13.81-13.81-36.19,0-50L815.55,158.45h-179.81c-19.53,0-35.36-15.83-35.36-35.36s15.83-35.36,35.36-35.36h265.16c9.05,0,18.1,3.45,25,10.36ZM158.45,229.16c-18.75,0-36.74,7.45-50,20.71-13.26,13.26-20.71,31.25-20.71,50V865.55c0,18.75,7.45,36.74,20.71,50,13.26,13.26,31.25,20.71,50,20.71H724.13c18.75,0,36.74-7.45,50-20.71,13.26-13.26,20.71-31.25,20.71-50v-282.84c0-19.53-15.83-35.36-35.36-35.36s-35.36,15.83-35.36,35.36v282.84H158.45V299.87H441.29c19.53,0,35.36-15.83,35.36-35.36s-15.83-35.36-35.36-35.36H158.45Z"/></svg>