<?xml version="1.0" encoding="UTF-8"?><svg id="a" xmlns="http://www.w3.org/2000/svg" viewBox="0 0 1024 1024"><defs><style>.b{fill:#fff;fill-rule:evenodd;}</style></defs><path class="b" d="M307.02,97.34c15.12,15.12,15.12,39.64,0,54.77l-88.8,88.8H899.27c21.39,0,38.73,17.34,38.73,38.73s-17.34,38.73-38.73,38.73H218.22l88.8,88.8c15.12,15.13,15.12,39.64,0,54.77-15.12,15.12-39.64,15.12-54.77,0L97.34,307.02c-7.56-7.56-11.34-17.47-11.34-27.38,0-5.25,1.05-10.26,2.94-14.82,1.89-4.57,4.69-8.85,8.4-12.56L252.25,97.34c15.12-15.12,39.64-15.12,54.77,0Zm464.73,464.73c-15.12-15.12-39.64-15.12-54.77,0-15.12,15.12-15.12,39.64,0,54.77l88.79,88.8H124.73c-21.39,0-38.73,17.34-38.73,38.73s17.34,38.73,38.73,38.73H805.77l-88.79,88.8c-15.12,15.12-15.12,39.64,0,54.77s39.64,15.12,54.77,0l154.91-154.91c7.56-7.56,11.34-17.47,11.34-27.38,0-5.25-1.04-10.26-2.94-14.82-1.89-4.56-4.69-8.85-8.41-12.56l-154.91-154.91Z"/></svg>