<?xml version="1.0" encoding="UTF-8"?><svg id="a" xmlns="http://www.w3.org/2000/svg" viewBox="0 0 1024 1024"><defs><style>.b{fill-rule:evenodd;}</style></defs><path class="b" d="M913.04,112.8H110.96c-20.13,0-36.46,17.31-36.46,38.68s16.33,38.7,36.46,38.7h23.57c5.06,0,9.16,4.1,9.16,9.16V890.38c0,7.17,2.89,13.8,7.76,19.15,5.53,7.62,13.78,12.45,23,12.45h1.41c2.34,.35,4.75,.54,7.21,.54s4.87-.2,7.21-.54h80.23c3.86,0,7.44-1.89,9.75-4.99,7.25-9.73,18.84-16.03,31.91-16.03,10.98,0,20.93,4.46,28.12,11.65l5.4,5.42c2.53,2.53,5.96,3.96,9.54,3.96h115.11c3.86,0,7.44-1.89,9.75-4.99,7.25-9.73,18.84-16.03,31.91-16.03,10.98,0,20.93,4.46,28.12,11.65l5.4,5.42c2.53,2.53,5.96,3.96,9.53,3.96h115.11c3.87,0,7.45-1.89,9.76-5,7.25-9.73,18.84-16.03,31.9-16.03,10.99,0,20.93,4.46,28.13,11.65l5.4,5.42c2.53,2.53,5.96,3.96,9.54,3.96h78.83c2.34,.35,4.75,.54,7.21,.54,21.75,0,39.38-14.4,39.38-32.14V199.35c0-5.06,4.1-9.16,9.16-9.16h23.58c20.13,0,36.46-17.32,36.46-38.7s-16.33-38.68-36.46-38.68Zm-111.49,718.28c0,11.26-9.12,20.38-20.38,20.38H242.83c-11.26,0-20.38-9.12-20.38-20.38V210.56c0-11.26,9.12-20.38,20.38-20.38H781.17c11.26,0,20.38,9.12,20.38,20.38V831.08Z"/><rect x="292" y="376.67" width="274.1" height="79.55" rx="39.77" ry="39.77"/><rect x="292" y="573.01" width="434.14" height="79.55" rx="39.77" ry="39.77"/></svg>