<?xml version="1.0" encoding="UTF-8"?><svg id="a" xmlns="http://www.w3.org/2000/svg" viewBox="0 0 1024 1024"><defs><style>.b{fill:#fff;fill-rule:evenodd;}</style></defs><path class="b" d="M875,149c0-36.45-29.55-66-66-66H215c-36.45,0-66,29.55-66,66V875c0,36.45,29.55,66,66,66H809c36.45,0,66-29.55,66-66V149Zm-66,0V875H215V149H809Zm-495,66c-18.23,0-33,14.77-33,33v198c0,18.22,14.77,33,33,33h396c18.22,0,33-14.78,33-33V248c0-18.23-14.78-33-33-33H314Zm33,198v-132h330v132H347Zm0,222.75c22.78,0,41.25-18.47,41.25-41.25s-18.47-41.25-41.25-41.25-41.25,18.47-41.25,41.25,18.47,41.25,41.25,41.25Zm206.25-41.25c0,22.78-18.47,41.25-41.25,41.25s-41.25-18.47-41.25-41.25,18.47-41.25,41.25-41.25,41.25,18.47,41.25,41.25Zm123.75,41.25c22.78,0,41.25-18.47,41.25-41.25s-18.47-41.25-41.25-41.25-41.25,18.47-41.25,41.25,18.47,41.25,41.25,41.25Zm-288.75,123.75c0,22.78-18.47,41.25-41.25,41.25s-41.25-18.47-41.25-41.25,18.47-41.25,41.25-41.25,41.25,18.47,41.25,41.25Zm123.75,41.25c22.78,0,41.25-18.47,41.25-41.25s-18.47-41.25-41.25-41.25-41.25,18.47-41.25,41.25,18.47,41.25,41.25,41.25Zm206.25-41.25c0,22.78-18.47,41.25-41.25,41.25s-41.25-18.47-41.25-41.25,18.47-41.25,41.25-41.25,41.25,18.47,41.25,41.25Z"/></svg>