<?xml version="1.0" encoding="UTF-8"?><svg id="a" xmlns="http://www.w3.org/2000/svg" viewBox="0 0 1024 1024"><defs><style>.b{fill:#fff;fill-rule:evenodd;}</style></defs><path class="b" d="M742.42,116.25c0-18.18-14.74-32.92-32.92-32.92s-32.92,14.74-32.92,32.92v32.92H347.42v-32.92c0-18.18-14.74-32.92-32.92-32.92s-32.92,14.74-32.92,32.92v32.92h-98.75c-36.36,0-65.83,29.47-65.83,65.83V873.33c0,36.36,29.47,65.83,65.83,65.83H841.17c36.36,0,65.83-29.48,65.83-65.83V215c0-36.36-29.48-65.83-65.83-65.83h-98.75v-32.92Zm98.75,98.75h-98.75v32.92c0,18.18-14.74,32.92-32.92,32.92s-32.92-14.74-32.92-32.92v-32.92H347.42v32.92c0,18.18-14.74,32.92-32.92,32.92s-32.92-14.74-32.92-32.92v-32.92h-98.75v131.67H841.17V215ZM182.83,412.5H841.17v460.83H182.83V412.5Zm148.12,131.67c0-18.18,14.74-32.92,32.92-32.92h115.21c12.65,0,24.19,7.25,29.67,18.66,5.48,11.41,3.94,24.94-3.96,34.82l-36.44,45.54c10.67,7.15,19.88,16.34,27.06,27.08,9.05,13.5,14.62,29.03,16.22,45.21,1.6,16.17-.81,32.49-7.03,47.51-6.21,15.02-16.04,28.27-28.6,38.57-12.57,10.31-27.48,17.36-43.42,20.52-15.94,3.16-32.42,2.34-47.97-2.39-15.55-4.73-29.69-13.23-41.17-24.73-12.84-12.87-12.81-33.72,.06-46.55,12.87-12.84,33.71-12.82,46.55,.06,3.83,3.84,8.54,6.67,13.72,8.24,5.18,1.58,10.67,1.85,15.99,.8,5.31-1.06,10.29-3.41,14.47-6.84,4.19-3.44,7.46-7.85,9.53-12.86,2.08-5,2.88-10.44,2.34-15.84-.54-5.39-2.39-10.56-5.4-15.07-3.02-4.5-7.09-8.19-11.88-10.74-4.78-2.55-10.12-3.88-15.53-3.87-12.66,.02-24.22-7.22-29.71-18.63-5.5-11.41-3.96-24.96,3.95-34.85l23.05-28.81h-46.72c-18.18,0-32.92-14.74-32.92-32.92Zm345.63,0c0-12.47-7.04-23.87-18.19-29.44-11.15-5.58-24.5-4.37-34.47,3.11l-65.83,49.38c-14.54,10.91-17.49,31.54-6.58,46.08,10.91,14.54,31.54,17.49,46.08,6.58l13.17-9.88v148.12c0,18.18,14.74,32.92,32.92,32.92s32.92-14.74,32.92-32.92v-213.96Z"/></svg>