<?xml version="1.0" encoding="UTF-8"?><svg id="a" xmlns="http://www.w3.org/2000/svg" viewBox="0 0 1024 1024"><defs><style>.b{fill:#fff;fill-rule:evenodd;}</style></defs><path class="b" d="M750.42,121.25c0-18.18-14.74-32.92-32.92-32.92s-32.92,14.74-32.92,32.92v32.92H355.42v-32.92c0-18.18-14.74-32.92-32.92-32.92s-32.92,14.74-32.92,32.92v32.92h-98.75c-36.36,0-65.83,29.47-65.83,65.83V878.33c0,36.36,29.47,65.83,65.83,65.83H849.17c36.36,0,65.83-29.48,65.83-65.83V220c0-36.36-29.48-65.83-65.83-65.83h-98.75v-32.92Zm98.75,230.42V220h-98.75v32.92c0,18.18-14.74,32.92-32.92,32.92s-32.92-14.74-32.92-32.92v-32.92H355.42v32.92c0,18.18-14.74,32.92-32.92,32.92s-32.92-14.74-32.92-32.92v-32.92h-98.75v131.67H849.17ZM190.83,417.5H849.17v460.83H190.83V417.5Z"/></svg>