<?xml version="1.0" encoding="UTF-8"?><svg id="a" xmlns="http://www.w3.org/2000/svg" viewBox="0 0 1024 1024"><defs><style>.b{fill:#fff;fill-rule:evenodd;}</style></defs><path class="b" d="M549.09,103.36c-20.48-20.48-53.69-20.48-74.18,0L103.36,474.91c-20.48,20.48-20.48,53.69,0,74.18,20.48,20.48,53.7,20.48,74.18,0L512,214.63l334.46,334.45c20.48,20.48,53.69,20.48,74.18,0,20.48-20.48,20.48-53.69,0-74.18L549.09,103.36Zm371.55,743.1l-371.55-371.55c-20.48-20.48-53.69-20.48-74.18,0L103.36,846.46c-20.48,20.48-20.48,53.69,0,74.18,20.48,20.48,53.7,20.48,74.18,0l334.46-334.45,334.46,334.45c20.48,20.48,53.69,20.48,74.18,0,20.48-20.48,20.48-53.69,0-74.18Z"/></svg>