<?xml version="1.0" encoding="UTF-8"?><svg id="a" xmlns="http://www.w3.org/2000/svg" viewBox="0 0 1024 1024"><defs><style>.b{fill:#fff;fill-rule:evenodd;}</style></defs><path class="b" d="M177.34,103.11c-20.5-20.5-53.73-20.5-74.23,0-20.5,20.5-20.5,53.73,0,74.23l371.78,371.78c20.5,20.5,53.73,20.5,74.22,0L920.89,177.34c20.5-20.5,20.5-53.73,0-74.23-20.5-20.5-53.73-20.5-74.22,0l-334.67,334.66L177.34,103.11Zm0,371.78c-20.5-20.5-53.73-20.5-74.23,0-20.5,20.5-20.5,53.73,0,74.22l371.78,371.78c20.5,20.5,53.73,20.5,74.22,0l371.78-371.78c20.5-20.5,20.5-53.73,0-74.22-20.5-20.5-53.73-20.5-74.22,0l-334.67,334.66L177.34,474.89Z"/></svg>