<?xml version="1.0" encoding="UTF-8"?><svg id="a" xmlns="http://www.w3.org/2000/svg" viewBox="0 0 1024 1024"><defs><style>.b{fill:#fff;fill-rule:evenodd;}</style></defs><path class="b" d="M592.12,175.14c0-17.7,14.35-32.05,32.05-32.05h224.33c17.7,0,32.05,14.35,32.05,32.05V816.07h32.05c17.7,0,32.05,14.35,32.05,32.05s-14.35,32.05-32.05,32.05H111.42c-17.7,0-32.05-14.35-32.05-32.05s14.35-32.05,32.05-32.05h32.05v-256.37c0-17.7,14.35-32.05,32.05-32.05h192.28v-160.23c0-17.7,14.35-32.05,32.05-32.05h192.28V175.14Zm-224.33,416.6H207.56v224.33h160.23v-224.33ZM816.44,207.18V816.07h-160.23V207.18h160.23Zm-224.33,192.28v416.6h-160.23V399.46h160.23Z"/></svg>