<?xml version="1.0" encoding="UTF-8"?><svg id="a" xmlns="http://www.w3.org/2000/svg" viewBox="0 0 1024 1024"><defs><style>.b{fill:#fff;fill-rule:evenodd;}</style></defs><path class="b" d="M605.23,372.68c11.35-11.35,11.35-29.76,0-41.11-11.35-11.35-29.75-11.35-41.11,0l-299.19,299.19L125.62,491.45c-11.35-11.35-29.76-11.35-41.11,0-11.35,11.35-11.35,29.75,0,41.11l159.87,159.87c11.35,11.35,29.76,11.35,41.11,0l319.74-319.74Zm334.25,0c11.35-11.35,11.35-29.76,0-41.11-11.35-11.35-29.75-11.35-41.11,0l-299.19,299.19-64.47-64.47c-11.35-11.35-29.76-11.35-41.11,0-11.35,11.35-11.35,29.76,0,41.11l85.02,85.02c11.35,11.35,29.76,11.35,41.11,0l319.74-319.74Z"/></svg>