<?xml version="1.0" encoding="UTF-8"?><svg id="a" xmlns="http://www.w3.org/2000/svg" viewBox="0 0 1024 1024"><defs><style>.b{fill:#fff;fill-rule:evenodd;}</style></defs><path class="b" d="M150.69,512c0-199.54,161.76-361.31,361.31-361.31s361.31,161.76,361.31,361.31-161.77,361.31-361.31,361.31-361.31-161.77-361.31-361.31ZM512,85c-235.83,0-427,191.17-427,427s191.17,427,427,427,427-191.17,427-427S747.83,85,512,85Zm203.33,352.23c13.13-12.53,13.62-33.31,1.09-46.44-12.53-13.13-33.31-13.61-46.44-1.09l-218.32,208.27-97.62-93.29c-13.12-12.53-33.91-12.06-46.44,1.05-12.53,13.12-12.06,33.91,1.05,46.44l120.3,114.96c12.69,12.13,32.67,12.14,45.37,.02l241.01-229.92Z"/></svg>