<?xml version="1.0" encoding="UTF-8"?><svg id="a" xmlns="http://www.w3.org/2000/svg" viewBox="0 0 1024 1024"><defs><style>.b{fill:#fff;fill-rule:evenodd;}</style></defs><path class="b" d="M156.17,85c-39.3,0-71.17,31.86-71.17,71.17V867.83c0,39.3,31.86,71.17,71.17,71.17H867.83c39.3,0,71.17-31.86,71.17-71.17V156.17c0-39.3-31.86-71.17-71.17-71.17H156.17Zm0,71.17H867.83V867.83H156.17V156.17ZM732.27,431c14.22-13.57,14.75-36.09,1.19-50.31-13.57-14.22-36.09-14.75-50.31-1.18l-236.51,225.63-105.76-101.07c-14.21-13.58-36.73-13.07-50.31,1.14-13.58,14.21-13.07,36.73,1.14,50.31l130.32,124.54c13.74,13.14,35.39,13.15,49.15,.02l261.09-249.08Z"/></svg>