<?xml version="1.0" encoding="UTF-8"?><svg id="a" xmlns="http://www.w3.org/2000/svg" viewBox="0 0 1024 1024"><defs><style>.b{fill:#fff;fill-rule:evenodd;}</style></defs><path class="b" d="M149.85,512c0-200.01,162.14-362.15,362.15-362.15s362.15,162.14,362.15,362.15-162.14,362.15-362.15,362.15-362.15-162.14-362.15-362.15ZM512,84c-236.38,0-428,191.62-428,428s191.62,428,428,428,428-191.62,428-428S748.38,84,512,84Zm32.92,197.54c0-18.18-14.74-32.92-32.92-32.92s-32.92,14.74-32.92,32.92v230.46c0,18.18,14.74,32.92,32.92,32.92h230.46c18.18,0,32.92-14.74,32.92-32.92s-14.74-32.92-32.92-32.92h-197.54v-197.54Z"/></svg>