<?xml version="1.0" encoding="UTF-8"?><svg id="a" xmlns="http://www.w3.org/2000/svg" viewBox="0 0 1024 1024"><defs><style>.b{fill:#fff;fill-rule:evenodd;}</style></defs><path class="b" d="M688.82,127.19c-76.12-31.51-159.88-39.74-240.68-23.64-80.79,16.1-155.01,55.81-213.24,114.08l-88.25,87.99v-89.92c0-19.17-15.54-34.71-34.71-34.71s-34.71,15.54-34.71,34.71v173.53h0c0,.17,0,.34,0,.51,.06,3.95,.77,7.73,2.04,11.25,1.67,4.65,4.37,9.01,8.08,12.74,6.91,6.93,16.01,10.33,25.08,10.2h173.03c19.17,0,34.71-15.54,34.71-34.71s-15.54-34.71-34.71-34.71h-89.57l88.09-87.83c48.53-48.57,110.37-81.65,177.7-95.07,67.33-13.41,137.13-6.56,200.57,19.7,63.44,26.26,117.66,70.75,155.81,127.83,38.15,57.08,58.51,124.2,58.51,192.85s-20.36,135.77-58.51,192.85c-38.15,57.08-92.37,101.57-155.81,127.83-63.44,26.26-133.23,33.12-200.57,19.7-67.33-13.41-129.18-46.5-177.7-95.06-13.55-13.56-35.52-13.57-49.08-.02-13.56,13.55-13.57,35.53-.02,49.09,58.23,58.28,132.44,97.98,213.24,114.08,80.8,16.1,164.56,7.87,240.68-23.64,76.12-31.51,141.19-84.89,186.97-153.39,45.78-68.5,70.21-149.04,70.21-231.42s-24.43-162.92-70.21-231.42c-45.78-68.5-110.85-121.88-186.97-153.39Zm-124.78,176.57c0-19.17-15.54-34.71-34.71-34.71s-34.71,15.54-34.71,34.71v207.59c-.02,1.36,.03,2.71,.16,4.05,.5,5.06,2.07,9.8,4.5,13.99,2.41,4.17,5.72,7.89,9.84,10.84,1.1,.79,2.24,1.51,3.43,2.17l179.9,103.79c16.6,9.58,37.83,3.89,47.41-12.72,9.58-16.6,3.89-37.83-12.72-47.41l-163.11-94.11v-188.2Z"/></svg>