<?xml version="1.0" encoding="UTF-8"?><svg id="a" xmlns="http://www.w3.org/2000/svg" viewBox="0 0 1024 1024"><defs><style>.b{fill:#fff;fill-rule:evenodd;}</style></defs><path class="b" d="M922.06,174.06c19.92-19.92,19.92-52.21,0-72.13-19.92-19.92-52.2-19.92-72.12,0l-337.94,337.94L174.06,101.94c-19.92-19.92-52.21-19.92-72.13,0-19.92,19.92-19.92,52.21,0,72.13l337.94,337.94L101.94,849.94c-19.92,19.92-19.92,52.2,0,72.12,19.92,19.92,52.21,19.92,72.13,0l337.94-337.93,337.94,337.93c19.92,19.92,52.2,19.92,72.12,0,19.92-19.92,19.92-52.2,0-72.12l-337.93-337.94L922.06,174.06Z"/></svg>