<?xml version="1.0" encoding="UTF-8"?><svg id="a" xmlns="http://www.w3.org/2000/svg" viewBox="0 0 1024 1024"><defs><style>.b{fill:#fff;fill-rule:evenodd;}</style></defs><path class="b" d="M209.95,291.85c-49.5,22.27-66.28,47.2-66.28,64.32s16.78,42.04,66.28,64.32c22.46,10.11,49.5,18.54,79.84,24.57,.7,.11,1.39,.25,2.07,.4,32.4,6.3,68.5,9.87,106.81,9.87s74.41-3.57,106.81-9.87c.68-.16,1.37-.29,2.07-.4,30.35-6.04,57.38-14.46,79.84-24.57,49.5-22.27,66.28-47.2,66.28-64.32s-16.78-42.04-66.28-64.32c-46.84-21.08-113.54-34.85-188.72-34.85s-141.88,13.77-188.72,34.85Zm273.72,214.58c-27.1,3.64-55.64,5.57-85,5.57s-57.9-1.93-85-5.57v84.44c26.51,3.95,55.08,6.12,85,6.12s58.49-2.18,85-6.12v-84.44Zm56.67,72.52v-83.12c25.7-6.28,49.36-14.25,70.31-23.67,15.18-6.83,29.84-14.88,43.03-24.16v49.83c0,17.15-16.78,42.08-66.25,64.34-14.02,6.31-29.81,11.96-47.08,16.78Zm-56.67,86.9c-15.9-3.85-31-8.34-45.14-13.39-13.07,.79-26.38,1.2-39.86,1.2-9.54,0-18.99-.2-28.33-.6v14.77c0,17.15,16.78,42.08,66.25,64.34,14.02,6.31,29.81,11.96,47.08,16.78v-83.1Zm56.67,95.02v-84.46c27.08,3.64,55.62,5.58,85,5.58s57.9-1.92,85-5.56v84.44c-26.51,3.95-55.08,6.12-85,6.12s-58.49-2.18-85-6.12ZM257,495.83c-25.7-6.28-49.36-14.25-70.31-23.67-15.18-6.83-29.84-14.88-43.03-24.16v49.83c0,17.15,16.78,42.08,66.26,64.34,14.01,6.31,29.81,11.96,47.08,16.78v-83.12Zm-70.31-255.66c-53.05,23.87-99.69,62.69-99.69,115.99v141.67c0,53.33,46.62,92.15,99.67,116.02,35.59,16.01,79.04,27.82,126.99,34.25v19.73c0,53.33,46.62,92.15,99.67,116.02,55.7,25.06,130.67,39.81,211.99,39.81s156.29-14.75,211.99-39.81c53.06-23.87,99.67-62.69,99.67-116.02v-142.03c-.19-46.69-36.54-82.17-79.65-105.62-39.01-21.23-90.04-36.56-147.02-44.3v-19.71c0-53.3-46.64-92.12-99.69-115.99-55.71-25.07-130.68-39.84-211.97-39.84s-156.27,14.77-211.97,39.84Zm693.64,377.87c-13.18,9.26-27.83,17.31-43.01,24.14-20.95,9.43-44.62,17.39-70.33,23.66v83.11c17.27-4.82,33.06-10.47,47.08-16.78,49.47-22.26,66.25-47.18,66.25-64.34v-49.79Zm-255,7.29c38.2,0,74.21-3.55,106.53-9.8,.86-.21,1.74-.39,2.63-.52,30.24-6.03,57.18-14.43,79.58-24.51,49.48-22.26,66.26-47.18,66.26-64.34,0-14.76-12.27-35.65-50.07-56.22-30.03-16.35-71.36-29.52-119.93-36.83v64.72c0,53.33-46.62,92.15-99.67,116.02-8.01,3.6-16.42,7-25.19,10.16,12.98,.87,26.29,1.32,39.87,1.32Z"/></svg>