<?xml version="1.0" encoding="UTF-8"?><svg id="a" xmlns="http://www.w3.org/2000/svg" viewBox="0 0 1024 1024"><defs><style>.b{fill:#fff;fill-rule:evenodd;}</style></defs><path class="b" d="M279.45,250.06c-38.16,65.42-62.81,157.95-62.81,261.94s24.66,196.52,62.81,261.94c38.63,66.22,87.18,99.06,134.09,99.06s95.47-32.84,134.1-99.06c2.29-3.94,4.54-7.97,6.73-12.09,.71-1.69,1.56-3.31,2.53-4.84,32.84-64,53.55-149.69,53.55-245s-20.71-181-53.55-245c-.97-1.53-1.82-3.15-2.53-4.84-2.19-4.13-4.44-8.16-6.73-12.09-38.63-66.22-87.17-99.06-134.1-99.06s-95.46,32.84-134.09,99.06Zm324.68,557.3c-14.27,24.41-30.78,46.67-49.26,65.64h55.59c38.15,0,77.42-21.78,111.56-65.64h-117.89Zm157.05-65.64h-125.63c22.47-57.91,36.5-125.16,39.79-196.91h131.2c-3.79,74.89-20.42,142.64-45.36,196.91Zm-85.84-262.55h131.2c-3.79-74.89-20.42-142.64-45.36-196.91h-125.63c22.47,57.91,36.5,125.16,39.79,196.91Zm125.86,327.8c45-77.12,71.8-181.49,71.8-294.98s-26.8-217.86-71.8-294.98c-44.52-76.31-110.83-131.66-190.74-131.66h-196.91c-79.96,0-146.27,55.32-190.79,131.63-44.99,77.12-71.76,181.49-71.76,295.01s26.77,217.89,71.76,295.01c44.52,76.31,110.83,131.63,190.79,131.63h196.91c79.91,0,146.22-55.35,190.74-131.66Zm-79.18-590.34h-117.89c-14.27-24.41-30.78-46.67-49.26-65.64h55.59c38.15,0,77.42,21.78,111.56,65.64Z"/></svg>