<?xml version="1.0" encoding="UTF-8"?><svg id="a" xmlns="http://www.w3.org/2000/svg" viewBox="0 0 1024 1024"><defs><style>.b{fill:rgba(255,255,255,.99);fill-rule:evenodd;}</style></defs><path class="b" d="M245.67,319.7c-69.17,31.93-97.95,69.91-97.95,101.23s28.78,69.31,97.95,101.23c66.59,30.74,160.73,50.55,266.33,50.55s199.74-19.82,266.33-50.55c69.17-31.92,97.95-69.91,97.95-101.23s-28.78-69.31-97.95-101.23c-66.6-30.74-160.73-50.55-266.33-50.55s-199.74,19.82-266.33,50.55Zm630.62,213.12c-20.86,17.25-45.75,32.12-72.51,44.47-6.02,2.78-12.21,5.47-18.56,8.07v116.58l1.6-.8c65.03-32.51,89.47-70.2,89.47-98.07v-70.25Zm-333.93,100.09c65.78-2.23,127.74-11.67,182.14-26.89v119.84c-50.04,15.61-111.28,26.14-182.14,28.5v-121.44Zm-30.36,182.66c124.87,0,228.44-23.36,301.97-60.12,71.58-35.79,123.03-89.18,123.03-152.38v-182.14c0-69.28-59.56-122.36-133.22-156.36-76.24-35.19-179.43-56.14-291.78-56.14s-215.54,20.96-291.78,56.14c-73.66,34-133.22,87.08-133.22,156.36v182.14c0,63.2,51.45,116.59,123.03,152.38,73.52,36.76,177.1,60.12,301.97,60.12Zm-30.36-61.21v-121.44c-65.78-2.23-127.74-11.67-182.14-26.89v119.84c50.04,15.61,111.28,26.14,182.14,28.5Zm-242.86-52.42c-.54-.26-1.07-.53-1.6-.8-65.03-32.51-89.47-70.2-89.47-98.07v-70.25c20.86,17.25,45.75,32.12,72.51,44.47,6.02,2.78,12.21,5.47,18.56,8.07v116.58Z"/></svg>