<?xml version="1.0" encoding="UTF-8"?><svg id="a" xmlns="http://www.w3.org/2000/svg" viewBox="0 0 1024 1024"><defs><style>.b{fill:#fff;fill-rule:evenodd;}</style></defs><path class="b" d="M263.5,86c-19.61,0-35.5,15.89-35.5,35.5s15.89,35.5,35.5,35.5H867V760.5c0,19.61,15.89,35.5,35.5,35.5s35.5-15.89,35.5-35.5V121.5c0-19.61-15.89-35.5-35.5-35.5H263.5ZM121.5,228c-19.61,0-35.5,15.89-35.5,35.5V902.5c0,19.61,15.89,35.5,35.5,35.5H760.5c19.61,0,35.5-15.89,35.5-35.5V263.5c0-19.61-15.89-35.5-35.5-35.5H121.5Zm35.5,639V299H725V867H157Z"/></svg>