<?xml version="1.0" encoding="UTF-8"?><svg id="a" xmlns="http://www.w3.org/2000/svg" viewBox="0 0 1024 1024"><defs><style>.b{fill:#fff;fill-rule:evenodd;}</style></defs><path class="b" d="M542.38,117.12c0-16.78-13.6-30.38-30.38-30.38s-30.38,13.6-30.38,30.38v60.75h-45.56c-48.34,0-94.69,19.2-128.87,53.38-34.18,34.18-53.38,80.53-53.38,128.87s19.2,94.69,53.38,128.87c34.18,34.18,80.53,53.38,128.87,53.38h45.56v243h-60.75c-32.22,0-63.13-12.8-85.91-35.59-22.79-22.79-35.59-53.69-35.59-85.91,0-16.78-13.6-30.38-30.38-30.38s-30.38,13.6-30.38,30.38c0,48.34,19.2,94.69,53.38,128.87,34.18,34.18,80.53,53.38,128.87,53.38h60.75v60.75c0,16.78,13.6,30.38,30.38,30.38s30.38-13.6,30.38-30.38v-60.75h60.75c48.34,0,94.69-19.2,128.87-53.38,34.18-34.18,53.38-80.53,53.38-128.87s-19.2-94.69-53.38-128.87c-34.18-34.18-80.53-53.38-128.87-53.38h-60.75V238.62h30.38c15.96,0,31.76,3.14,46.5,9.25,14.74,6.11,28.13,15.06,39.41,26.34,11.28,11.28,20.23,24.68,26.34,39.42,6.11,14.74,9.25,30.54,9.25,46.5,0,16.78,13.6,30.38,30.38,30.38s30.38-13.6,30.38-30.38c0-23.93-4.71-47.63-13.87-69.74-9.16-22.11-22.59-42.2-39.51-59.13-16.92-16.92-37.02-30.35-59.13-39.51-22.11-9.16-45.81-13.87-69.75-13.87h-30.38v-60.75Zm-60.75,121.5h-45.56c-32.22,0-63.13,12.8-85.91,35.59-22.79,22.79-35.59,53.69-35.59,85.91s12.8,63.13,35.59,85.91c22.79,22.79,53.69,35.59,85.91,35.59h45.56V238.62Zm60.75,303.75v243h60.75c32.22,0,63.13-12.8,85.91-35.59,22.79-22.79,35.59-53.69,35.59-85.91s-12.8-63.13-35.59-85.91c-22.79-22.79-53.69-35.59-85.91-35.59h-60.75Z"/></svg>