<?xml version="1.0" encoding="UTF-8"?><svg id="a" xmlns="http://www.w3.org/2000/svg" viewBox="0 0 1024 1024"><defs><style>.b{fill:#fff;fill-rule:evenodd;}</style></defs><path class="b" d="M512,151.54c-199.08,0-360.46,161.38-360.46,360.46s161.38,360.46,360.46,360.46,360.46-161.39,360.46-360.46-161.39-360.46-360.46-360.46ZM86,512c0-235.27,190.73-426,426-426s426,190.73,426,426-190.73,426-426,426S86,747.27,86,512Zm458.77-229.38c0-18.1-14.67-32.77-32.77-32.77s-32.77,14.67-32.77,32.77v32.77h-16.38c-30.42,0-59.59,12.08-81.1,33.59-21.51,21.51-33.59,50.68-33.59,81.1s12.08,59.59,33.59,81.1c21.51,21.51,50.68,33.59,81.1,33.59h98.31c13.04,0,25.54,5.18,34.76,14.4,9.22,9.22,14.4,21.72,14.4,34.76s-5.18,25.54-14.4,34.76c-9.22,9.22-21.72,14.4-34.76,14.4h-147.46c-18.1,0-32.77,14.67-32.77,32.77s14.67,32.77,32.77,32.77h65.54v32.77c0,18.1,14.67,32.77,32.77,32.77s32.77-14.67,32.77-32.77v-32.77h16.38c30.42,0,59.59-12.09,81.1-33.59,21.51-21.51,33.59-50.68,33.59-81.1s-12.09-59.59-33.59-81.1c-21.51-21.51-50.68-33.59-81.1-33.59h-98.31c-13.04,0-25.54-5.18-34.76-14.4-9.22-9.22-14.4-21.72-14.4-34.76s5.18-25.54,14.4-34.76c9.22-9.22,21.72-14.4,34.76-14.4h147.46c18.1,0,32.77-14.67,32.77-32.77s-14.67-32.77-32.77-32.77h-65.54v-32.77Z"/></svg>