<?xml version="1.0" encoding="UTF-8"?><svg id="a" xmlns="http://www.w3.org/2000/svg" viewBox="0 0 1024 1024"><defs><style>.b{fill:#fff;fill-rule:evenodd;}</style></defs><path class="b" d="M875.85,678.13c0,18.27-14.81,33.08-33.08,33.08H181.23c-18.27,0-33.08-14.81-33.08-33.08v-66.15H875.85v66.15Zm-330.77,99.23h297.69c54.8,0,99.23-44.43,99.23-99.23V215.06c0-54.8-44.43-99.23-99.23-99.23H181.23c-54.8,0-99.23,44.43-99.23,99.23v463.08c0,54.8,44.43,99.23,99.23,99.23H478.92v66.15h-99.23c-18.27,0-33.08,14.81-33.08,33.08s14.81,33.08,33.08,33.08h264.62c18.27,0,33.08-14.81,33.08-33.08s-14.81-33.08-33.08-33.08h-99.23v-66.15ZM148.15,215.06v330.77H875.85V215.06c0-18.27-14.81-33.08-33.08-33.08H181.23c-18.27,0-33.08,14.81-33.08,33.08Z"/></svg>