<?xml version="1.0" encoding="UTF-8"?><svg id="a" xmlns="http://www.w3.org/2000/svg" viewBox="0 0 1024 1024"><defs><style>.b{fill:#fff;fill-rule:evenodd;}</style></defs><path class="b" d="M512,257.19c46.91,0,84.94-38.03,84.94-84.94s-38.03-84.94-84.94-84.94-84.94,38.03-84.94,84.94,38.03,84.94,84.94,84.94Zm0,339.75c46.91,0,84.94-38.03,84.94-84.94s-38.03-84.94-84.94-84.94-84.94,38.03-84.94,84.94,38.03,84.94,84.94,84.94Zm84.94,254.81c0,46.91-38.03,84.94-84.94,84.94s-84.94-38.03-84.94-84.94,38.03-84.94,84.94-84.94,84.94,38.03,84.94,84.94Z"/></svg>