<?xml version="1.0" encoding="UTF-8"?><svg id="a" xmlns="http://www.w3.org/2000/svg" viewBox="0 0 1024 1024"><defs><style>.b{fill:#fff;fill-rule:evenodd;}</style></defs><path class="b" d="M530.62,125.35c-10.97-7.31-25.26-7.31-36.22,0L103.02,386.27c-2.15,1.38-4.16,3.02-5.97,4.93-2.03,2.12-3.75,4.49-5.13,7.05-2.64,4.87-3.92,10.2-3.92,15.48v424.55c0,17.32,6.88,33.93,19.13,46.18,12.25,12.25,28.86,19.13,46.18,19.13H871.71c17.32,0,33.93-6.88,46.18-19.13s19.13-28.86,19.13-46.18V414.31c.12-6.75-1.85-13.6-6.07-19.52-2.52-3.53-5.62-6.41-9.07-8.61L530.62,125.35Zm316.24,289.32l-334.35-222.9L178.16,414.67l273.37,195.02h121.96l273.37-195.02Zm-693.55,62.49v361.1H871.71V477.17l-268.8,191.76c-5.53,3.95-12.16,6.07-18.96,6.07h-142.87c-6.8,0-13.43-2.12-18.96-6.07L153.31,477.17Z"/></svg>