<?xml version="1.0" encoding="UTF-8"?><svg id="a" xmlns="http://www.w3.org/2000/svg" viewBox="0 0 1024 1024"><defs><style>.b{fill:#fff;fill-rule:evenodd;}</style></defs><path class="b" d="M120.37,185.64c-18.02,0-32.64,14.61-32.64,32.64V773.09c0,17.31,6.88,33.91,19.12,46.16,12.24,12.24,28.84,19.12,46.15,19.12H870.99c17.31,0,33.91-6.88,46.16-19.12,12.24-12.24,19.12-28.85,19.12-46.16V218.28c0-18.02-14.61-32.64-32.64-32.64H120.37Zm32.64,120.71v466.73H870.99V287.94l-336.94,313.39c-12.48,11.44-31.63,11.44-44.11,0L153.01,306.36Zm661.98-55.44H188.82l323.18,282.09L814.99,250.91Z"/></svg>