<?xml version="1.0" encoding="UTF-8"?><svg id="a" xmlns="http://www.w3.org/2000/svg" viewBox="0 0 1024 1024"><defs><style>.b{fill:#fff;fill-rule:evenodd;}</style></defs><path class="b" d="M209.01,179.19c11.58-10.53,29.51-9.68,40.05,1.91l91.7,100.87c.29,.3,.57,.61,.85,.93l95.04,104.55c.19,.2,.37,.4,.56,.6,.19,.2,.36,.41,.54,.61l285.71,314.28c.29,.3,.57,.62,.85,.93l91.72,100.89c10.53,11.59,9.68,29.51-1.91,40.05-11.59,10.53-29.51,9.68-40.05-1.91l-78.01-85.81c-58.02,25.77-120.96,38.9-184.62,38.4-216.51-.05-339.71-139.75-391.44-217.46l-.1-.15h0l-30.22-46.04c-5.43-8.27-6.16-18.78-1.91-27.72l13.99-29.46c.53-1.12,1.14-2.2,1.81-3.25l18.65-28.81,.33-.5c29.1-42.94,78.74-102.59,152.68-147.93l-68.13-74.94c-10.53-11.58-9.68-29.51,1.91-40.05Zm105.14,157.8c-69.79,40.22-116.92,96.02-144.51,136.68l-17.47,26.99-6.35,13.38,21.43,32.64c47.26,70.96,155.51,192.11,344.32,192.11h.23c49.26,.4,98.04-8.55,143.76-26.25l-52.12-57.33c-27.24,17.55-59.15,27-91.95,26.88-34.31-.01-67.82-10.41-96.12-29.81-28.31-19.41-50.09-46.94-62.47-78.96-12.38-32.02-14.77-67.04-6.88-100.45,5.7-24.12,16.57-46.58,31.74-65.9l-63.62-69.98Zm87.06,148.92c3.05-12.91,8.33-25.11,15.52-36.09l147.77,162.54c-16.15,8.55-34.28,13.09-52.84,13.02h-.11c-22.89,0-45.24-6.93-64.11-19.87-18.88-12.94-33.39-31.3-41.64-52.64-8.25-21.35-9.85-44.7-4.58-66.97Zm32.29-250.99c25.79-4.32,51.91-6.46,78.06-6.41,238.32,.01,363.49,169.04,405.22,239.18l.27,.46,18.24,32.03c5.28,9.28,4.91,20.74-.98,29.65l-18.53,28.05c-.67,.98-1.59,2.32-2.72,4.01-12.32,18.29-50.96,75.68-97.01,116.87-11.67,10.44-29.59,9.44-40.03-2.23-10.44-11.67-9.44-29.59,2.23-40.03,40.24-36,74.85-87.17,87.73-106.22l1.81-2.67h0v-.02l.98-1.42,.11-.17,.03-.05,8.5-12.86-3.86-6.78v-.02l-5.49-9.64-.14-.23h0c-38.5-64.64-148.81-211.24-356.38-211.24h-.06c-22.99-.05-45.94,1.84-68.61,5.64-15.44,2.58-30.05-7.84-32.64-23.28-2.58-15.44,7.84-30.05,23.28-32.64Zm109.92,109.96c-15.38-2.91-30.22,7.19-33.13,22.58-2.91,15.38,7.19,30.22,22.58,33.13,24.1,4.57,46.06,16.85,62.57,34.99,16.51,18.14,26.67,41.16,28.94,65.58,1.45,15.59,15.27,27.05,30.86,25.6,15.59-1.45,27.05-15.27,25.59-30.85-3.42-36.68-18.67-71.24-43.46-98.48-24.79-27.24-57.76-45.68-93.95-52.54Z"/></svg>