<?xml version="1.0" encoding="UTF-8"?><svg id="a" xmlns="http://www.w3.org/2000/svg" viewBox="0 0 1024 1024"><defs><style>.b{fill:#fff;fill-rule:evenodd;}</style></defs><path class="b" d="M453.88,131.16c19.77-54.23,96.47-54.23,116.24,0l82.22,225.52,239.89,8.5c57.69,2.04,81.39,74.99,35.92,110.56l-189.07,147.88,66.04,230.77c15.88,55.5-46.17,100.58-94.04,68.33l-199.07-134.12-199.07,134.12c-47.87,32.26-109.93-12.83-94.04-68.33l66.04-230.77L95.86,475.74c-45.47-35.56-21.77-108.51,35.92-110.56l239.89-8.5,82.22-225.52Zm58.12,21.19l-82.21,225.52c-8.63,23.67-30.75,39.74-55.93,40.64l-239.89,8.5,189.07,147.88c19.85,15.52,28.3,41.53,21.36,65.75l-66.04,230.77,199.07-134.12c20.89-14.08,48.24-14.08,69.14,0l199.07,134.12-66.04-230.77c-6.93-24.22,1.52-50.23,21.36-65.75l189.07-147.88-239.89-8.5c-25.18-.89-47.3-16.97-55.93-40.64l-82.22-225.52Z"/></svg>