<?xml version="1.0" encoding="UTF-8"?><svg id="a" xmlns="http://www.w3.org/2000/svg" viewBox="0 0 1024 1024"><defs><style>.b{fill:#fff;fill-rule:evenodd;}</style></defs><path class="b" d="M89,330.71c0-16.69,13.53-30.21,30.21-30.21H904.79c16.69,0,30.21,13.53,30.21,30.21s-13.53,30.21-30.21,30.21H119.21c-16.69,0-30.21-13.53-30.21-30.21Zm151.07,181.29c0-16.69,13.53-30.21,30.21-30.21h483.43c16.69,0,30.21,13.53,30.21,30.21s-13.53,30.21-30.21,30.21H270.29c-16.69,0-30.21-13.53-30.21-30.21Zm181.29,151.07c-16.69,0-30.21,13.53-30.21,30.21s13.53,30.21,30.21,30.21h181.29c16.69,0,30.21-13.53,30.21-30.21s-13.53-30.21-30.21-30.21h-181.29Z"/></svg>