<?xml version="1.0" encoding="UTF-8"?><svg id="a" xmlns="http://www.w3.org/2000/svg" viewBox="0 0 1024 1024"><defs><style>.b{fill:#fff;fill-rule:evenodd;}</style></defs><path class="b" d="M141.55,96.6H882.45c13.38,0,26.49,3.9,37.7,11.22,11.21,7.31,20.05,17.73,25.44,29.98,5.39,12.25,7.11,25.8,4.93,39.01-2.17,13.19-8.12,25.46-17.13,35.32l-.04,.05-274.74,302.34-8.61,254.1c-.04,11.24-2.84,22.31-8.17,32.21-5.46,10.17-13.4,18.79-23.08,25.07l-.15,.1-126.02,80.8c-.2,.14-.57,.39-1.08,.74-2.62,1.79-8.82,6.04-13.63,9.04-3.33,2.09-7.39,4.52-11.5,6.56l-.12,.06c-2.63,1.31-10.64,5.29-20.04,5.73-12.38,.58-24.7-2.19-35.64-8.02-10.94-5.82-20.12-14.49-26.55-25.08-6.38-10.51-9.84-22.53-10.02-34.82l-8.73-346.62L90.65,212.17l-.05-.05c-9.01-9.87-14.96-22.14-17.13-35.32-2.17-13.21-.46-26.76,4.93-39.01,5.39-12.25,14.23-22.67,25.44-29.98,11.21-7.31,24.31-11.21,37.7-11.22Zm.01,69l.08,.09L424.97,477.48c5.57,6.13,8.75,14.05,8.96,22.33l9,357.23c1.87-1.21,3.75-2.47,5.55-3.69,.65-.44,1.38-.94,2.13-1.46,1.52-1.04,3.1-2.12,4.13-2.79l.35-.23,125.91-80.73c0-.42,0-.83,.02-1.25l9.06-267.38c.28-8.17,3.45-15.98,8.95-22.03L882.36,165.68l.08-.09H141.56Z"/></svg>