<?xml version="1.0" encoding="UTF-8"?><svg id="a" xmlns="http://www.w3.org/2000/svg" viewBox="0 0 1024 1024"><defs><style>.b{fill:#fff;fill-rule:evenodd;}</style></defs><path class="b" d="M582.82,187.69c-6.5,6.58-13.3,18.68-19.25,36.59-5.78,17.38-9.84,37.4-12.63,56.94-1.9,13.31-3.16,26.03-3.98,37,10.97-.83,23.69-2.08,37-3.98,19.54-2.79,39.55-6.85,56.94-12.63,17.9-5.95,30.01-12.75,36.59-19.24,12.52-12.55,19.55-29.55,19.55-47.28s-7.05-34.78-19.61-47.34c-12.55-12.55-29.58-19.61-47.33-19.61s-34.73,7.03-47.28,19.55Zm180.99,47.39c0,31.02-10.78,60.92-30.26,84.71h145.68c36.87,0,66.77,29.89,66.77,66.77v133.54c0,36.87-29.89,66.77-66.77,66.77v267.08c0,17.71-7.03,34.69-19.55,47.21s-29.51,19.55-47.21,19.55H211.54c-17.71,0-34.69-7.03-47.21-19.55-12.52-12.52-19.56-29.51-19.56-47.21v-267.08c-36.88,0-66.77-29.89-66.77-66.77v-133.54c0-36.88,29.89-66.77,66.77-66.77h145.67c-19.48-23.79-30.26-53.69-30.26-84.71,0-35.46,14.09-69.47,39.16-94.55,25.08-25.08,59.09-39.16,94.55-39.16s69.47,14.09,94.55,39.16l.1,.1c9.63,9.72,17.29,21.41,23.45,33.7,6.16-12.29,13.82-23.98,23.45-33.7l.1-.1c25.08-25.08,59.09-39.16,94.55-39.16s69.48,14.09,94.55,39.16c25.07,25.08,39.16,59.09,39.16,94.55Zm-218.42,618.87h267.08v-267.08h-267.08v267.08Zm-66.77-267.08v267.08H211.54v-267.08H478.62Zm66.77-66.77h333.85v-133.54h-333.85v133.54Zm-66.77-133.54v133.54H144.77v-133.54H478.62Zm-95.53-84.96c-17.91-5.95-30.01-12.75-36.59-19.24-12.52-12.55-19.55-29.55-19.55-47.28s7.05-34.78,19.61-47.34c12.55-12.55,29.58-19.61,47.34-19.61s34.73,7.03,47.28,19.55c6.49,6.58,13.29,18.68,19.24,36.59,5.78,17.38,9.84,37.4,12.63,56.94,1.9,13.31,3.16,26.03,3.98,37-10.97-.83-23.69-2.08-37-3.98-19.54-2.79-39.55-6.85-56.94-12.63Z"/></svg>