<?xml version="1.0" encoding="UTF-8"?><svg id="a" xmlns="http://www.w3.org/2000/svg" viewBox="0 0 1024 1024"><defs><style>.b{fill:#fff;fill-rule:evenodd;}</style></defs><path class="b" d="M397.09,169.43c-90.04,30.19-164.25,94.88-206.94,178.38h139.95c8.62-44.48,20.7-85.02,35.61-119.84,9.17-21.42,19.63-41.17,31.38-58.54Zm-76.86,244.06H164.36c-8.86,31.32-13.6,64.37-13.6,98.52s4.74,67.2,13.6,98.52h155.87c-3.45-31.65-5.27-64.66-5.27-98.52s1.82-66.87,5.27-98.52Zm66.1,197.04c-3.69-31.19-5.69-64.23-5.69-98.52s2-67.33,5.69-98.52h251.33c3.7,31.19,5.69,64.23,5.69,98.52s-2,67.33-5.69,98.52h-251.33Zm-56.23,65.68H190.15c42.68,83.49,116.89,148.19,206.93,178.38-11.75-17.37-22.21-37.12-31.38-58.54-14.91-34.82-26.98-75.36-35.61-119.84Zm296.81,178.38c90.04-30.19,164.25-94.88,206.93-178.38h-139.94c-8.62,44.48-20.69,85.02-35.61,119.84-9.17,21.42-19.63,41.17-31.38,58.54Zm-.04-178.38c-7.54,35.28-17.4,66.99-28.96,93.98-13.81,32.26-29.42,56.27-45.08,71.73-15.52,15.33-29.28,20.66-40.84,20.66s-25.32-5.33-40.84-20.66c-15.66-15.46-31.26-39.47-45.08-71.73-11.56-26.99-21.41-58.7-28.96-93.98h229.75Zm76.9-65.68h155.87c8.85-31.32,13.6-64.37,13.6-98.52s-4.74-67.2-13.6-98.52h-155.87c3.45,31.65,5.27,64.66,5.27,98.52s-1.82,66.87-5.27,98.52Zm-9.87-262.72h139.94c-42.68-83.49-116.89-148.19-206.93-178.38,11.75,17.37,22.21,37.12,31.38,58.54,14.91,34.82,26.99,75.36,35.61,119.84Zm-67.03,0h-229.75c7.55-35.28,17.4-66.99,28.96-93.98,13.81-32.26,29.42-56.27,45.08-71.73,15.52-15.33,29.28-20.66,40.84-20.66s25.32,5.33,40.84,20.66c15.66,15.46,31.26,39.47,45.08,71.73,11.56,26.99,21.41,58.7,28.96,93.98Zm-114.87-262.72c-235.78,0-426.91,191.14-426.91,426.91s191.14,426.91,426.91,426.91,426.91-191.13,426.91-426.91S747.78,85.09,512,85.09Z"/></svg>