<?xml version="1.0" encoding="UTF-8"?><svg id="a" xmlns="http://www.w3.org/2000/svg" viewBox="0 0 1024 1024"><defs><style>.b{fill:#fff;fill-rule:evenodd;}</style></defs><path class="b" d="M465.13,101.65c12.81-11.69,29.52-18.18,46.87-18.18s34.06,6.48,46.87,18.18c.01,.01,.03,.03,.05,.04l347.41,315.71,.49,.45c6.87,6.49,12.37,14.28,16.17,22.92,3.81,8.65,5.85,17.96,6,27.41v402.36c0,18.43-7.32,36.11-20.35,49.14-13.03,13.03-30.71,20.36-49.15,20.36h-208.5c-18.43,0-36.11-7.33-49.15-20.36-13.03-13.03-20.35-30.71-20.35-49.14v-208.5h-139v208.5c0,18.43-7.32,36.11-20.35,49.14-13.04,13.03-30.71,20.36-49.15,20.36H164.5c-18.43,0-36.11-7.33-49.14-20.36-13.03-13.03-20.36-30.71-20.36-49.14V468.18c.15-9.44,2.2-18.76,6.01-27.41,3.81-8.64,9.31-16.44,16.18-22.92l.49-.45L465.09,101.69s.03-.03,.05-.04ZM164.83,468.46L511.91,153.05l.08-.08,.08,.08,347.09,315.41c.09,.1,.17,.22,.22,.34,.06,.13,.09,.27,.11,.42v401.32h-208.5v-208.5c0-18.44-7.32-36.11-20.35-49.15-13.03-13.03-30.71-20.35-49.15-20.35h-139c-18.43,0-36.11,7.32-49.14,20.35-13.03,13.03-20.36,30.71-20.36,49.15v208.5H164.5V469.22c.01-.14,.05-.28,.11-.42,.06-.13,.13-.24,.22-.34Z"/></svg>