<?xml version="1.0" encoding="UTF-8"?><svg id="a" xmlns="http://www.w3.org/2000/svg" viewBox="0 0 1024 1024"><defs><style>.b{fill:#fff;fill-rule:evenodd;}</style></defs><path class="b" d="M175.61,224.86c0,24.78-20.09,44.86-44.86,44.86s-44.86-20.09-44.86-44.86,20.09-44.86,44.86-44.86,44.86,20.09,44.86,44.86Zm152.54-35.89c-19.82,0-35.89,16.07-35.89,35.89s16.07,35.89,35.89,35.89H902.42c19.82,0,35.89-16.07,35.89-35.89s-16.07-35.89-35.89-35.89H328.15Zm0,287.14c-19.82,0-35.89,16.07-35.89,35.89s16.07,35.89,35.89,35.89H902.42c19.82,0,35.89-16.07,35.89-35.89s-16.07-35.89-35.89-35.89H328.15Zm-35.89,323.03c0-19.82,16.07-35.89,35.89-35.89H902.42c19.82,0,35.89,16.07,35.89,35.89s-16.07,35.89-35.89,35.89H328.15c-19.82,0-35.89-16.07-35.89-35.89Zm-161.51,44.86c24.78,0,44.86-20.09,44.86-44.86s-20.09-44.86-44.86-44.86-44.86,20.09-44.86,44.86,20.09,44.86,44.86,44.86Zm44.86-332c0,24.78-20.09,44.86-44.86,44.86s-44.86-20.09-44.86-44.86,20.09-44.86,44.86-44.86,44.86,20.09,44.86,44.86Z"/></svg>