<?xml version="1.0" encoding="UTF-8"?><svg id="a" xmlns="http://www.w3.org/2000/svg" viewBox="0 0 1024 1024"><defs><style>.b{fill:#fff;fill-rule:evenodd;}</style></defs><path class="b" d="M84,226.67c0-19.7,15.97-35.67,35.67-35.67H904.33c19.7,0,35.67,15.97,35.67,35.67s-15.97,35.67-35.67,35.67H119.67c-19.7,0-35.67-15.97-35.67-35.67Zm0,285.33c0-19.7,15.97-35.67,35.67-35.67H904.33c19.7,0,35.67,15.97,35.67,35.67s-15.97,35.67-35.67,35.67H119.67c-19.7,0-35.67-15.97-35.67-35.67Zm35.67,249.67c-19.7,0-35.67,15.97-35.67,35.67s15.97,35.67,35.67,35.67H904.33c19.7,0,35.67-15.97,35.67-35.67s-15.97-35.67-35.67-35.67H119.67Z"/></svg>