<?xml version="1.0" encoding="UTF-8"?><svg id="a" xmlns="http://www.w3.org/2000/svg" viewBox="0 0 1024 1024"><defs><style>.b{fill:#fff;fill-rule:evenodd;}</style></defs><path class="b" d="M376,182.33c14.45-13.32,15.36-35.83,2.04-50.28-13.32-14.45-35.83-15.36-50.28-2.04l-130.19,120.06-52.82-48.85c-14.43-13.34-36.94-12.46-50.28,1.96-13.34,14.43-12.46,36.94,1.96,50.28l76.95,71.17c13.62,12.6,34.64,12.61,48.28,.03l154.34-142.33Zm136,9.42c-19.65,0-35.58,15.93-35.58,35.58s15.93,35.58,35.58,35.58h391.42c19.65,0,35.58-15.93,35.58-35.58s-15.93-35.58-35.58-35.58h-391.42Zm0,284.67c-19.65,0-35.58,15.93-35.58,35.58s15.93,35.58,35.58,35.58h391.42c19.65,0,35.58-15.93,35.58-35.58s-15.93-35.58-35.58-35.58h-391.42Zm-35.58,320.25c0-19.65,15.93-35.58,35.58-35.58h391.42c19.65,0,35.58,15.93,35.58,35.58s-15.93,35.58-35.58,35.58h-391.42c-19.65,0-35.58-15.93-35.58-35.58Zm-98.38-379.96c13.32,14.45,12.41,36.96-2.04,50.28l-154.34,142.33c-13.64,12.58-34.66,12.57-48.28-.03l-76.95-71.17c-14.43-13.34-15.31-35.85-1.96-50.28,13.34-14.43,35.86-15.31,50.28-1.96l52.82,48.85,130.19-120.06c14.45-13.32,36.96-12.41,50.28,2.04Zm-2.04,334.95c14.45-13.32,15.36-35.83,2.04-50.28-13.32-14.45-35.83-15.36-50.28-2.04l-130.19,120.05-52.82-48.85c-14.43-13.35-36.94-12.46-50.28,1.96-13.34,14.43-12.46,36.94,1.96,50.28l76.95,71.17c13.62,12.6,34.64,12.62,48.28,.03l154.34-142.33Z"/></svg>