<?xml version="1.0" encoding="UTF-8"?><svg id="a" xmlns="http://www.w3.org/2000/svg" viewBox="0 0 1024 1024"><defs><style>.b{fill:#fff;fill-rule:evenodd;}</style></defs><path class="b" d="M512,146.71c-29.4,0-57.59,11.68-78.37,32.46-20.78,20.79-32.46,48.98-32.46,78.37v110.83h221.67v-110.83c0-29.39-11.68-57.59-32.46-78.37-20.79-20.79-48.98-32.46-78.37-32.46Zm-174.17,110.83v110.83H195.33c-34.98,0-63.33,28.36-63.33,63.33v443.33c0,34.98,28.36,63.33,63.33,63.33H828.67c34.98,0,63.33-28.36,63.33-63.33V431.71c0-34.98-28.36-63.33-63.33-63.33h-142.5v-110.83c0-46.19-18.35-90.49-51.01-123.15-32.66-32.66-76.96-51.01-123.15-51.01s-90.49,18.35-123.15,51.01c-32.66,32.66-51.01,76.96-51.01,123.15Zm-142.5,174.17H828.67v443.33H195.33V431.71Zm356.25,221.67c0,21.86-17.72,39.58-39.58,39.58s-39.58-17.72-39.58-39.58,17.72-39.58,39.58-39.58,39.58,17.72,39.58,39.58Z"/></svg>