<?xml version="1.0" encoding="UTF-8"?><svg id="a" xmlns="http://www.w3.org/2000/svg" viewBox="0 0 1024 1024"><defs><style>.b{fill:#fff;fill-rule:evenodd;}</style></defs><path class="b" d="M512,146.18c-29.44,0-57.67,11.69-78.49,32.51-20.81,20.82-32.51,49.05-32.51,78.49v111h428.12c35.03,0,63.43,28.4,63.43,63.43v443.98c0,35.03-28.4,63.43-63.43,63.43H194.87c-35.03,0-63.43-28.4-63.43-63.43V431.59c0-35.03,28.4-63.43,63.43-63.43h142.71v-111c0-46.26,18.38-90.62,51.09-123.33,32.71-32.71,77.08-51.09,123.33-51.09s90.62,18.38,123.33,51.09c32.71,32.71,51.09,77.08,51.09,123.33,0,17.51-14.2,31.71-31.71,31.71s-31.71-14.2-31.71-31.71c0-29.44-11.7-57.67-32.51-78.49-20.82-20.82-49.05-32.51-78.49-32.51ZM194.87,431.59H829.13v443.98H194.87V431.59Zm356.77,221.99c0,21.89-17.75,39.64-39.64,39.64s-39.64-17.75-39.64-39.64,17.75-39.64,39.64-39.64,39.64,17.75,39.64,39.64Z"/></svg>