<?xml version="1.0" encoding="UTF-8"?><svg id="a" xmlns="http://www.w3.org/2000/svg" viewBox="0 0 1024 1024"><defs><style>.b{fill:#fff;fill-rule:evenodd;}</style></defs><path class="b" d="M149,462.5c0-173.14,140.35-313.49,313.49-313.49s313.49,140.35,313.49,313.49-140.36,313.49-313.49,313.49S149,635.63,149,462.5ZM462.49,83.01c-209.59,0-379.49,169.9-379.49,379.49s169.9,379.49,379.49,379.49c92.92,0,178.04-33.4,244.01-88.84l178.17,178.17c12.88,12.89,33.78,12.89,46.66,0,12.89-12.89,12.89-33.78,0-46.66l-178.17-178.18c55.43-65.97,88.82-151.07,88.82-243.98,0-209.59-169.9-379.49-379.49-379.49Z"/></svg>