<?xml version="1.0" encoding="UTF-8"?><svg id="a" xmlns="http://www.w3.org/2000/svg" viewBox="0 0 1024 1024"><defs><style>.b{fill:#fff;fill-rule:evenodd;}</style></defs><path class="b" d="M259.09,161.82c-53.72,0-97.27,43.55-97.27,97.27s43.55,97.27,97.27,97.27,97.27-43.55,97.27-97.27-43.55-97.27-97.27-97.27Zm-175.09,97.27c0-96.7,78.39-175.09,175.09-175.09s175.09,78.39,175.09,175.09-78.39,175.09-175.09,175.09-175.09-78.39-175.09-175.09Zm805.69-69.76L189.33,889.69c-15.19,15.2-39.83,15.2-55.03,0-15.19-15.2-15.19-39.83,0-55.02L834.67,134.31c15.2-15.19,39.83-15.19,55.02,0,15.2,15.19,15.2,39.83,0,55.03Zm-222.06,575.58c0-53.72,43.55-97.27,97.27-97.27s97.27,43.55,97.27,97.27-43.55,97.27-97.27,97.27-97.27-43.55-97.27-97.27Zm97.27-175.09c-96.7,0-175.09,78.39-175.09,175.09s78.39,175.09,175.09,175.09,175.09-78.39,175.09-175.09-78.39-175.09-175.09-175.09Z"/></svg>