<?xml version="1.0" encoding="UTF-8"?><svg id="a" xmlns="http://www.w3.org/2000/svg" viewBox="0 0 1024 1024"><defs><style>.b{fill:#fff;fill-rule:evenodd;}</style></defs><path class="b" d="M253.51,116.38c-17.84,0-32.31,14.47-32.31,32.31v129.24h-43.22c-53.77,0-102.18,41.2-102.18,96.93v323.11c0,17.84,14.47,32.31,32.31,32.31h113.09v145.4c0,17.84,14.47,32.31,32.31,32.31H770.49c17.84,0,32.31-14.47,32.31-32.31v-145.4h113.09c17.84,0,32.31-14.47,32.31-32.31V374.86c0-55.74-48.41-96.93-102.19-96.93h-43.22V148.69c0-17.84-14.47-32.31-32.31-32.31H253.51Zm-75.53,226.18H846.02c22.97,0,37.56,16.96,37.56,32.31v290.8h-80.78v-64.62c0-17.84-14.47-32.31-32.31-32.31H253.51c-17.84,0-32.31,14.47-32.31,32.31v64.62h-80.78V374.86c0-15.35,14.6-32.31,37.56-32.31Zm107.84-64.62h452.36v-96.93H285.82v96.93Zm0,355.42h452.36v210.02H285.82v-210.02Zm508.9-177.71c0,22.31-18.08,40.39-40.39,40.39s-40.39-18.08-40.39-40.39,18.08-40.39,40.39-40.39,40.39,18.08,40.39,40.39Z"/></svg>