<?xml version="1.0" encoding="UTF-8"?><svg id="a" xmlns="http://www.w3.org/2000/svg" viewBox="0 0 1024 1024"><defs><style>.b{fill:#fff;fill-rule:evenodd;}</style></defs><path class="b" d="M503.58,85.05c-7.15-2.19-14.95-2.24-17.9-2.25-2.1,0-3.96,.05-5.28,.11-.67,.03-1.24,.06-1.65,.08l-.52,.03h-.17l-.07,.02h-.05c-1.28,.09-2.55,.26-3.81,.52l-305.62,60.97c-12,2.4-21.39,11.78-23.78,23.78l-60.97,305.62-.02,.11c-1.91,9.76-1.39,19.84,1.52,29.35,2.91,9.51,8.11,18.16,15.15,25.19l395.25,395.24c5.58,5.67,12.23,10.18,19.56,13.27,7.4,3.11,15.34,4.71,23.36,4.71s15.96-1.6,23.36-4.71c7.33-3.09,13.98-7.6,19.56-13.27l342.53-342.53c5.67-5.58,10.18-12.23,13.26-19.56,3.11-7.39,4.72-15.34,4.72-23.36s-1.6-15.97-4.72-23.36c-3.09-7.34-7.59-13.98-13.27-19.56L528.76,100.19c-7.02-7.04-15.67-12.24-25.18-15.14ZM200.19,200l283.57-56.57c.53-.02,1.14-.03,1.77-.03h.75l394.97,394.97-342.68,342.68L143.2,485.68l57-285.69Zm171.18,133.31c0,20.92-16.96,37.87-37.87,37.87s-37.87-16.96-37.87-37.87,16.96-37.87,37.87-37.87,37.87,16.96,37.87,37.87Z"/></svg>