<?xml version="1.0" encoding="UTF-8"?><svg id="a" xmlns="http://www.w3.org/2000/svg" viewBox="0 0 1024 1024"><defs><style>.b{fill:#fff;fill-rule:evenodd;}</style></defs><path class="b" d="M631.48,86.34c-8.48,0-16.88,1.69-24.7,4.96-7.78,3.26-14.84,8.02-20.77,14.02l-234.35,234.35-1.86-.57c-14.29-4.33-34.5-8.86-58.9-9.95-49.35-2.2-114.63,9.8-180.78,63.25-6.99,5.65-12.7,12.72-16.78,20.73-4.07,8.01-6.41,16.79-6.87,25.77-.45,8.97,.99,17.95,4.24,26.33,3.24,8.35,8.19,15.94,14.55,22.25l.06,.06,193.15,193.15-137.26,137.26c-12.49,12.49-12.49,32.73,0,45.22,12.49,12.49,32.73,12.49,45.22,0l137.26-137.26,192.22,192.22,.12,.12c6.43,6.51,14.18,11.56,22.72,14.82,8.6,3.27,17.8,4.66,26.99,4.05,9.18-.61,18.13-3.19,26.22-7.57,8.07-4.37,15.1-10.41,20.62-17.73,31.99-42.27,90.18-138.04,52.82-239.86l233.51-233.51,.1-.1c5.99-5.93,10.76-12.99,14.01-20.76,3.27-7.82,4.96-16.22,4.96-24.7s-1.69-16.88-4.96-24.7c-3.26-7.78-8.02-14.84-14.01-20.77l-.1-.1-241.88-241.88-.1-.1c-5.93-6-12.99-10.76-20.77-14.02-7.82-3.28-16.22-4.96-24.7-4.96ZM367.16,658.91l214.38,214.38,.06-.08c32.91-43.49,74.15-120.78,37.29-194.19-6.19-12.32-3.78-27.21,5.96-36.96l249.19-249.19-.17-.17-242.4-242.4-.17,.17-249.02,249.02c-9.69,9.69-24.48,12.13-36.77,6.06l-.4-.19c-.47-.21-1.32-.59-2.53-1.09-2.43-.99-6.28-2.44-11.35-3.98-10.18-3.09-25.07-6.45-43.19-7.26-35.68-1.59-85.13,6.6-137.69,49.07l.1,.1,215.01,215.01c.29,.27,.58,.55,.87,.84,.28,.28,.56,.57,.83,.87Z"/></svg>