<?xml version="1.0" encoding="UTF-8"?><svg id="a" xmlns="http://www.w3.org/2000/svg" viewBox="0 0 1024 1024"><defs><style>.b{fill:#fff;fill-rule:evenodd;}</style></defs><path class="b" d="M628.63,96.09c-8.29,0-16.5,1.65-24.15,4.85-7.61,3.18-14.5,7.84-20.3,13.7l-148.02,148.02c-12.21,12.21-12.21,32,0,44.21,12.2,12.21,32,12.21,44.21,0l148.1-148.09,.17-.17,236.96,236.96,.17,.17-161.94,161.94c-12.21,12.21-12.21,32,0,44.21s32,12.21,44.21,0l161.7-161.7c5.86-5.8,10.52-12.69,13.7-20.3,3.2-7.65,4.85-15.86,4.85-24.15s-1.65-16.5-4.85-24.15c-3.18-7.6-7.84-14.5-13.7-20.3l-236.65-236.65c-5.8-5.86-12.7-10.52-20.3-13.7-7.65-3.2-15.86-4.85-24.15-4.85Zm-414.53,59.8c-11.61-12.77-31.38-13.72-44.16-2.1-12.77,11.61-13.72,31.38-2.1,44.16l123.03,135.33c-47.64-1.18-109.39,11.44-171.93,61.98-6.83,5.53-12.43,12.44-16.42,20.28-3.98,7.83-6.27,16.41-6.71,25.19-.44,8.77,.97,17.54,4.14,25.74,3.16,8.17,8.01,15.58,14.22,21.75l.06,.06,188.82,188.82-134.18,134.18c-12.21,12.21-12.21,32,0,44.21,12.21,12.21,32,12.21,44.21,0l134.18-134.18,188.02,188.02c6.28,6.36,13.86,11.3,22.22,14.49,8.41,3.2,17.41,4.56,26.38,3.96,8.98-.59,17.72-3.12,25.63-7.4,7.91-4.28,14.8-10.22,20.21-17.41,20.1-26.71,50.24-74.2,60.04-130.91l103.28,113.61c11.62,12.77,31.39,13.72,44.16,2.1,12.77-11.62,13.72-31.39,2.1-44.16L214.09,155.89Zm412.14,546.3c16.2,62.92-18.54,126.07-46.47,163.19l-209.74-209.73c-.11-.12-.22-.23-.33-.34-.11-.11-.21-.22-.32-.33-.22-.22-.44-.44-.67-.65l-210.37-210.36-.1-.1c51.39-41.52,99.72-49.53,134.61-47.97,17.72,.79,32.27,4.08,42.22,7.1,4.96,1.5,291.16,299.19,291.16,299.19Z"/></svg>