<?xml version="1.0" encoding="UTF-8"?><svg id="a" xmlns="http://www.w3.org/2000/svg" viewBox="0 0 1024 1024"><defs><style>.b{fill:#fff;fill-rule:evenodd;}</style></defs><path class="b" d="M404.73,101.42c-7.67-4.6-16.96-5.67-25.47-2.92-58.97,19.04-113.19,50.48-158.99,92.22-6.58,6-10.27,14.53-10.12,23.43l1.77,105.33c-6.11,9.39-11.72,19.1-16.81,29.08l-92.21,51.07c-7.8,4.32-13.36,11.79-15.27,20.5-13.24,60.59-13.1,123.34,.42,183.87,1.93,8.64,7.46,16.04,15.19,20.34l91.87,51.08c5.11,10.05,10.72,19.84,16.81,29.33l-1.78,105.09c-.15,8.9,3.53,17.44,10.11,23.44,45.9,41.83,100.35,73.18,159.56,91.89,8.45,2.67,17.65,1.6,25.26-2.96l90.24-54c11.11,.5,22.23,.5,33.34,0l90.62,54.37c7.67,4.6,16.95,5.67,25.47,2.92,58.97-19.04,113.19-50.48,158.99-92.22,6.58-6,10.26-14.53,10.11-23.44l-1.77-105.33c6.11-9.39,11.73-19.1,16.81-29.08l92.21-51.07c7.8-4.32,13.36-11.79,15.27-20.5,13.24-60.59,13.09-123.34-.42-183.87-1.93-8.64-7.46-16.04-15.19-20.34l-91.85-51.07c-5.09-9.99-10.7-19.71-16.82-29.11l1.77-105.33c.15-8.9-3.53-17.44-10.11-23.43-45.9-41.83-100.35-73.19-159.56-91.89-8.46-2.67-17.65-1.59-25.26,2.96l-90.24,54c-11.11-.5-22.23-.5-33.34,0l-90.61-54.37Zm-130.65,226.78l-1.7-100.74c33.46-28.29,71.65-50.45,112.82-65.45l86.44,51.87c5.46,3.28,11.8,4.79,18.16,4.34,14.78-1.06,29.62-1.06,44.4,0,6.34,.45,12.67-1.05,18.13-4.32l86.17-51.56c41.3,14.77,79.62,36.83,113.13,65.14l-1.7,100.74c-.11,6.53,1.84,12.92,5.58,18.27,8.31,11.9,15.59,24.5,21.76,37.65,2.77,5.89,7.31,10.77,13,13.93l87.9,48.87c7.92,43.02,8.03,87.12,.31,130.18l-88.17,48.83c-5.71,3.16-10.28,8.05-13.05,13.96-6.16,13.15-13.45,25.74-21.76,37.65-3.74,5.35-5.69,11.75-5.58,18.27l1.7,100.74c-33.46,28.29-71.65,50.45-112.82,65.46l-86.44-51.87c-5.46-3.28-11.8-4.79-18.16-4.34-14.78,1.06-29.62,1.06-44.4,0-6.34-.45-12.67,1.06-18.13,4.32l-86.16,51.56c-41.3-14.77-79.62-36.83-113.12-65.14l1.7-100.35c.11-6.42-1.78-12.71-5.4-18.01-8.33-12.19-15.67-25.02-21.97-38.37-2.77-5.87-7.3-10.71-12.97-13.86l-87.9-48.87c-7.92-43.02-8.03-87.12-.32-130.18l88.17-48.84c5.71-3.16,10.28-8.05,13.05-13.96,6.16-13.15,13.44-25.74,21.76-37.65,3.74-5.35,5.69-11.75,5.58-18.27Zm82.89,183.8c0-85.6,69.39-155,155-155s155,69.39,155,155-69.39,155-155,155-155-69.39-155-155Zm155-216.99c-119.84,0-216.99,97.15-216.99,216.99s97.15,216.99,216.99,216.99,216.99-97.15,216.99-216.99-97.15-216.99-216.99-216.99Z"/></svg>