<?xml version="1.0" encoding="UTF-8"?><svg id="a" xmlns="http://www.w3.org/2000/svg" viewBox="0 0 1024 1024"><defs><style>.b{fill:rgba(255,255,255,.6);fill-rule:evenodd;}</style></defs><path class="b" d="M633.5,236.94c0-50.64,41.05-91.69,91.69-91.69s91.69,41.05,91.69,91.69-41.05,91.69-91.69,91.69c-31.61,0-59.49-16-75.97-40.35-.33-.6-.68-1.19-1.06-1.77-.39-.6-.79-1.19-1.21-1.76-8.52-13.92-13.44-30.29-13.44-47.82Zm91.69,152.81c-42.89,0-81.64-17.67-109.4-46.12l-175.97,113.08c6.66,17.14,10.31,35.79,10.31,55.28s-3.65,38.14-10.31,55.29l175.97,113.08c27.75-28.45,66.51-46.12,109.4-46.12,84.4,0,152.81,68.42,152.81,152.81s-68.42,152.81-152.81,152.81-152.81-68.42-152.81-152.81c0-19.5,3.66-38.15,10.31-55.31l-175.96-113.08c-27.75,28.46-66.52,46.13-109.41,46.13-84.4,0-152.81-68.42-152.81-152.81s68.42-152.81,152.81-152.81c42.89,0,81.66,17.67,109.42,46.14l175.96-113.08c-6.66-17.15-10.32-35.8-10.32-55.31,0-84.4,68.42-152.81,152.81-152.81s152.81,68.42,152.81,152.81-68.42,152.81-152.81,152.81Zm-349.87,170.45c-.32,.44-.63,.9-.93,1.37-.29,.45-.57,.9-.83,1.36-16.45,24.58-44.46,40.75-76.25,40.75-50.64,0-91.69-41.05-91.69-91.69s41.05-91.69,91.69-91.69c31.78,0,59.79,16.17,76.24,40.73,.27,.47,.55,.93,.84,1.39,.3,.48,.62,.94,.95,1.39,8.66,14,13.66,30.51,13.66,48.18s-5.01,34.2-13.68,48.2Zm271.61,179.06c-8.52,13.92-13.43,30.29-13.43,47.8,0,50.64,41.05,91.69,91.69,91.69s91.69-41.05,91.69-91.69-41.05-91.69-91.69-91.69c-31.61,0-59.48,15.99-75.97,40.33-.33,.6-.69,1.2-1.07,1.79-.39,.61-.8,1.2-1.23,1.77Z"/></svg>