<?xml version="1.0" encoding="UTF-8"?><svg id="a" xmlns="http://www.w3.org/2000/svg" viewBox="0 0 1024 1024"><defs><style>.b{fill:#fff;fill-rule:evenodd;}</style></defs><path class="b" d="M618.88,82.5c-19.77,0-35.79,16.02-35.79,35.79s16.03,35.79,35.79,35.79h250.54V869.92h-250.54c-19.77,0-35.79,16.03-35.79,35.79s16.03,35.79,35.79,35.79h250.54c18.98,0,37.19-7.54,50.62-20.96s20.96-31.64,20.96-50.62V154.08c0-18.98-7.54-37.19-20.96-50.62-13.42-13.42-31.64-20.97-50.62-20.97h-250.54Zm-213.21,216.29c13.98-13.98,36.64-13.98,50.62,0l187.91,187.91c3.43,3.43,6.02,7.39,7.77,11.61,1.75,4.22,2.72,8.85,2.72,13.7,0,9.16-3.49,18.32-10.48,25.31l-187.91,187.91c-13.98,13.98-36.64,13.98-50.62,0-13.98-13.98-13.98-36.64,0-50.61l126.8-126.81H117.79c-19.77,0-35.79-16.03-35.79-35.79s16.02-35.79,35.79-35.79h414.67l-126.8-126.81c-13.98-13.98-13.98-36.64,0-50.62Z"/></svg>