<?xml version="1.0" encoding="UTF-8"?><svg id="a" xmlns="http://www.w3.org/2000/svg" viewBox="0 0 1024 1024"><defs><style>.b{fill:#fff;fill-rule:evenodd;}</style></defs><path class="b" d="M155.33,84c-18.92,0-37.06,7.52-50.44,20.89-13.38,13.38-20.89,31.52-20.89,50.44V868.67c0,18.92,7.52,37.06,20.89,50.44,13.38,13.38,31.52,20.89,50.44,20.89h249.67c19.7,0,35.67-15.97,35.67-35.67s-15.97-35.67-35.67-35.67H155.33V155.33h249.67c19.7,0,35.67-15.97,35.67-35.67s-15.97-35.67-35.67-35.67H155.33Zm536.53,215.53c13.93-13.93,36.51-13.93,50.44,0l187.25,187.25c3.42,3.42,6,7.36,7.74,11.57,1.75,4.2,2.71,8.82,2.71,13.65,0,9.13-3.48,18.26-10.45,25.22l-187.25,187.25c-13.93,13.93-36.51,13.93-50.44,0s-13.93-36.51,0-50.44l126.36-126.36H405c-19.7,0-35.67-15.97-35.67-35.67s15.97-35.67,35.67-35.67h413.22l-126.36-126.36c-13.93-13.93-13.93-36.51,0-50.44Z"/></svg>