<?xml version="1.0" encoding="UTF-8"?><svg id="a" xmlns="http://www.w3.org/2000/svg" viewBox="0 0 1024 1024"><defs><style>.b{fill:#fff;fill-rule:evenodd;}</style></defs><path class="b" d="M486.76,348.91c-13.75,32.24-45.74,54.84-83.01,54.84s-69.26-22.6-83.01-54.84c-2.33,.47-4.73,.72-7.2,.72H115.08c-19.93,0-36.08-16.16-36.08-36.08s16.16-36.08,36.08-36.08h198.46c2.46,0,4.87,.25,7.2,.72,13.75-32.24,45.74-54.84,83.01-54.84s69.26,22.6,83.01,54.84c2.33-.47,4.73-.72,7.2-.72h414.96c19.93,0,36.08,16.16,36.08,36.08s-16.16,36.08-36.08,36.08H493.96c-2.46,0-4.87-.25-7.2-.72Zm205.66,451.76c37.27,0,69.26-22.6,83.01-54.84,2.33,.47,4.73,.72,7.2,.72h126.29c19.93,0,36.08-16.16,36.08-36.08s-16.16-36.08-36.08-36.08h-126.29c-2.46,0-4.87,.25-7.2,.72-13.75-32.24-45.74-54.84-83.01-54.84s-69.26,22.6-83.01,54.84c-2.33-.47-4.73-.72-7.2-.72H115.08c-19.93,0-36.08,16.16-36.08,36.08s16.16,36.08,36.08,36.08h487.13c2.46,0,4.87-.25,7.2-.72,13.75,32.24,45.74,54.84,83.01,54.84Z"/></svg>