<?xml version="1.0" encoding="UTF-8"?><svg id="a" xmlns="http://www.w3.org/2000/svg" viewBox="0 0 1024 1024"><defs><style>.b{fill:#fff;fill-rule:evenodd;}</style></defs><path class="b" d="M87.68,255.81c0-17.69,14.34-32.02,32.02-32.02H632.09c17.69,0,32.02,14.34,32.02,32.02s-14.34,32.02-32.02,32.02H119.71c-17.69,0-32.02-14.34-32.02-32.02Zm711.16,105.45c-12.51-12.51-32.78-12.51-45.29,0-12.51,12.51-12.51,32.78,0,45.29l73.42,73.43H119.71c-17.69,0-32.02,14.34-32.02,32.02s14.34,32.02,32.02,32.02H826.98l-73.42,73.43c-12.51,12.51-12.51,32.78,0,45.29,12.51,12.51,32.78,12.51,45.29,0l128.1-128.1c12.51-12.51,12.51-32.78,0-45.29l-128.1-128.1ZM119.71,736.17c-17.69,0-32.02,14.34-32.02,32.02s14.34,32.02,32.02,32.02H632.09c17.69,0,32.02-14.34,32.02-32.02s-14.34-32.02-32.02-32.02H119.71Z"/></svg>