<?xml version="1.0" encoding="UTF-8"?><svg id="a" xmlns="http://www.w3.org/2000/svg" viewBox="0 0 1024 1024"><defs><style>.b{fill:#fff;}</style></defs><path class="b" d="M392.1,288.19h511.57c17.66,0,31.97-14.32,31.97-31.97s-14.32-31.97-31.97-31.97H392.1c-17.66,0-31.97,14.32-31.97,31.97s14.32,31.97,31.97,31.97Z"/><path class="b" d="M903.67,735.81H392.1c-17.66,0-31.97,14.32-31.97,31.97s14.32,31.97,31.97,31.97h511.57c17.66,0,31.97-14.32,31.97-31.97s-14.32-31.97-31.97-31.97Z"/><path class="b" d="M903.67,480.03H197.52l73.31-73.31c12.49-12.49,12.49-32.73,0-45.22-12.49-12.49-32.73-12.49-45.22,0l-127.89,127.89c-12.49,12.49-12.49,32.73,0,45.21l127.89,127.89c12.49,12.49,32.73,12.49,45.22,0,12.49-12.49,12.49-32.73,0-45.21l-73.31-73.31H903.67c17.66,0,31.97-14.32,31.97-31.97s-14.32-31.97-31.97-31.97Z"/></svg>