<?xml version="1.0" encoding="UTF-8"?><svg id="a" xmlns="http://www.w3.org/2000/svg" viewBox="0 0 1024 1024"><defs><style>.b{fill:#fff;fill-rule:evenodd;}</style></defs><path class="b" d="M123.82,85c-21.44,0-38.82,17.38-38.82,38.82V434.36c0,21.44,17.38,38.82,38.82,38.82H434.36c21.44,0,38.82-17.38,38.82-38.82V123.82c0-21.44-17.38-38.82-38.82-38.82H123.82Zm38.82,310.55V162.64h232.91v232.91H162.64ZM589.64,85c-21.44,0-38.82,17.38-38.82,38.82V434.36c0,21.44,17.38,38.82,38.82,38.82h310.55c21.44,0,38.82-17.38,38.82-38.82V123.82c0-21.44-17.38-38.82-38.82-38.82h-310.55Zm38.82,310.55V162.64h232.91v232.91h-232.91ZM85,589.64c0-21.44,17.38-38.82,38.82-38.82H434.36c21.44,0,38.82,17.38,38.82,38.82v310.55c0,21.44-17.38,38.82-38.82,38.82H123.82c-21.44,0-38.82-17.38-38.82-38.82v-310.55Zm77.64,38.82v232.91h232.91v-232.91H162.64Zm427-77.64c-21.44,0-38.82,17.38-38.82,38.82v310.55c0,21.44,17.38,38.82,38.82,38.82h310.55c21.44,0,38.82-17.38,38.82-38.82v-310.55c0-21.44-17.38-38.82-38.82-38.82h-310.55Zm38.82,310.55v-232.91h232.91v232.91h-232.91Z"/></svg>