<?xml version="1.0" encoding="UTF-8"?><svg id="a" xmlns="http://www.w3.org/2000/svg" viewBox="0 0 1024 1024"><defs><style>.b{fill:#fff;fill-rule:evenodd;}</style></defs><path class="b" d="M420.61,84c-16.82,0-30.46,13.64-30.46,30.46s13.64,30.46,30.46,30.46h182.79c16.82,0,30.46-13.64,30.46-30.46s-13.64-30.46-30.46-30.46h-182.79Zm91.39,182.79c-168.25,0-304.64,136.39-304.64,304.64s136.39,304.64,304.64,304.64,304.64-136.39,304.64-304.64-136.39-304.64-304.64-304.64ZM146.43,571.43c0-201.9,163.67-365.57,365.57-365.57s365.57,163.67,365.57,365.57-163.67,365.57-365.57,365.57-365.57-163.67-365.57-365.57Zm537.91-172.34c11.9,11.9,11.9,31.19,0,43.08l-150.8,150.8c-11.9,11.9-31.18,11.9-43.08,0-11.9-11.9-11.9-31.19,0-43.08l150.8-150.8c11.9-11.9,31.18-11.9,43.08,0Z"/></svg>