<?xml version="1.0" encoding="UTF-8"?><svg id="a" xmlns="http://www.w3.org/2000/svg" viewBox="0 0 1024 1024"><defs><style>.b{fill:#fff;fill-rule:evenodd;}</style></defs><path class="b" d="M412.5,80.08c-26.39,0-51.7,10.48-70.36,29.14-18.66,18.66-29.14,43.97-29.14,70.36v33.17H147.17c-18.32,0-33.17,14.85-33.17,33.17s14.85,33.17,33.17,33.17h33.17V876.08c0,17.59,6.99,34.47,19.43,46.91,12.44,12.44,29.31,19.43,46.9,19.43H777.33c17.59,0,34.47-6.99,46.91-19.43,12.44-12.44,19.43-29.31,19.43-46.91V279.08h33.17c18.32,0,33.17-14.85,33.17-33.17s-14.85-33.17-33.17-33.17h-165.83v-33.17c0-26.39-10.49-51.7-29.14-70.36-18.66-18.66-43.97-29.14-70.36-29.14h-199Zm232.17,132.67v-33.17c0-8.8-3.49-17.23-9.72-23.45-6.22-6.22-14.66-9.71-23.45-9.71h-199c-8.8,0-17.23,3.49-23.45,9.71-6.22,6.22-9.71,14.66-9.71,23.45v33.17h265.33Zm-298.5,66.33h-99.5V876.08H777.33V279.08H346.17Zm66.33,132.67c18.32,0,33.17,14.85,33.17,33.17v265.33c0,18.32-14.85,33.17-33.17,33.17s-33.17-14.85-33.17-33.17V444.92c0-18.32,14.85-33.17,33.17-33.17Zm232.17,298.5V444.92c0-18.32-14.85-33.17-33.17-33.17s-33.17,14.85-33.17,33.17v265.33c0,18.32,14.85,33.17,33.17,33.17s33.17-14.85,33.17-33.17Z"/></svg>