<?xml version="1.0" encoding="UTF-8"?><svg id="a" xmlns="http://www.w3.org/2000/svg" viewBox="0 0 1024 1024"><defs><style>.b{fill:#fff;fill-rule:evenodd;}</style></defs><path class="b" d="M274.13,419.77c0-131.35,106.48-237.83,237.83-237.83s237.83,106.48,237.83,237.83-104.31,235.65-233.81,237.79c-1.32,0-2.65-.01-3.98-.01s-2.69,0-4.03,.01c-129.51-2.13-233.84-107.78-233.84-237.79Zm72.3,263.35c-87.41-55.05-145.48-152.42-145.48-263.35,0-171.76,139.24-311.01,311-311.01s311.01,139.24,311.01,311.01c0,110.92-58.06,208.27-145.46,263.33,22.63,7.16,44.83,15.79,66.45,25.88,72.64,33.87,136.97,83.24,188.49,144.64,12.99,15.48,10.97,38.56-4.51,51.55-15.48,12.99-38.55,10.97-51.55-4.51-44.64-53.21-100.4-96-163.36-125.36-61.67-28.76-128.78-43.95-196.79-44.55-1.42,.02-2.84,.03-4.27,.03s-2.83,0-4.24-.03c-68,.61-135.09,15.8-196.75,44.55-62.95,29.36-118.71,72.14-163.36,125.36-12.99,15.48-36.07,17.5-51.55,4.51-15.48-12.99-17.5-36.07-4.51-51.55,51.51-61.4,115.85-110.77,188.49-144.64,21.6-10.07,43.78-18.7,66.4-25.86Z"/></svg>