<?xml version="1.0" encoding="UTF-8"?><svg id="a" xmlns="http://www.w3.org/2000/svg" viewBox="0 0 1024 1024"><defs><style>.b{fill:#fff;fill-rule:evenodd;}</style></defs><path class="b" d="M326.1,315.07c-62.15,0-112.53,50.38-112.53,112.53s45.95,107.97,104.21,112.22c2.77-.09,5.54-.14,8.32-.14s5.55,.05,8.32,.14c58.26-4.26,104.21-52.88,104.21-112.22s-50.38-112.53-112.53-112.53Zm102.79,246.42c40.13-30.86,66-79.35,66-133.89,0-93.22-75.57-168.79-168.79-168.79s-168.79,75.57-168.79,168.79c0,54.54,25.87,103.04,66,133.89-18.57,8.25-36.2,18.76-52.45,31.38-44.41,34.47-76.08,82.75-90.03,137.21-3.85,15.05,5.22,30.38,20.28,34.23,15.05,3.85,30.38-5.23,34.23-20.27,10.85-42.36,35.48-79.91,70.02-106.72,32.17-24.97,71.23-39.31,111.77-41.16,2.97,.16,5.97,.24,8.98,.24s6.01-.08,8.98-.24c40.54,1.85,79.6,16.19,111.77,41.16,34.54,26.81,59.18,64.36,70.02,106.72,3.85,15.05,19.18,24.13,34.23,20.27,15.05-3.85,24.13-19.18,20.27-34.23-13.94-54.46-45.62-102.73-90.03-137.21-16.26-12.62-33.89-23.13-52.46-31.38Zm122.26-218.29c0-15.54,12.6-28.13,28.13-28.13h337.58c15.54,0,28.13,12.6,28.13,28.13s-12.6,28.13-28.13,28.13h-337.58c-15.54,0-28.13-12.6-28.13-28.13Zm28.13,140.66c-15.54,0-28.13,12.6-28.13,28.13s12.6,28.13,28.13,28.13h337.58c15.54,0,28.13-12.6,28.13-28.13s-12.6-28.13-28.13-28.13h-337.58Zm56.26,196.92c0-15.54,12.6-28.13,28.13-28.13h253.19c15.54,0,28.13,12.6,28.13,28.13s-12.6,28.13-28.13,28.13h-253.19c-15.54,0-28.13-12.6-28.13-28.13Z"/></svg>