<?xml version="1.0" encoding="UTF-8"?><svg id="a" xmlns="http://www.w3.org/2000/svg" viewBox="0 0 1024 1024"><defs><style>.b{fill:#fff;fill-rule:evenodd;}</style></defs><path class="b" d="M512,150.69c-199.54,0-361.31,161.76-361.31,361.31s161.76,361.31,361.31,361.31,361.31-161.77,361.31-361.31-161.77-361.31-361.31-361.31ZM85,512c0-235.83,191.17-427,427-427s427,191.17,427,427-191.17,427-427,427S85,747.83,85,512Zm427-229.92c18.14,0,32.85,14.71,32.85,32.85v229.92c0,18.14-14.71,32.85-32.85,32.85s-32.85-14.71-32.85-32.85v-229.92c0-18.14,14.71-32.85,32.85-32.85Zm41.06,410.58c0,22.68-18.38,41.06-41.06,41.06s-41.06-18.38-41.06-41.06,18.38-41.06,41.06-41.06,41.06,18.38,41.06,41.06Z"/></svg>