<?xml version="1.0" encoding="UTF-8"?><svg id="a" xmlns="http://www.w3.org/2000/svg" viewBox="0 0 1024 1024"><defs><style>.b{fill:#fff;fill-rule:evenodd;}</style></defs><path class="b" d="M466.38,143.34c13.86-8.04,29.6-12.27,45.63-12.27s31.76,4.23,45.63,12.27c13.84,8.02,25.31,19.56,33.27,33.43l.04,.07,334.81,578.3c8,13.86,12.24,29.61,12.25,45.62,.01,16.01-4.18,31.73-12.16,45.61-7.98,13.87-19.46,25.41-33.3,33.45-13.84,8.04-29.55,12.3-45.55,12.36H177.01c-16-.06-31.71-4.32-45.55-12.36-13.84-8.04-25.32-19.57-33.3-33.45-7.98-13.87-12.17-29.6-12.16-45.61,.01-16.01,4.23-31.73,12.24-45.58L433.06,176.85l.04-.07c7.96-13.87,19.44-25.41,33.27-33.43Zm19.46,63.88L150.97,785.62c-2.66,4.62-4.07,9.86-4.08,15.19,0,5.34,1.39,10.58,4.05,15.21,2.66,4.62,6.49,8.47,11.1,11.15,4.6,2.67,9.83,4.1,15.15,4.12H846.81c5.32-.02,10.54-1.45,15.14-4.12,4.62-2.68,8.44-6.52,11.1-11.15,2.66-4.63,4.06-9.87,4.05-15.21,0-5.33-1.41-10.57-4.08-15.19L538.09,207.09c-2.63-4.6-6.43-8.42-11.01-11.07s-9.78-4.06-15.08-4.06-10.5,1.4-15.08,4.06c-4.58,2.66-8.38,6.48-11.01,11.07l-.08,.13Zm26.15,197.85c16.81,0,30.44,13.63,30.44,30.44v152.22c0,16.81-13.63,30.44-30.44,30.44s-30.44-13.63-30.44-30.44v-152.22c0-16.81,13.63-30.44,30.44-30.44Zm38.05,319.66c0,21.02-17.04,38.05-38.05,38.05s-38.05-17.04-38.05-38.05,17.04-38.05,38.05-38.05,38.05,17.04,38.05,38.05Z"/></svg>