<?xml version="1.0" encoding="UTF-8"?>
<svg id="Layer_1" data-name="Layer 1" xmlns="http://www.w3.org/2000/svg" viewBox="0 0 1024 1024">
  <defs>
    <style>
      .cls-1 {
        fill: #231f20;
        fill-rule: evenodd;
      }
    </style>
  </defs>
  <path class="cls-1" d="m252.25,461.93c15.12,15.12,39.65,15.12,54.77,0,15.12-15.12,15.12-39.64,0-54.77l-88.8-88.8h681.05c21.39,0,38.73-17.34,38.73-38.73s-17.34-38.73-38.73-38.73H218.22l88.8-88.8c15.12-15.12,15.12-39.65,0-54.77-15.12-15.12-39.65-15.12-54.77,0L97.34,252.25c-3.71,3.71-6.51,7.99-8.41,12.56-1.89,4.57-2.94,9.57-2.94,14.83,0,9.91,3.78,19.82,11.34,27.38l154.91,154.91Z"/>
  <path class="cls-1" d="m124.73,783.09h681.05l-88.79,88.8c-15.12,15.12-15.12,39.64,0,54.77,15.12,15.12,39.64,15.12,54.77,0l154.91-154.91c7.56-7.56,11.34-17.47,11.34-27.38,0-5.25-1.04-10.26-2.94-14.82-1.89-4.56-4.69-8.84-8.41-12.56l-154.91-154.91c-15.12-15.12-39.64-15.12-54.77,0-15.12,15.12-15.12,39.64,0,54.77l88.79,88.8H124.73c-21.39,0-38.73,17.34-38.73,38.73s17.34,38.73,38.73,38.73Z"/>
</svg>