<?xml version="1.0" encoding="UTF-8"?>
<svg id="Layer_1" data-name="Layer 1" xmlns="http://www.w3.org/2000/svg" viewBox="0 0 1024 1024">
  <defs>
    <style>
      .cls-1 {
        fill: #231f20;
        fill-rule: evenodd;
      }
    </style>
  </defs>
  <path class="cls-1" d="m193.18,782.55c8.88,5.16,18.97,7.9,29.24,7.93h143c0,38.87,15.44,76.15,42.93,103.64,27.49,27.49,64.77,42.93,103.64,42.93s76.15-15.44,103.64-42.93c27.48-27.48,42.93-64.76,42.93-103.64h143.02c10.27-.03,20.36-2.77,29.24-7.93,8.89-5.16,16.26-12.56,21.38-21.47,5.12-8.91,7.81-19,7.8-29.28,0-10.27-2.72-20.37-7.86-29.26-21.14-36.51-47.74-107.48-47.74-234.51v-26.02c0-151.88-114.41-279.87-263.1-294.96v-30.79c0-16.19-13.12-29.31-29.31-29.31s-29.31,13.12-29.31,29.31v30.82c-27.89,2.84-55.28,9.68-81.31,20.35-35.73,14.64-68.22,36.21-95.59,63.46s-49.07,59.65-63.86,95.32c-4.6,11.1-7.96,25.9-10.51,39.92-2.66,14.59-4.84,30.59-6.56,45.23-1.72,14.69-3.02,28.32-3.88,38.25-.43,4.98-.76,9.04-.97,11.89l-.25,3.3-.06.89-.02.34c-.05.67-.07,1.34-.07,2.01,0,127.03-26.58,197.97-47.72,234.48-5.14,8.9-7.86,19.02-7.87,29.29,0,10.27,2.68,20.37,7.8,29.28,5.12,8.91,12.49,16.31,21.38,21.47Zm380.99,70.12c-16.49,16.49-38.86,25.76-62.18,25.76s-45.69-9.27-62.18-25.76c-16.49-16.49-25.76-38.86-25.76-62.18h175.88c0,23.32-9.27,45.69-25.76,62.18Zm-295.95-383.59v-.05s.23-3.06.23-3.06c.2-2.67.51-6.55.93-11.31.83-9.54,2.06-22.54,3.7-36.48,1.64-13.99,3.65-28.64,6.01-41.54,2.46-13.48,4.94-23.03,6.99-27.98,11.83-28.53,29.19-54.44,51.07-76.23s47.86-39.04,76.45-50.75c27.92-11.44,57.79-17.38,87.95-17.48.15,0,.3,0,.45,0,.18,0,.36,0,.53,0,.37,0,.75,0,1.12,0,128.46.99,232.14,107.92,232.14,237.81v26.02c0,135.3,28.37,216.79,55.6,263.83H222.63c27.15-46.91,55.45-128.1,55.59-262.77Z"/>
</svg>