<?xml version="1.0" encoding="UTF-8"?>
<svg id="Layer_1" data-name="Layer 1" xmlns="http://www.w3.org/2000/svg" viewBox="0 0 1024 1024">
  <defs>
    <style>
      .cls-1 {
        fill: #231f20;
        fill-rule: evenodd;
      }
    </style>
  </defs>
  <path class="cls-1" d="m110.96,184.52h23.56c5.06,0,9.16,4.1,9.16,9.16v691.03c0,7.17,2.89,13.8,7.76,19.15,5.53,7.62,13.78,12.45,23,12.45h1.41c2.34.35,4.75.54,7.21.54s4.87-.2,7.21-.54h80.23c3.86,0,7.44-1.89,9.75-4.99,7.25-9.73,18.84-16.03,31.91-16.03,10.98,0,20.93,4.46,28.12,11.65l5.4,5.42c2.53,2.53,5.96,3.96,9.54,3.96h115.11c3.86,0,7.44-1.89,9.75-4.99,7.25-9.73,18.84-16.03,31.91-16.03,10.98,0,20.93,4.46,28.12,11.65l5.4,5.42c2.53,2.53,5.96,3.96,9.53,3.96h115.11c3.87,0,7.45-1.9,9.76-5,7.25-9.72,18.84-16.03,31.9-16.03,10.99,0,20.93,4.46,28.13,11.65l5.4,5.42c2.53,2.53,5.96,3.96,9.54,3.96h78.83c2.34.35,4.75.54,7.21.54,21.75,0,39.38-14.4,39.38-32.14V193.68c0-5.06,4.1-9.16,9.16-9.16h23.58c20.13,0,36.46-17.33,36.46-38.7s-16.33-38.69-36.46-38.69H110.96c-20.14,0-36.46,17.31-36.46,38.69s16.33,38.7,36.46,38.7Zm111.49,20.38c0-11.25,9.12-20.38,20.38-20.38h538.34c11.26,0,20.38,9.12,20.38,20.38v620.52c0,11.26-9.12,20.38-20.38,20.38H242.83c-11.26,0-20.38-9.12-20.38-20.38V204.9Z"/>
  <path class="cls-1" d="m331.77,450.55h194.55c21.97,0,39.77-17.81,39.77-39.77s-17.81-39.77-39.77-39.77h-194.55c-21.97,0-39.77,17.81-39.77,39.77s17.81,39.77,39.77,39.77Z"/>
  <path class="cls-1" d="m331.77,646.89h354.6c21.97,0,39.77-17.81,39.77-39.77s-17.81-39.77-39.77-39.77h-354.6c-21.97,0-39.77,17.81-39.77,39.77s17.81,39.77,39.77,39.77Z"/>
</svg>