<?xml version="1.0" encoding="UTF-8"?>
<svg id="Layer_1" data-name="Layer 1" xmlns="http://www.w3.org/2000/svg" viewBox="0 0 1024 1024">
  <defs>
    <style>
      .cls-1 {
        fill: #231f20;
        fill-rule: evenodd;
      }
    </style>
  </defs>
  <path class="cls-1" d="m244.38,692.42c11.35,11.35,29.76,11.35,41.11,0l319.74-319.74c11.35-11.35,11.35-29.76,0-41.11-11.35-11.35-29.75-11.35-41.1,0l-299.19,299.19-139.32-139.31c-11.35-11.35-29.76-11.35-41.11,0-11.35,11.35-11.35,29.75,0,41.1l159.87,159.87Z"/>
  <path class="cls-1" d="m898.38,331.58l-299.19,299.19-64.47-64.47c-11.35-11.35-29.76-11.35-41.11,0-11.35,11.35-11.35,29.76,0,41.11l85.02,85.02c11.35,11.35,29.76,11.35,41.11,0l319.74-319.74c11.35-11.35,11.35-29.76,0-41.11-11.35-11.35-29.75-11.35-41.1,0Z"/>
</svg>