<?xml version="1.0" encoding="UTF-8"?>
<svg id="Layer_1" data-name="Layer 1" xmlns="http://www.w3.org/2000/svg" viewBox="0 0 1024 1024">
  <defs>
    <style>
      .cls-1 {
        fill: #231f20;
        fill-rule: evenodd;
      }
    </style>
  </defs>
  <path class="cls-1" d="m495.41,638.1c-7.18-10.73-16.39-19.92-27.06-27.08l36.44-45.54c7.9-9.88,9.45-23.42,3.96-34.82-5.48-11.4-17.02-18.66-29.67-18.66h-115.21c-18.18,0-32.92,14.74-32.92,32.92s14.74,32.92,32.92,32.92h46.72l-23.05,28.81c-7.91,9.89-9.45,23.44-3.95,34.85,5.5,11.41,17.05,18.65,29.71,18.63,5.42,0,10.75,1.32,15.53,3.87,4.78,2.55,8.86,6.23,11.88,10.73,3.01,4.5,4.87,9.68,5.4,15.07.54,5.39-.27,10.83-2.34,15.83-2.07,5.01-5.34,9.42-9.53,12.86-4.19,3.44-9.16,5.78-14.47,6.84-5.31,1.05-10.81.78-15.99-.8-5.18-1.57-9.9-4.41-13.72-8.24-12.84-12.87-33.68-12.9-46.55-.06-12.87,12.84-12.9,33.68-.06,46.55,11.48,11.5,25.62,20,41.17,24.73,15.55,4.73,32.02,5.55,47.97,2.39,15.94-3.17,30.85-10.21,43.42-20.52,12.56-10.31,22.39-23.56,28.6-38.57,6.21-15.01,8.63-31.33,7.03-47.5-1.6-16.17-7.17-31.7-16.22-45.21Z"/>
  <path class="cls-1" d="m658.39,515.48c-11.15-5.58-24.5-4.37-34.48,3.11l-65.83,49.38c-14.54,10.91-17.49,31.54-6.58,46.08,10.91,14.54,31.54,17.49,46.08,6.58l13.17-9.88v148.12c0,18.18,14.74,32.92,32.92,32.92s32.92-14.74,32.92-32.92v-213.96c0-12.47-7.04-23.87-18.19-29.44Z"/>
  <path class="cls-1" d="m182.83,939.92h658.33c36.36,0,65.83-29.48,65.83-65.83V215.75c0-36.36-29.48-65.83-65.83-65.83h-98.75v-32.92c0-18.18-14.74-32.92-32.92-32.92s-32.92,14.74-32.92,32.92v32.92h-329.17v-32.92c0-18.18-14.74-32.92-32.92-32.92s-32.92,14.74-32.92,32.92v32.92h-98.75c-36.36,0-65.83,29.47-65.83,65.83v658.33c0,36.36,29.47,65.83,65.83,65.83Zm0-724.17h98.75v32.92c0,18.18,14.74,32.92,32.92,32.92s32.92-14.74,32.92-32.92v-32.92h329.17v32.92c0,18.18,14.74,32.92,32.92,32.92s32.92-14.74,32.92-32.92v-32.92h98.75v131.67H182.83v-131.67Zm0,197.5h658.33v460.83H182.83v-460.83Z"/>
</svg>