<?xml version="1.0" encoding="UTF-8"?>
<svg id="Layer_1" data-name="Layer 1" xmlns="http://www.w3.org/2000/svg" viewBox="0 0 1024 1024">
  <defs>
    <style>
      .cls-1 {
        fill: #231f20;
        fill-rule: evenodd;
      }
    </style>
  </defs>
  <path class="cls-1" d="m610.64,240.17c-55.71-25.07-130.68-39.84-211.98-39.84s-156.27,14.77-211.97,39.84c-53.05,23.87-99.69,62.69-99.69,115.99v141.67c0,53.33,46.62,92.15,99.67,116.02,35.59,16.01,79.04,27.82,126.99,34.25v19.73c0,53.33,46.62,92.15,99.67,116.02,55.7,25.06,130.67,39.81,211.99,39.81s156.29-14.75,211.99-39.81c53.06-23.87,99.67-62.69,99.67-116.02v-142.03c-.19-46.69-36.54-82.17-79.65-105.62-39.01-21.23-90.04-36.56-147.02-44.3v-19.71c0-53.3-46.64-92.12-99.69-115.99Zm-353.64,338.78c-17.27-4.82-33.06-10.47-47.08-16.78-49.48-22.26-66.26-47.18-66.26-64.34v-49.83c13.19,9.27,27.85,17.32,43.03,24.15,20.94,9.43,44.61,17.39,70.31,23.67v83.12Zm226.67,170c-17.27-4.82-33.06-10.47-47.08-16.78-49.48-22.26-66.26-47.18-66.26-64.34v-14.77c9.34.4,18.79.6,28.33.6,13.48,0,26.79-.4,39.86-1.2,14.14,5.05,29.24,9.54,45.14,13.39v83.1Zm0-158.08c-26.51,3.95-55.08,6.12-85,6.12s-58.49-2.18-85-6.12v-84.44c27.1,3.64,55.64,5.57,85,5.57s57.9-1.93,85-5.57v84.44Zm21.81-145.41c-32.39,6.3-68.5,9.87-106.81,9.87s-74.41-3.57-106.81-9.87c-.68-.16-1.37-.29-2.07-.41-30.35-6.04-57.38-14.46-79.84-24.57-49.5-22.27-66.28-47.21-66.28-64.32s16.78-42.04,66.28-64.32c46.84-21.08,113.54-34.85,188.72-34.85s141.88,13.77,188.72,34.85c49.5,22.27,66.28,47.2,66.28,64.32s-16.78,42.04-66.28,64.32c-22.46,10.11-49.5,18.54-79.84,24.57-.7.11-1.39.25-2.07.41Zm148.19,2.54v49.83c0,17.16-16.78,42.08-66.25,64.34-14.02,6.31-29.81,11.96-47.08,16.78v-83.12c25.7-6.28,49.36-14.25,70.31-23.67,15.18-6.83,29.84-14.88,43.02-24.15Zm56.67,312.87c-26.51,3.95-55.08,6.12-85,6.12s-58.49-2.18-85-6.12v-84.46c27.08,3.64,55.62,5.58,85,5.58s57.9-1.92,85-5.56v84.44Zm170-93.04c0,17.16-16.78,42.08-66.25,64.34-14.02,6.31-29.81,11.96-47.08,16.78v-83.11c25.71-6.27,49.38-14.24,70.33-23.66,15.18-6.83,29.83-14.88,43.01-24.14v49.79Zm-50.07-197.88c37.8,20.57,50.07,41.46,50.07,56.22,0,17.16-16.78,42.08-66.26,64.34-22.4,10.07-49.33,18.48-79.58,24.51-.89.13-1.77.31-2.63.52-32.32,6.25-68.33,9.8-106.53,9.8-13.57,0-26.89-.45-39.87-1.32,8.77-3.17,17.18-6.56,25.19-10.16,53.06-23.87,99.67-62.69,99.67-116.02v-64.72c48.57,7.32,89.9,20.49,119.93,36.83Z"/>
</svg>