<?xml version="1.0" encoding="UTF-8"?>
<svg id="Layer_1" data-name="Layer 1" xmlns="http://www.w3.org/2000/svg" viewBox="0 0 1024 1024">
  <defs>
    <style>
      .cls-1 {
        fill: #231f20;
        fill-rule: evenodd;
      }
    </style>
  </defs>
  <path class="cls-1" d="m920.89,103.11c-20.5-20.5-53.73-20.5-74.22,0l-334.67,334.66L177.34,103.11c-20.5-20.5-53.73-20.5-74.23,0-20.5,20.5-20.5,53.73,0,74.23l371.78,371.78c20.5,20.5,53.72,20.5,74.22,0l371.78-371.78c20.5-20.5,20.5-53.73,0-74.23Z"/>
  <path class="cls-1" d="m846.67,474.89l-334.67,334.66L177.34,474.89c-20.5-20.5-53.73-20.5-74.23,0s-20.5,53.73,0,74.22l371.78,371.78c20.5,20.5,53.72,20.5,74.22,0l371.78-371.78c20.5-20.5,20.5-53.73,0-74.22-20.5-20.5-53.73-20.5-74.22,0Z"/>
</svg>