<?xml version="1.0" encoding="UTF-8"?>
<svg id="Layer_1" data-name="Layer 1" xmlns="http://www.w3.org/2000/svg" viewBox="0 0 1024 1024">
  <defs>
    <style>
      .cls-1 {
        fill: #231f20;
        fill-rule: evenodd;
      }
    </style>
  </defs>
  <path class="cls-1" d="m86,263.5v639c0,19.6,15.89,35.5,35.5,35.5h639c19.6,0,35.5-15.9,35.5-35.5V263.5c0-19.61-15.9-35.5-35.5-35.5H121.5c-19.61,0-35.5,15.89-35.5,35.5Zm71,35.5h568v568H157V299Z"/>
  <path class="cls-1" d="m902.5,796c19.6,0,35.5-15.9,35.5-35.5V121.5c0-19.61-15.9-35.5-35.5-35.5H263.5c-19.61,0-35.5,15.89-35.5,35.5s15.89,35.5,35.5,35.5h603.5v603.5c0,19.6,15.9,35.5,35.5,35.5Z"/>
</svg>