<?xml version="1.0" encoding="UTF-8"?>
<svg id="Layer_1" data-name="Layer 1" xmlns="http://www.w3.org/2000/svg" viewBox="0 0 1024 1024">
  <defs>
    <style>
      .cls-1 {
        fill: #231f20;
        fill-rule: evenodd;
      }
    </style>
  </defs>
  <path class="cls-1" d="m96.54,391.47c-2.03,2.12-3.75,4.49-5.13,7.05-2.64,4.87-3.92,10.19-3.92,15.48v424.55c0,17.32,6.88,33.93,19.13,46.18,12.25,12.25,28.86,19.13,46.18,19.13h718.4c17.32,0,33.93-6.88,46.18-19.13,12.25-12.25,19.13-28.86,19.13-46.18v-423.95c.12-6.75-1.85-13.6-6.07-19.52-2.52-3.53-5.62-6.41-9.07-8.61L530.11,125.63c-10.97-7.31-25.26-7.31-36.22,0L102.51,386.54c-2.15,1.38-4.16,3.02-5.97,4.93Zm415.46-199.42l334.35,222.9-273.37,195.02h-121.96l-273.37-195.02,334.35-222.9ZM152.8,477.44l268.81,191.76c5.53,3.95,12.17,6.07,18.96,6.07h142.87c6.8,0,13.43-2.12,18.96-6.07l268.8-191.76v361.1H152.8v-361.1Z"/>
</svg>