<?xml version="1.0" encoding="UTF-8"?>
<svg id="Layer_1" data-name="Layer 1" xmlns="http://www.w3.org/2000/svg" viewBox="0 0 1024 1024">
  <defs>
    <style>
      .cls-1 {
        fill: #231f20;
        fill-rule: evenodd;
      }
    </style>
  </defs>
  <path class="cls-1" d="m91.46,523.51l.04.08.1.23.34.74c.28.61.68,1.46,1.19,2.52,1.02,2.13,2.52,5.14,4.49,8.9,3.94,7.53,9.82,18.1,17.75,30.69,15.83,25.15,40.01,58.63,73.54,92.16,67.22,67.23,172.71,135.16,323.09,135.16s255.87-67.94,323.09-135.16c33.53-33.53,57.71-67.01,73.54-92.16,7.93-12.6,13.81-23.17,17.75-30.69,1.97-3.76,3.47-6.78,4.49-8.9.52-1.07.91-1.91,1.19-2.52l.34-.74.11-.23.04-.08v-.03s.03-.03.03-.03c3.24-7.29,3.24-15.61,0-22.91,0,0,0-.01-.02-.03v-.03s-.05-.08-.05-.08l-.11-.23-.34-.74c-.28-.61-.68-1.45-1.19-2.52-1.02-2.13-2.51-5.14-4.49-8.9-3.94-7.53-9.82-18.1-17.75-30.69-15.83-25.15-40.01-58.63-73.54-92.16-67.22-67.22-172.71-135.16-323.09-135.16s-255.87,67.94-323.09,135.16c-33.53,33.53-57.71,67.01-73.54,92.16-7.93,12.6-13.81,23.17-17.75,30.69-1.97,3.76-3.47,6.78-4.49,8.9-.51,1.07-.91,1.91-1.19,2.52l-.34.74-.1.23-.04.08v.03s-.03.03-.03.03c-3.24,7.29-3.24,15.62,0,22.91,0,0,0,.01.01.03v.03Zm71.64-36.15c14.13-22.44,35.78-52.41,65.7-82.33,59.68-59.68,151.59-118.64,283.21-118.64s223.53,58.96,283.21,118.64c29.92,29.92,51.56,59.89,65.7,82.33,6.28,9.98,11.05,18.42,14.36,24.63-3.32,6.21-8.08,14.65-14.36,24.63-14.13,22.44-35.78,52.41-65.7,82.33-59.68,59.67-151.59,118.64-283.21,118.64s-223.53-58.96-283.21-118.64c-29.92-29.92-51.57-59.89-65.7-82.33-6.28-9.98-11.05-18.42-14.36-24.63,3.32-6.21,8.08-14.65,14.36-24.63Z"/>
  <path class="cls-1" d="m512,681.2c93.45,0,169.2-75.75,169.2-169.2s-75.75-169.2-169.2-169.2-169.2,75.75-169.2,169.2,75.75,169.2,169.2,169.2Zm0-282c62.3,0,112.8,50.5,112.8,112.8s-50.5,112.8-112.8,112.8-112.8-50.5-112.8-112.8,50.5-112.8,112.8-112.8Z"/>
</svg>