<?xml version="1.0" encoding="UTF-8"?>
<svg id="Layer_1" data-name="Layer 1" xmlns="http://www.w3.org/2000/svg" viewBox="0 0 1024 1024">
  <defs>
    <style>
      .cls-1 {
        fill: #231f20;
        fill-rule: evenodd;
      }
    </style>
  </defs>
  <path class="cls-1" d="m95.86,475.74l189.07,147.88-66.04,230.77c-15.88,55.5,46.17,100.58,94.04,68.33l199.07-134.12,199.07,134.12c47.88,32.26,109.93-12.83,94.04-68.33l-66.04-230.77,189.07-147.88c45.47-35.56,21.77-108.51-35.92-110.56l-239.89-8.5-82.22-225.52c-19.77-54.23-96.47-54.23-116.24,0l-82.22,225.52-239.89,8.5c-57.69,2.05-81.39,74.99-35.92,110.56Zm278-57.23c25.18-.89,47.3-16.97,55.93-40.64l82.21-225.52,82.22,225.52c8.63,23.67,30.75,39.74,55.93,40.64l239.89,8.5-189.07,147.88c-19.84,15.52-28.29,41.53-21.36,65.75l66.04,230.77-199.07-134.12c-20.89-14.08-48.24-14.08-69.14,0l-199.07,134.12,66.04-230.77c6.93-24.22-1.52-50.23-21.36-65.75l-189.07-147.88,239.89-8.5Z"/>
</svg>