<?xml version="1.0" encoding="UTF-8"?>
<svg id="Layer_1" data-name="Layer 1" xmlns="http://www.w3.org/2000/svg" viewBox="0 0 1024 1024">
  <defs>
    <style>
      .cls-1 {
        fill: #231f20;
        fill-rule: evenodd;
      }
    </style>
  </defs>
  <path class="cls-1" d="m920.15,107.01c-11.21-7.32-24.32-11.21-37.7-11.22H141.55c-13.38,0-26.49,3.9-37.7,11.22-11.21,7.31-20.05,17.73-25.44,29.98-5.39,12.25-7.11,25.8-4.94,39.01,2.17,13.18,8.12,25.46,17.13,35.32.02.02.03.03.05.05l274.62,302.21,8.73,346.62c.18,12.29,3.64,24.32,10.02,34.82,6.44,10.59,15.61,19.26,26.55,25.08,10.94,5.83,23.26,8.6,35.64,8.02,9.4-.44,17.42-4.43,20.04-5.73l.12-.06c4.1-2.04,8.17-4.46,11.5-6.55,4.8-3.01,11.01-7.26,13.62-9.04.51-.34.88-.6,1.08-.74l126.02-80.8.15-.1c9.68-6.28,17.62-14.9,23.08-25.07,5.33-9.91,8.13-20.97,8.17-32.22l8.61-254.1,274.74-302.34s.03-.03.04-.05c9.01-9.87,14.96-22.14,17.13-35.33,2.18-13.21.46-26.76-4.93-39.01-5.4-12.25-14.23-22.67-25.44-29.98Zm-37.79,57.87l-283.33,311.8c-5.5,6.05-8.67,13.86-8.95,22.03l-9.06,267.38c-.01.41-.02.83-.02,1.25l-125.91,80.73-.35.24c-1.03.68-2.6,1.75-4.13,2.79-.75.51-1.49,1.02-2.13,1.46-1.8,1.22-3.69,2.48-5.55,3.69l-9-357.23c-.21-8.28-3.39-16.21-8.96-22.33L141.64,164.88l-.08-.09h740.87l-.08.09Z"/>
</svg>