<?xml version="1.0" encoding="UTF-8"?>
<svg id="Layer_1" data-name="Layer 1" xmlns="http://www.w3.org/2000/svg" viewBox="0 0 1024 1024">
  <defs>
    <style>
      .cls-1 {
        fill: #231f20;
        fill-rule: evenodd;
      }
    </style>
  </defs>
  <path class="cls-1" d="m105.54,145.56c-4.09,2.96-7.52,6.79-10.02,11.21-2.88,5.09-4.52,10.97-4.52,17.24v736.75c0,19.38,15.71,35.08,35.08,35.08s35.08-15.71,35.08-35.08v-192.43c57.42-38.75,109.96-47.64,160.84-42.38,57.34,5.93,113.75,29.8,176.17,56.55l2.39,1.03c59.73,25.6,125.29,53.7,194.2,60.83,72.18,7.47,146.81-7.99,224.2-66.04,8.84-6.62,14.03-17.02,14.03-28.07V174.01c0-13.29-7.51-25.44-19.39-31.38-11.89-5.94-26.11-4.66-36.74,3.31-62.94,47.21-119.87,58.06-174.87,52.37-57.34-5.93-113.74-29.8-176.17-56.55l-2.39-1.02c-59.73-25.6-125.28-53.7-194.21-60.83-72.02-7.45-146.48,7.92-223.69,65.65Zm395.03,61.72c59.73,25.6,125.29,53.7,194.2,60.83,54.58,5.65,110.55-1.81,168.06-30.88v444.96c-57.42,38.75-109.96,47.64-160.84,42.38-57.34-5.93-113.74-29.8-176.17-56.55l-2.39-1.03c-59.73-25.6-125.28-53.7-194.21-60.83-54.57-5.65-110.55,1.81-168.06,30.88V192.08c57.42-38.74,109.96-47.64,160.84-42.38,57.34,5.93,113.75,29.8,176.17,56.55l2.39,1.02Z"/>
</svg>