<?xml version="1.0" encoding="UTF-8"?>
<svg id="Layer_1" data-name="Layer 1" xmlns="http://www.w3.org/2000/svg" viewBox="0 0 1024 1024">
  <defs>
    <style>
      .cls-1 {
        fill: #231f20;
        fill-rule: evenodd;
      }
    </style>
  </defs>
  <path class="cls-1" d="m512,938.91c235.78,0,426.91-191.14,426.91-426.91S747.78,85.09,512,85.09,85.09,276.22,85.09,512s191.14,426.91,426.91,426.91Zm85.92-168.73c-13.81,32.26-29.42,56.27-45.08,71.73-15.52,15.32-29.28,20.66-40.84,20.66s-25.32-5.33-40.84-20.66c-15.66-15.46-31.26-39.47-45.08-71.73-11.56-26.99-21.41-58.7-28.96-93.98h229.75c-7.55,35.28-17.4,66.99-28.96,93.98Zm-211.58-159.66c-3.69-31.19-5.69-64.23-5.69-98.52s2-67.33,5.69-98.52h251.33c3.7,31.19,5.69,64.23,5.69,98.52s-2,67.33-5.69,98.52h-251.33Zm240.58,244.05c11.75-17.36,22.21-37.12,31.38-58.54,14.91-34.82,26.99-75.36,35.61-119.84h139.95c-42.68,83.49-116.89,148.19-206.93,178.38Zm246.32-342.57c0,34.15-4.74,67.2-13.6,98.52h-155.87c3.45-31.65,5.27-64.66,5.27-98.52s-1.82-66.87-5.27-98.52h155.87c8.85,31.32,13.6,64.36,13.6,98.52Zm-39.39-164.2h-139.95c-8.62-44.48-20.7-85.02-35.61-119.83-9.17-21.42-19.63-41.17-31.38-58.54,90.04,30.19,164.26,94.89,206.93,178.38Zm-407.76-93.98c13.81-32.26,29.42-56.26,45.08-71.73,15.52-15.33,29.28-20.66,40.84-20.66s25.32,5.33,40.84,20.66c15.66,15.46,31.26,39.47,45.08,71.73,11.56,26.99,21.41,58.7,28.96,93.98h-229.75c7.55-35.28,17.4-66.99,28.96-93.98Zm-28.99-84.4c-11.75,17.37-22.21,37.12-31.38,58.54-14.91,34.82-26.99,75.36-35.61,119.83h-139.95c42.68-83.49,116.9-148.19,206.93-178.38Zm-246.32,342.57c0-34.15,4.74-67.2,13.6-98.52h155.87c-3.45,31.65-5.27,64.66-5.27,98.52s1.82,66.87,5.27,98.52h-155.87c-8.86-31.32-13.6-64.37-13.6-98.52Zm179.33,164.2c8.62,44.48,20.7,85.02,35.61,119.84,9.17,21.42,19.63,41.17,31.38,58.54-90.04-30.19-164.25-94.88-206.93-178.38h139.95Z"/>
</svg>