<?xml version="1.0" encoding="UTF-8"?>
<svg id="Layer_1" data-name="Layer 1" xmlns="http://www.w3.org/2000/svg" viewBox="0 0 1024 1024">
  <defs>
    <style>
      .cls-1 {
        fill: #231f20;
        fill-rule: evenodd;
      }
    </style>
  </defs>
  <path class="cls-1" d="m512,936c234.17,0,424-189.83,424-424S746.17,88,512,88,88,277.83,88,512s189.83,424,424,424Zm0-782.77c198.14,0,358.77,160.63,358.77,358.77s-160.63,358.77-358.77,358.77-358.77-160.63-358.77-358.77,160.63-358.77,358.77-358.77Z"/>
  <path class="cls-1" d="m512,683.23c-22.52,0-40.77,18.25-40.77,40.77s18.25,40.77,40.77,40.77,40.77-18.25,40.77-40.77-18.25-40.77-40.77-40.77Z"/>
  <path class="cls-1" d="m397.85,463.08c18.01,0,32.62-14.6,32.62-32.61,0-16.13,4.78-31.89,13.74-45.3,8.96-13.41,21.69-23.86,36.59-30.03,14.9-6.17,31.29-7.79,47.11-4.64,15.82,3.15,30.34,10.91,41.75,22.32,11.4,11.4,19.17,25.93,22.32,41.75,3.14,15.82,1.53,32.21-4.64,47.11-6.17,14.9-16.62,27.64-30.03,36.6-13.41,8.96-29.18,13.74-45.3,13.74-8.65,0-16.95,3.44-23.06,9.55-6.12,6.11-9.55,14.41-9.55,23.06v32.61c0,18.01,14.6,32.62,32.61,32.62s32.61-14.6,32.61-32.62v-3.67c17.37-3.96,33.96-11.07,48.92-21.07,24.14-16.12,42.95-39.05,54.06-65.87,11.11-26.82,14.02-56.33,8.35-84.8-5.67-28.47-19.64-54.62-40.17-75.15-20.53-20.53-46.68-34.51-75.15-40.17-28.47-5.66-57.98-2.76-84.8,8.35-26.82,11.11-49.74,29.92-65.87,54.06-16.13,24.14-24.74,52.51-24.74,81.54,0,18.01,14.6,32.61,32.61,32.61Z"/>
</svg>