<?xml version="1.0" encoding="UTF-8"?>
<svg id="Layer_1" data-name="Layer 1" xmlns="http://www.w3.org/2000/svg" viewBox="0 0 1024 1024">
  <defs>
    <style>
      .cls-1 {
        fill: #231f20;
        fill-rule: evenodd;
      }
    </style>
  </defs>
  <path class="cls-1" d="m486.48,438.06c-7.81-7.81-20.48-7.81-28.29,0l-25.86,25.86-25.86-25.86c-7.81-7.81-20.47-7.81-28.28,0s-7.81,20.47,0,28.29l25.86,25.86-25.86,25.86c-7.81,7.81-7.81,20.48,0,28.29,7.81,7.81,20.47,7.81,28.28,0l25.86-25.86,25.86,25.86c7.81,7.81,20.48,7.81,28.29,0,7.81-7.81,7.81-20.48,0-28.29l-25.86-25.86,25.86-25.86c7.81-7.81,7.81-20.48,0-28.29Z"/>
  <path class="cls-1" d="m681.14,432.2c-38,0-68.8,30.8-68.8,68.8s30.8,68.8,68.8,68.8,68.8-30.8,68.8-68.8-30.8-68.8-68.8-68.8Zm0,97.6c-15.9,0-28.8-12.9-28.8-28.8s12.9-28.8,28.8-28.8,28.8,12.9,28.8,28.8-12.9,28.8-28.8,28.8Z"/>
  <path class="cls-1" d="m939.72,659.94l-.08-.48c-.3-1.96-.63-4.33-.99-6.95v-.06s0,0,0,0h0c-.88-6.36-1.95-14.14-3.36-20.99l-.07-.3c-3.74-17.27-8.07-34.66-13.94-52.3-10.06-32.94-23.34-66.03-38.78-98.77l-.09-.19c-16.33-33.99-32.92-64.45-51.6-92.84l-2.99-4.56c-6.55-10.45-14.74-22.8-25.66-33.98l-.27-.27-.08-.08-.31-.34-.7-.76c-.72-.77-2.14-2.27-4.18-3.93-3.89-3.68-7.65-6.89-10.79-9.55l-.87-.74-.65-.49c-24.24-18.43-52.2-28.18-83.2-29.77-7.78-14.48-15.92-28.36-24.4-41.64l-.02-.04-2.62-4.11c-5.74-9.43-13.03-20.76-22.8-31.08-26.63-28.62-60.93-42.96-99.48-43.46h-238.51c-24.65-.44-46.44,3.88-66.28,13.27-16.36,7.7-30.1,17.19-41.1,29.92l-.37.43-.35.44c-14.07,17.59-25.71,36.18-33.58,49.45-13.3,22.45-25.37,45.33-36.2,68.66l-.05.12c-11.65,25.38-21.65,50.79-30,75.83l-.06.2c-5.79,17.79-11.3,36.79-15.58,56.87-3.94,17.55-5.74,31.84-6.63,45.22l-.03.5-.05,1c-.77,15.25-1.79,35.63,3.13,56.61,2.32,11.02,6.4,25.83,15.24,40.26,11.58,19.24,27.74,33.33,48.1,41.48l.83.33c.32.14.81.34,1.39.56,1.08.42,2.63.96,4.55,1.43.46.16.87.31,1.24.43.71.24,1.37.44,1.71.54l.34.11h.05c1.38.47,2.78.82,4.17,1.08-.27,2.8-.49,5.56-.67,8.28l-.02.33v.33c-.45,9.3-.98,20.53-.51,31.62,0,1.48.02,4.81.67,8.72.59,7.34,1.63,14.66,3.13,21.94l.05.24c2.6,12.13,7.16,28.37,17.1,44.11,12.84,20.73,30.58,35.68,52.7,44.3,12.43,4.93,24.66,7.18,33.52,8.81l1.58.29.59.11.59.08c16.02,2.3,32.57,1.63,49.42-1.54l.33-.06.33-.07c26.85-5.67,50.74-18.6,74.83-38.52l.21-.17c14.48-12.19,28.32-25.64,40.83-37.79l5.54-5.53,5.29-4.99c13.62-13.24,28.43-26.25,45.46-35.24l.08-.04c15.45-8.22,27.12-10.88,38.08-10.66,6.66.32,14,.2,19.97.1h0c2.49-.04,4.74-.08,6.61-.08h2.28c9.32,0,16.97.76,23.74,2.33l.43.09c11.6,2.51,23.88,8.02,37.81,17.79,13.95,9.79,26.9,22.24,40.26,36.08l12.58,12.69.39.38,3.55,3.46c13.24,12.9,29.04,28.3,47.2,40.84l.28.2.28.19c17.84,11.72,36.67,20.38,57.23,23.93,8.49,1.54,18.03,2.67,27.53,2.67,15.19,0,29.85-2.19,44.33-6.5,23.75-6.74,42.73-20.35,56.89-38.88,17.63-23.03,25.89-50.41,27.07-81.44,1.42-16.99,1.49-31.88-.66-47.66l-.94-7.78Zm-751.44-97.2l-.07.2c-4.75,14.16-9.32,29.01-13.32,44.49l-3.21-1.61h-2.12c-6.61-3.11-12.14-8-16.84-15.83l-.18-.29c-3.78-6.15-6.09-13.49-7.78-21.6l-.09-.42-.1-.42c-2.84-11.94-2.45-24.48-1.63-40.89.71-10.51,2.11-21.71,5.32-35.97l.07-.34c3.71-17.42,8.57-34.32,13.95-50.85,7.64-22.91,16.82-46.25,27.54-69.61,9.96-21.45,21.08-42.54,33.37-63.27,7.24-12.2,17.08-27.8,28.43-42.07,4.19-4.74,10.39-9.52,20.94-14.49l.07-.03c10.46-4.96,22.97-7.84,39.78-7.52h.29s238.48,0,238.48,0c22.91.34,41.31,8.36,56.22,24.42l.24.25c5.28,5.56,9.92,12.45,15.32,21.34l.16.26,2.96,4.65.03.04c1.92,3.01,3.83,6.05,5.72,9.14h-210.67c-27.33-.96-51.33,3.8-73.37,13.68l-.2.09c-18.05,8.25-33.57,18.54-45.49,32.68-16.46,19.4-29.67,39.89-38.6,54.49-15.24,24.53-28.94,50.26-41.14,75.78l-.06.12c-13.22,27.97-24.56,55.98-34.03,83.57Zm693.19,148.26l-.07.76-.02.77c-.75,21.72-6.18,36.56-14.8,47.84-6.73,8.81-14.98,14.61-25.71,17.63l-.47.14c-9.12,2.73-18.06,4.05-27.37,4.05-5.01,0-10.89-.63-16.93-1.73l-.31-.05c-10.25-1.76-21.34-6.3-34.28-14.78-13.69-9.49-25.9-21.38-39.76-34.85l-2.79-2.72-11.96-12.04c-13.92-14.42-30.06-30.22-48.82-43.38-18.78-13.18-38.3-22.69-59.4-27.28-12.28-2.82-24.59-3.82-37.04-3.82h-27c-23.53-.59-45.46,5.62-68.09,17.65-24.49,12.94-44.06,30.56-58.59,44.64-3.3,2.9-7.05,6.7-9.35,9.03h0c-.75.77-1.35,1.38-1.73,1.74-12.85,12.49-25.26,24.52-37.92,35.19-18.52,15.29-33.67,22.7-48.57,25.9-10.99,2.03-20.56,2.26-28.91,1.13-9.79-1.81-16.67-3.13-23.33-5.78l-.21-.08c-9.64-3.74-17.33-9.96-23.58-20.09l-.18-.29c-4.54-7.18-7.24-15.6-9.19-24.62-1.09-5.3-1.8-10.56-2.16-15.79l-.19-2.75-.2-.76v-.44l-.03-.7c-.38-8.02-.02-16.7.44-26.5.82-11.72,2.43-24.2,6.1-40.08l.08-.35c4.24-19.38,9.81-38.16,15.95-56.49,8.73-25.42,19.22-51.32,31.46-77.26,11.46-23.96,24.13-47.71,37.99-70.01l.12-.19c8.36-13.68,19.71-31.16,33.23-47.09l.08-.09c4.45-5.29,11.66-10.89,24.48-16.76,13.29-5.94,28.22-9.13,47.03-8.41l.57.02h271.9c22.39,0,40.28,5.98,55.44,17.3,3.42,2.91,6.14,5.25,8.79,7.83l2.12,2.06.16.11c.29.31.63.65,1,1.02,6.2,6.39,11.59,14.21,17.7,23.96l.16.26,3.35,5.12.04.05c16.8,25.53,32.07,53.45,47.59,85.74,14.52,30.79,26.68,61.23,35.72,90.94l.12.38.13.38c4.98,14.91,8.8,30.07,12.3,46.23,1.01,4.93,1.58,9.16,2.28,14.27h0s0,.03,0,.03c.4,2.98.85,6.25,1.44,10.13l.85,7.04.06.47c1.43,10.44,1.53,20.93.29,35.38Z"/>
</svg>