<?xml version="1.0" encoding="UTF-8"?>
<svg id="Layer_1" data-name="Layer 1" xmlns="http://www.w3.org/2000/svg" viewBox="0 0 1024 1024">
  <defs>
    <style>
      .cls-1 {
        fill-rule: evenodd;
      }

      .cls-1, .cls-2 {
        fill: #231f20;
      }
    </style>
  </defs>
  <path class="cls-1" d="m433.51,179.81c20.82-20.82,49.05-32.51,78.49-32.51s57.67,11.69,78.49,32.51c20.81,20.82,32.51,49.05,32.51,78.49,0,17.51,14.2,31.71,31.71,31.71s31.71-14.2,31.71-31.71c0-46.26-18.38-90.62-51.09-123.34-32.71-32.71-77.08-51.09-123.33-51.09s-90.62,18.38-123.33,51.09c-32.71,32.71-51.09,77.08-51.09,123.34v110.99h-142.71c-35.03,0-63.43,28.4-63.43,63.43v443.98c0,35.03,28.4,63.43,63.43,63.43h634.26c35.03,0,63.43-28.4,63.43-63.43v-443.98c0-35.03-28.4-63.43-63.43-63.43h-428.12v-110.99c0-29.44,11.69-57.67,32.51-78.49Zm395.62,252.91v443.98H194.87v-443.98h634.26Z"/>
  <circle class="cls-2" cx="512" cy="654.71" r="39.64" transform="translate(-288.8 877.19) rotate(-67.5)"/>
</svg>