<?xml version="1.0" encoding="UTF-8"?>
<svg id="Layer_1" data-name="Layer 1" xmlns="http://www.w3.org/2000/svg" viewBox="0 0 1024 1024">
  <defs>
    <style>
      .cls-1 {
        fill: #231f20;
        fill-rule: evenodd;
      }
    </style>
  </defs>
  <path class="cls-1" d="m905.36,761.45h-391.42c-19.65,0-35.58,15.93-35.58,35.58s15.93,35.58,35.58,35.58h391.42c19.65,0,35.58-15.93,35.58-35.58s-15.93-35.58-35.58-35.58Z"/>
  <path class="cls-1" d="m98.36,823.16l76.95,71.17c13.62,12.6,34.64,12.62,48.28.03l154.34-142.33c14.45-13.32,15.36-35.83,2.03-50.28-13.32-14.45-35.83-15.36-50.28-2.04l-130.18,120.05-52.82-48.85c-14.43-13.35-36.94-12.46-50.28,1.96-13.34,14.43-12.46,36.94,1.96,50.28Z"/>
  <path class="cls-1" d="m905.36,192.12h-391.42c-19.65,0-35.58,15.93-35.58,35.58s15.93,35.58,35.58,35.58h391.42c19.65,0,35.58-15.93,35.58-35.58s-15.93-35.58-35.58-35.58Z"/>
  <path class="cls-1" d="m905.36,476.79h-391.42c-19.65,0-35.58,15.93-35.58,35.58s15.93,35.58,35.58,35.58h391.42c19.65,0,35.58-15.93,35.58-35.58s-15.93-35.58-35.58-35.58Z"/>
  <path class="cls-1" d="m98.36,538.49l76.95,71.17c13.62,12.6,34.64,12.62,48.28.03l154.34-142.33c14.45-13.33,15.36-35.83,2.03-50.28-13.32-14.45-35.83-15.36-50.28-2.04l-130.18,120.06-52.82-48.85c-14.43-13.35-36.94-12.46-50.28,1.96-13.34,14.43-12.46,36.94,1.96,50.28Z"/>
  <path class="cls-1" d="m329.69,130.38l-130.18,120.05-52.82-48.85c-14.43-13.34-36.94-12.47-50.28,1.96-13.34,14.43-12.46,36.94,1.96,50.28l76.95,71.17c13.62,12.6,34.64,12.61,48.28.03l154.34-142.33c14.45-13.32,15.36-35.83,2.03-50.28-13.32-14.45-35.83-15.36-50.28-2.04Z"/>
</svg>