<?xml version="1.0" encoding="UTF-8"?>
<svg id="Layer_1" data-name="Layer 1" xmlns="http://www.w3.org/2000/svg" viewBox="0 0 1024 1024">
  <defs>
    <style>
      .cls-1 {
        fill-rule: evenodd;
      }

      .cls-1, .cls-2 {
        fill: #231f20;
      }
    </style>
  </defs>
  <path class="cls-1" d="m846.02,277.74h-43.21v-129.25c0-17.84-14.47-32.31-32.31-32.31H253.51c-17.84,0-32.31,14.47-32.31,32.31v129.25h-43.22c-53.77,0-102.18,41.2-102.18,96.93v323.11c0,17.84,14.47,32.31,32.31,32.31h113.09v145.4c0,17.84,14.47,32.31,32.31,32.31h516.98c17.84,0,32.31-14.47,32.31-32.31v-145.4h113.09c17.84,0,32.31-14.47,32.31-32.31v-323.11c0-55.74-48.41-96.93-102.18-96.93Zm-560.19-96.93h452.36v96.93h-452.36v-96.93Zm452.36,516.98v145.4h-452.36v-210.02h452.36v64.62Zm145.4-32.31h-80.78v-64.62c0-17.84-14.47-32.31-32.31-32.31H253.51c-17.84,0-32.31,14.47-32.31,32.31v64.62h-80.78v-290.8c0-15.35,14.6-32.31,37.56-32.31h668.03c22.97,0,37.56,16.96,37.56,32.31v290.8Z"/>
  <circle class="cls-2" cx="754.33" cy="455.46" r="40.39" transform="translate(-116.87 323.34) rotate(-22.5)"/>
</svg>