<?xml version="1.0" encoding="UTF-8"?>
<svg id="Layer_1" data-name="Layer 1" xmlns="http://www.w3.org/2000/svg" viewBox="0 0 1024 1024">
  <defs>
    <style>
      .cls-1 {
        fill: #231f20;
        fill-rule: evenodd;
      }
    </style>
  </defs>
  <path class="cls-1" d="m118.15,287.83h512.38c17.68,0,32.02-14.34,32.02-32.02s-14.34-32.02-32.02-32.02H118.15c-17.69,0-32.02,14.34-32.02,32.02s14.34,32.02,32.02,32.02Z"/>
  <path class="cls-1" d="m118.15,736.17c-17.69,0-32.02,14.34-32.02,32.02s14.34,32.02,32.02,32.02h512.38c17.68,0,32.02-14.34,32.02-32.02s-14.34-32.02-32.02-32.02H118.15Z"/>
  <path class="cls-1" d="m751.99,662.74c12.51,12.51,32.78,12.51,45.29,0l128.1-128.1c12.51-12.51,12.51-32.78,0-45.29l-128.1-128.1c-12.51-12.51-32.78-12.51-45.29,0s-12.51,32.78,0,45.29l73.42,73.43H118.15c-17.69,0-32.02,14.34-32.02,32.02s14.34,32.02,32.02,32.02h707.27l-73.42,73.43c-12.51,12.51-12.51,32.78,0,45.29Z"/>
</svg>