<?xml version="1.0" encoding="UTF-8"?>
<svg id="Layer_1" data-name="Layer 1" xmlns="http://www.w3.org/2000/svg" viewBox="0 0 1024 1024">
  <defs>
    <style>
      .cls-1 {
        fill: #231f20;
        fill-rule: evenodd;
      }
    </style>
  </defs>
  <path class="cls-1" d="m460.88,840.38c92.92,0,178.04-33.4,244.01-88.84l178.17,178.17c12.88,12.89,33.78,12.89,46.66,0,12.89-12.89,12.89-33.78,0-46.67l-178.17-178.18c55.43-65.97,88.82-151.07,88.82-243.98,0-209.59-169.9-379.49-379.49-379.49S81.39,251.3,81.39,460.89s169.9,379.49,379.49,379.49Zm0-692.98c173.14,0,313.49,140.35,313.49,313.49s-140.36,313.49-313.49,313.49-313.49-140.36-313.49-313.49S287.74,147.4,460.88,147.4Z"/>
</svg>