<?xml version="1.0" encoding="UTF-8"?>
<svg id="Layer_1" data-name="Layer 1" xmlns="http://www.w3.org/2000/svg" viewBox="0 0 1024 1024">
  <defs>
    <style>
      .cls-1 {
        fill: #231f20;
        fill-rule: evenodd;
      }
    </style>
  </defs>
  <path class="cls-1" d="m532.96,547.79l-126.8,126.81c-13.98,13.98-13.98,36.64,0,50.61,13.98,13.98,36.64,13.98,50.62,0l187.91-187.91c6.99-6.99,10.48-16.15,10.48-25.31,0-4.85-.96-9.48-2.72-13.7-1.75-4.22-4.34-8.17-7.77-11.61l-187.91-187.91c-13.98-13.98-36.64-13.98-50.62,0-13.98,13.98-13.98,36.64,0,50.62l126.8,126.81H118.29c-19.77,0-35.79,16.02-35.79,35.79s16.02,35.79,35.79,35.79h414.67Z"/>
  <path class="cls-1" d="m869.92,82.5h-250.54c-19.77,0-35.79,16.02-35.79,35.79s16.02,35.79,35.79,35.79h250.54v715.83h-250.54c-19.77,0-35.79,16.03-35.79,35.79s16.02,35.79,35.79,35.79h250.54c18.98,0,37.19-7.54,50.62-20.96,13.43-13.42,20.97-31.64,20.97-50.62V154.08c0-18.98-7.54-37.19-20.97-50.62-13.42-13.42-31.64-20.97-50.62-20.97Z"/>
</svg>