<?xml version="1.0" encoding="UTF-8"?>
<svg id="Layer_1" data-name="Layer 1" xmlns="http://www.w3.org/2000/svg" viewBox="0 0 1024 1024">
  <defs>
    <style>
      .cls-1 {
        fill: #231f20;
        fill-rule: evenodd;
      }
    </style>
  </defs>
  <path class="cls-1" d="m298.06,359.19c-84.39,0-152.81,68.42-152.81,152.81s68.41,152.81,152.81,152.81c42.89,0,81.66-17.67,109.41-46.13l175.96,113.08c-6.65,17.16-10.31,35.81-10.31,55.31,0,84.39,68.42,152.81,152.81,152.81s152.81-68.42,152.81-152.81-68.41-152.81-152.81-152.81c-42.89,0-81.65,17.67-109.4,46.12l-175.97-113.08c6.66-17.15,10.31-35.8,10.31-55.29s-3.65-38.14-10.31-55.28l175.97-113.08c27.76,28.45,66.51,46.12,109.4,46.12v-.02c84.39,0,152.81-68.42,152.81-152.81s-68.42-152.81-152.81-152.81-152.81,68.41-152.81,152.81c0,19.51,3.66,38.16,10.32,55.31l-175.96,113.08c-27.76-28.47-66.53-46.14-109.42-46.14Zm78,201.02h0c-.32.45-.63.91-.93,1.38-.29.45-.57.9-.83,1.36-16.45,24.58-44.46,40.75-76.25,40.75-50.64,0-91.69-41.05-91.69-91.69s41.05-91.69,91.69-91.69c31.78,0,59.79,16.17,76.24,40.73.27.47.55.93.84,1.39.3.48.62.94.95,1.39,8.66,14,13.66,30.51,13.66,48.18s-5.01,34.2-13.68,48.2Zm271.6,179.07c.43-.57.84-1.16,1.23-1.77.38-.59.74-1.19,1.07-1.79,16.49-24.34,44.36-40.33,75.97-40.33,50.64,0,91.69,41.05,91.69,91.69s-41.05,91.69-91.69,91.69-91.69-41.05-91.69-91.69c0-17.51,4.91-33.88,13.43-47.8h0Zm78.27-594.01c50.64,0,91.69,41.05,91.69,91.69s-41.05,91.69-91.69,91.69c-31.61,0-59.49-16-75.97-40.35-.33-.6-.68-1.19-1.06-1.77-.39-.6-.79-1.19-1.21-1.76-8.52-13.92-13.44-30.29-13.44-47.82h0c0-50.63,41.05-91.68,91.69-91.68Z"/>
</svg>