<?xml version="1.0" encoding="UTF-8"?>
<svg id="Layer_1" data-name="Layer 1" xmlns="http://www.w3.org/2000/svg" viewBox="0 0 1024 1024">
  <defs>
    <style>
      .cls-1 {
        fill: #231f20;
        fill-rule: evenodd;
      }
    </style>
  </defs>
  <path class="cls-1" d="m908.92,674.37h-126.29c-2.46,0-4.87.25-7.2.72-13.76-32.24-45.74-54.84-83.01-54.84s-69.26,22.6-83.01,54.84c-2.33-.47-4.73-.72-7.2-.72H115.08c-19.93,0-36.08,16.16-36.08,36.08s16.16,36.08,36.08,36.08h487.12c2.46,0,4.87-.25,7.2-.72,13.75,32.24,45.74,54.84,83.01,54.84s69.26-22.6,83.01-54.84c2.33.47,4.73.72,7.2.72h126.29c19.93,0,36.08-16.16,36.08-36.08s-16.16-36.08-36.08-36.08Z"/>
  <path class="cls-1" d="m908.92,277.46h-414.96c-2.46,0-4.87.25-7.2.72-13.76-32.24-45.74-54.84-83.01-54.84s-69.26,22.6-83.01,54.84c-2.32-.47-4.73-.72-7.2-.72H115.08c-19.93,0-36.08,16.16-36.08,36.08s16.16,36.08,36.08,36.08h198.46c2.46,0,4.87-.25,7.2-.72,13.75,32.24,45.74,54.84,83.01,54.84s69.26-22.6,83.01-54.84c2.33.47,4.73.72,7.2.72h414.96c19.93,0,36.08-16.16,36.08-36.08s-16.16-36.08-36.08-36.08Z"/>
</svg>