<?xml version="1.0" encoding="UTF-8"?>
<svg id="Layer_1" data-name="Layer 1" xmlns="http://www.w3.org/2000/svg" viewBox="0 0 1024 1024">
  <defs>
    <style>
      .cls-1 {
        fill: #231f20;
        fill-rule: evenodd;
      }
    </style>
  </defs>
  <path class="cls-1" d="m512,207.36c-201.9,0-365.57,163.67-365.57,365.57s163.67,365.57,365.57,365.57,365.57-163.67,365.57-365.57-163.67-365.57-365.57-365.57Zm0,670.21c-168.25,0-304.64-136.39-304.64-304.64s136.39-304.64,304.64-304.64,304.64,136.39,304.64,304.64-136.39,304.64-304.64,304.64Z"/>
  <path class="cls-1" d="m641.26,400.59l-150.8,150.8c-11.9,11.9-11.9,31.19,0,43.08,11.9,11.9,31.18,11.9,43.08,0l150.8-150.8c11.9-11.9,11.9-31.19,0-43.08s-31.18-11.9-43.08,0Z"/>
  <path class="cls-1" d="m603.39,146.43c16.82,0,30.46-13.64,30.46-30.47s-13.64-30.46-30.46-30.46h-182.79c-16.82,0-30.46,13.64-30.46,30.46s13.64,30.47,30.46,30.47h182.79Z"/>
</svg>