<?xml version="1.0" encoding="UTF-8"?>
<svg id="Layer_1" data-name="Layer 1" xmlns="http://www.w3.org/2000/svg" viewBox="0 0 1024 1024">
  <defs>
    <style>
      .cls-1 {
        fill: #231f20;
        fill-rule: evenodd;
      }
    </style>
  </defs>
  <path class="cls-1" d="m743.96,707.52c-21.62-10.08-43.82-18.72-66.45-25.88,87.39-55.06,145.46-152.41,145.46-263.33,0-171.76-139.24-311.01-311.01-311.01S200.96,246.55,200.96,418.31c0,110.93,58.08,208.29,145.48,263.35-22.61,7.16-44.79,15.79-66.4,25.86-72.64,33.87-136.97,83.24-188.49,144.64-12.99,15.48-10.97,38.56,4.51,51.55,15.48,12.99,38.56,10.97,51.55-4.51,44.65-53.21,100.41-96,163.36-125.36,61.66-28.75,128.75-43.94,196.75-44.55,1.41.02,2.83.03,4.24.03s2.85,0,4.27-.03c68.02.6,135.13,15.79,196.8,44.55,62.95,29.36,118.71,72.14,163.36,125.36,12.99,15.48,36.07,17.5,51.55,4.51,15.48-12.99,17.5-36.07,4.51-51.55-51.51-61.4-115.85-110.77-188.49-144.64Zm-227.98-51.42c-1.32,0-2.65-.01-3.98-.01s-2.69,0-4.03.01c-129.51-2.13-233.84-107.78-233.84-237.79s106.48-237.83,237.83-237.83,237.83,106.48,237.83,237.83-104.31,235.65-233.81,237.79Z"/>
</svg>